<svg width="14" height="57" viewBox="0 0 14 57" fill="none" xmlns="http://www.w3.org/2000/svg">
<rect y="57" width="57" height="14" rx="1" transform="rotate(-90 0 57)" fill="#DC4A3D"/>
<path d="M9.55011 5.49957C9.55011 5.81457 9.50011 6.12957 9.40011 6.44457C9.29511 6.75457 9.14761 7.02207 8.95761 7.24707L8.43261 6.91707C8.60261 6.68207 8.73261 6.44957 8.82261 6.21957C8.90761 5.98957 8.95011 5.75457 8.95011 5.51457C8.95011 5.26957 8.90261 5.07707 8.80761 4.93707C8.71261 4.79207 8.57761 4.71957 8.40261 4.71957C8.23761 4.71957 8.11761 4.79957 8.04261 4.95957C7.96761 5.11957 7.88511 5.36957 7.79511 5.70957C7.73011 5.95457 7.66761 6.16457 7.60761 6.33957C7.54761 6.51457 7.47761 6.65707 7.39761 6.76707C7.31761 6.87707 7.22511 6.95707 7.12011 7.00707C7.01511 7.05707 6.88761 7.08207 6.73761 7.08207C6.53761 7.08207 6.36011 7.04457 6.20511 6.96957C6.05011 6.88957 5.92011 6.78207 5.81511 6.64707C5.70511 6.50707 5.62261 6.34457 5.56761 6.15957C5.51261 5.97457 5.48511 5.77457 5.48511 5.55957C5.48511 5.26457 5.53011 4.98957 5.62011 4.73457C5.71011 4.47957 5.84011 4.25207 6.01011 4.05207L6.50511 4.40457C6.21511 4.76957 6.07011 5.15707 6.07011 5.56707C6.07011 5.77707 6.11511 5.95457 6.20511 6.09957C6.29011 6.23957 6.42761 6.30957 6.61761 6.30957C6.69761 6.30957 6.76511 6.29457 6.82011 6.26457C6.87511 6.23457 6.92261 6.18707 6.96261 6.12207C7.00261 6.05207 7.04011 5.96457 7.07511 5.85957C7.10511 5.74957 7.14011 5.61457 7.18011 5.45457C7.24511 5.18957 7.31011 4.96207 7.37511 4.77207C7.44011 4.57707 7.51761 4.41707 7.60761 4.29207C7.69261 4.16707 7.79511 4.07457 7.91511 4.01457C8.03011 3.95457 8.17011 3.92457 8.33511 3.92457C8.71011 3.92457 9.00761 4.06707 9.22761 4.35207C9.44261 4.63207 9.55011 5.01457 9.55011 5.49957Z" fill="white"/>
<path d="M9.47511 7.88192V8.70691H7.27761C6.90761 8.70691 6.64011 8.76692 6.47511 8.88692C6.30511 9.00192 6.22011 9.17441 6.22011 9.40441C6.22011 9.52441 6.24261 9.64442 6.28761 9.76442C6.33261 9.88442 6.39761 9.99691 6.48261 10.1019C6.56261 10.2069 6.66011 10.3019 6.77511 10.3869C6.88511 10.4669 7.00761 10.5294 7.14261 10.5744H9.47511V11.3994H5.55261V10.6494H6.34011C6.07511 10.4994 5.86761 10.2819 5.71761 9.99691C5.56261 9.71191 5.48511 9.39692 5.48511 9.05192C5.48511 8.81692 5.52761 8.62441 5.61261 8.47441C5.69761 8.32441 5.81511 8.20691 5.96511 8.12191C6.11011 8.03191 6.28011 7.96941 6.47511 7.93441C6.66511 7.89941 6.86761 7.88192 7.08261 7.88192H9.47511Z" fill="white"/>
<path d="M9.55011 14.1485C9.55011 14.4585 9.49511 14.7385 9.38511 14.9885C9.27511 15.2335 9.12761 15.4435 8.94261 15.6185C8.75761 15.7935 8.54261 15.9285 8.29761 16.0235C8.04761 16.1185 7.78761 16.166 7.51761 16.166C7.24761 16.166 6.99011 16.1185 6.74511 16.0235C6.49511 15.9285 6.27761 15.7935 6.09261 15.6185C5.90761 15.4385 5.76011 15.226 5.65011 14.981C5.54011 14.731 5.48511 14.4535 5.48511 14.1485C5.48511 13.8435 5.54011 13.5685 5.65011 13.3235C5.76011 13.0735 5.90761 12.861 6.09261 12.686C6.27761 12.506 6.49511 12.3685 6.74511 12.2735C6.99011 12.1785 7.24761 12.131 7.51761 12.131C7.78761 12.131 8.04761 12.1785 8.29761 12.2735C8.54261 12.3685 8.75761 12.506 8.94261 12.686C9.12761 12.861 9.27511 13.0735 9.38511 13.3235C9.49511 13.5685 9.55011 13.8435 9.55011 14.1485ZM7.52511 15.3185C7.71511 15.3185 7.89011 15.2885 8.05011 15.2285C8.21011 15.1685 8.35011 15.086 8.47011 14.981C8.58511 14.876 8.67761 14.7535 8.74761 14.6135C8.81261 14.4685 8.84511 14.3135 8.84511 14.1485C8.84511 13.9835 8.81261 13.831 8.74761 13.691C8.67761 13.546 8.58261 13.421 8.46261 13.316C8.34261 13.211 8.20261 13.1285 8.04261 13.0685C7.88261 13.0085 7.70761 12.9785 7.51761 12.9785C7.33261 12.9785 7.16011 13.0085 7.00011 13.0685C6.83511 13.1285 6.69261 13.211 6.57261 13.316C6.45261 13.421 6.36011 13.546 6.29511 13.691C6.22511 13.831 6.19011 13.9835 6.19011 14.1485C6.19011 14.3085 6.22511 14.461 6.29511 14.606C6.36511 14.746 6.46011 14.8685 6.58011 14.9735C6.70011 15.0785 6.84261 15.1635 7.00761 15.2285C7.16761 15.2885 7.34011 15.3185 7.52511 15.3185Z" fill="white"/>
<path d="M9.47524 17.7275H5.55274V16.9025H9.47524V17.7275ZM4.90774 17.7275H4.00024V16.9025H4.90774V17.7275Z" fill="white"/>
<path d="M9.2727 18.2984C9.3227 18.4034 9.3802 18.5484 9.4452 18.7334C9.5052 18.9184 9.5352 19.1159 9.5352 19.3259C9.5352 19.4559 9.5177 19.5784 9.4827 19.6934C9.4477 19.8084 9.3952 19.9109 9.3252 20.0009C9.2552 20.0859 9.1652 20.1534 9.0552 20.2034C8.9402 20.2534 8.8027 20.2784 8.6427 20.2784H6.1902V20.7959H5.5527V20.2784H4.2627V19.4534H5.5527V18.5984H6.1902V19.4534H8.3802C8.5202 19.4434 8.6227 19.4009 8.6877 19.3259C8.7477 19.2459 8.7777 19.1484 8.7777 19.0334C8.7777 18.9184 8.7577 18.8084 8.7177 18.7034C8.6777 18.5984 8.6452 18.5209 8.6202 18.4709L9.2727 18.2984Z" fill="white"/>
<path d="M9.55011 22.7769C9.55011 23.0919 9.50011 23.4069 9.40011 23.7219C9.29511 24.0319 9.14761 24.2994 8.95761 24.5244L8.43261 24.1944C8.60261 23.9594 8.73261 23.7269 8.82261 23.4969C8.90761 23.2669 8.95011 23.0319 8.95011 22.7919C8.95011 22.5469 8.90261 22.3544 8.80761 22.2144C8.71261 22.0694 8.57761 21.9969 8.40261 21.9969C8.23761 21.9969 8.11761 22.0769 8.04261 22.2369C7.96761 22.3969 7.88511 22.6469 7.79511 22.9869C7.73011 23.2319 7.66761 23.4419 7.60761 23.6169C7.54761 23.7919 7.47761 23.9344 7.39761 24.0444C7.31761 24.1544 7.22511 24.2344 7.12011 24.2844C7.01511 24.3344 6.88761 24.3594 6.73761 24.3594C6.53761 24.3594 6.36011 24.3219 6.20511 24.2469C6.05011 24.1669 5.92011 24.0594 5.81511 23.9244C5.70511 23.7844 5.62261 23.6219 5.56761 23.4369C5.51261 23.2519 5.48511 23.0519 5.48511 22.8369C5.48511 22.5419 5.53011 22.2669 5.62011 22.0119C5.71011 21.7569 5.84011 21.5294 6.01011 21.3294L6.50511 21.6819C6.21511 22.0469 6.07011 22.4344 6.07011 22.8444C6.07011 23.0544 6.11511 23.2319 6.20511 23.3769C6.29011 23.5169 6.42761 23.5869 6.61761 23.5869C6.69761 23.5869 6.76511 23.5719 6.82011 23.5419C6.87511 23.5119 6.92261 23.4644 6.96261 23.3994C7.00261 23.3294 7.04011 23.2419 7.07511 23.1369C7.10511 23.0269 7.14011 22.8919 7.18011 22.7319C7.24511 22.4669 7.31011 22.2394 7.37511 22.0494C7.44011 21.8544 7.51761 21.6944 7.60761 21.5694C7.69261 21.4444 7.79511 21.3519 7.91511 21.2919C8.03011 21.2319 8.17011 21.2019 8.33511 21.2019C8.71011 21.2019 9.00761 21.3444 9.22761 21.6294C9.44261 21.9094 9.55011 22.2919 9.55011 22.7769Z" fill="white"/>
<path d="M9.55011 26.8845C9.55011 27.1895 9.49761 27.467 9.39261 27.717C9.28261 27.967 9.13511 28.182 8.95011 28.362C8.76511 28.537 8.55011 28.6745 8.30511 28.7745C8.06011 28.8695 7.80011 28.917 7.52511 28.917C7.25011 28.917 6.99011 28.8695 6.74511 28.7745C6.49511 28.6745 6.27761 28.537 6.09261 28.362C5.90261 28.182 5.75511 27.967 5.65011 27.717C5.54011 27.467 5.48511 27.187 5.48511 26.877C5.48511 26.572 5.54011 26.297 5.65011 26.052C5.76011 25.802 5.90761 25.5895 6.09261 25.4145C6.27261 25.2395 6.48511 25.107 6.73011 25.017C6.97011 24.922 7.22261 24.8745 7.48761 24.8745C7.54761 24.8745 7.60511 24.877 7.66011 24.882C7.71011 24.887 7.75261 24.892 7.78761 24.897V28.0395C7.96261 28.0245 8.12011 27.9845 8.26011 27.9195C8.40011 27.8495 8.52261 27.762 8.62761 27.657C8.72761 27.547 8.80511 27.4245 8.86011 27.2895C8.91511 27.1495 8.94261 27.0045 8.94261 26.8545C8.94261 26.7445 8.93011 26.637 8.90511 26.532C8.87511 26.422 8.83511 26.322 8.78511 26.232C8.73011 26.142 8.66511 26.062 8.59011 25.992C8.51511 25.922 8.43261 25.867 8.34261 25.827L8.54511 25.122C8.84011 25.257 9.08261 25.482 9.27261 25.797C9.45761 26.107 9.55011 26.4695 9.55011 26.8845ZM7.21761 25.692C7.05261 25.707 6.90011 25.7495 6.76011 25.8195C6.62011 25.8845 6.50261 25.9695 6.40761 26.0745C6.30761 26.1795 6.23011 26.302 6.17511 26.442C6.12011 26.582 6.09261 26.7295 6.09261 26.8845C6.09261 27.0395 6.12011 27.187 6.17511 27.327C6.23011 27.462 6.30761 27.582 6.40761 27.687C6.50261 27.792 6.62011 27.877 6.76011 27.942C6.90011 28.007 7.05261 28.047 7.21761 28.062V25.692Z" fill="white"/>
<path d="M9.55011 32.0255C9.55011 32.4355 9.41761 32.7455 9.15261 32.9555C8.88261 33.1655 8.48261 33.2705 7.95261 33.2705H5.55261V32.4455H7.78761C8.49261 32.4455 8.84511 32.1955 8.84511 31.6955C8.84511 31.4605 8.77261 31.238 8.62761 31.028C8.48261 30.818 8.27261 30.6555 7.99761 30.5405H5.55261V29.7155H8.50011C8.59511 29.7155 8.66261 29.7005 8.70261 29.6705C8.74261 29.6355 8.76511 29.5755 8.77011 29.4905H9.47511C9.49011 29.5755 9.50011 29.6455 9.50511 29.7005C9.51011 29.7555 9.51261 29.808 9.51261 29.858C9.51261 30.008 9.47261 30.1355 9.39261 30.2405C9.30761 30.3455 9.20011 30.4005 9.07011 30.4055L8.68011 30.4205C8.96511 30.5955 9.18261 30.823 9.33261 31.103C9.47761 31.383 9.55011 31.6905 9.55011 32.0255Z" fill="white"/>
<path d="M9.08517 35.1523C9.22017 35.3523 9.32517 35.5698 9.40017 35.8048C9.47517 36.0348 9.51267 36.2798 9.51267 36.5398C9.51267 36.9198 9.43517 37.2673 9.28017 37.5823C9.12517 37.8923 8.92267 38.1598 8.67267 38.3848C8.42267 38.6098 8.13517 38.7848 7.81017 38.9098C7.48517 39.0298 7.15267 39.0898 6.81267 39.0898C6.45767 39.0898 6.11767 39.0248 5.79267 38.8948C5.46767 38.7648 5.18017 38.5873 4.93017 38.3623C4.68017 38.1323 4.48267 37.8623 4.33767 37.5523C4.18767 37.2373 4.11267 36.8948 4.11267 36.5248C4.11267 36.1448 4.19267 35.7998 4.35267 35.4898C4.50767 35.1748 4.71267 34.9073 4.96767 34.6873C5.22267 34.4623 5.51267 34.2898 5.83767 34.1698C6.15767 34.0448 6.48517 33.9823 6.82017 33.9823C7.17517 33.9823 7.51267 34.0448 7.83267 34.1698C8.14767 34.2948 8.43017 34.4698 8.68017 34.6948L9.47517 33.9973V34.8073L9.08517 35.1523ZM8.75517 36.5323C8.75517 36.3673 8.73267 36.2123 8.68767 36.0673C8.64267 35.9223 8.58017 35.7898 8.50017 35.6698L7.62267 36.4273V35.6173L8.06517 35.2348C7.89017 35.1048 7.69517 35.0073 7.48017 34.9423C7.26017 34.8773 7.03767 34.8448 6.81267 34.8448C6.55767 34.8448 6.31517 34.8848 6.08517 34.9648C5.85017 35.0448 5.64267 35.1598 5.46267 35.3098C5.28267 35.4548 5.14017 35.6323 5.03517 35.8423C4.92517 36.0473 4.87017 36.2773 4.87017 36.5323C4.87017 36.8023 4.92767 37.0423 5.04267 37.2523C5.15267 37.4623 5.30017 37.6398 5.48517 37.7848C5.66517 37.9298 5.87267 38.0423 6.10767 38.1223C6.33767 38.1973 6.57267 38.2348 6.81267 38.2348C7.06267 38.2348 7.30517 38.1948 7.54017 38.1148C7.77517 38.0348 7.98267 37.9223 8.16267 37.7773C8.34267 37.6273 8.48767 37.4473 8.59767 37.2373C8.70267 37.0273 8.75517 36.7923 8.75517 36.5323Z" fill="white"/>
<path d="M9.47524 42.0893L7.66774 43.3418L8.28274 43.9943H9.47524V44.8193H4.00024V43.9943H7.47274L5.56024 42.1943V41.2943L7.20274 42.8168L9.47524 41.2118V42.0893Z" fill="white"/>
<path d="M9.55011 47.1158C9.55011 47.4308 9.50011 47.7458 9.40011 48.0608C9.29511 48.3708 9.14761 48.6383 8.95761 48.8633L8.43261 48.5333C8.60261 48.2983 8.73261 48.0658 8.82261 47.8358C8.90761 47.6058 8.95011 47.3708 8.95011 47.1308C8.95011 46.8858 8.90261 46.6933 8.80761 46.5533C8.71261 46.4083 8.57761 46.3358 8.40261 46.3358C8.23761 46.3358 8.11761 46.4158 8.04261 46.5758C7.96761 46.7358 7.88511 46.9858 7.79511 47.3258C7.73011 47.5708 7.66761 47.7808 7.60761 47.9558C7.54761 48.1308 7.47761 48.2733 7.39761 48.3833C7.31761 48.4933 7.22511 48.5733 7.12011 48.6233C7.01511 48.6733 6.88761 48.6983 6.73761 48.6983C6.53761 48.6983 6.36011 48.6608 6.20511 48.5858C6.05011 48.5058 5.92011 48.3983 5.81511 48.2633C5.70511 48.1233 5.62261 47.9608 5.56761 47.7758C5.51261 47.5908 5.48511 47.3908 5.48511 47.1758C5.48511 46.8808 5.53011 46.6058 5.62011 46.3508C5.71011 46.0958 5.84011 45.8683 6.01011 45.6683L6.50511 46.0208C6.21511 46.3858 6.07011 46.7733 6.07011 47.1833C6.07011 47.3933 6.11511 47.5708 6.20511 47.7158C6.29011 47.8558 6.42761 47.9258 6.61761 47.9258C6.69761 47.9258 6.76511 47.9108 6.82011 47.8808C6.87511 47.8508 6.92261 47.8033 6.96261 47.7383C7.00261 47.6683 7.04011 47.5808 7.07511 47.4758C7.10511 47.3658 7.14011 47.2308 7.18011 47.0708C7.24511 46.8058 7.31011 46.5783 7.37511 46.3883C7.44011 46.1933 7.51761 46.0333 7.60761 45.9083C7.69261 45.7833 7.79511 45.6908 7.91511 45.6308C8.03011 45.5708 8.17011 45.5408 8.33511 45.5408C8.71011 45.5408 9.00761 45.6833 9.22761 45.9683C9.44261 46.2483 9.55011 46.6308 9.55011 47.1158Z" fill="white"/>
<path d="M4.15015 51.885V51.15L9.47515 49.05V49.935L8.02765 50.4975V52.5525L9.47515 53.1075V54L4.15015 51.885ZM7.40515 50.6625L5.11765 51.5175L7.40515 52.4025V50.6625Z" fill="white"/>
</svg>
