<svg width="14" height="64" viewBox="0 0 14 64" fill="none" xmlns="http://www.w3.org/2000/svg">
<path d="M1 64C0.447716 64 0 63.5523 0 63L0 1C0 0.447715 0.447715 0 1 0H13C13.5523 0 14 0.447715 14 1L14 63C14 63.5523 13.5523 64 13 64H1Z" fill="#DC4A3D"/>
<path d="M10 5.25874V6.13874H7.65602C7.26135 6.13874 6.97602 6.20274 6.80002 6.33074C6.61869 6.45341 6.52802 6.63741 6.52802 6.88274C6.52802 7.01074 6.55202 7.13874 6.60002 7.26674C6.64802 7.39474 6.71735 7.51474 6.80802 7.62674C6.89335 7.73874 6.99735 7.84007 7.12002 7.93074C7.23735 8.01607 7.36802 8.08274 7.51202 8.13074H10V9.01074H5.81602V8.21074H6.65602C6.37335 8.05074 6.15202 7.81874 5.99202 7.51474C5.82669 7.21074 5.74402 6.87474 5.74402 6.50674C5.74402 6.25607 5.78935 6.05074 5.88002 5.89074C5.97069 5.73074 6.09602 5.60541 6.25602 5.51474C6.41069 5.41874 6.59202 5.35208 6.80002 5.31474C7.00269 5.27741 7.21869 5.25874 7.44802 5.25874H10Z" fill="white"/>
<path d="M10.08 11.9437C10.08 12.2744 10.0214 12.573 9.90402 12.8397C9.78669 13.101 9.62935 13.325 9.43202 13.5117C9.23469 13.6984 9.00535 13.8424 8.74402 13.9437C8.47735 14.045 8.20002 14.0957 7.91202 14.0957C7.62402 14.0957 7.34935 14.045 7.08802 13.9437C6.82135 13.8424 6.58935 13.6984 6.39202 13.5117C6.19468 13.3197 6.03735 13.093 5.92002 12.8317C5.80269 12.565 5.74402 12.269 5.74402 11.9437C5.74402 11.6184 5.80269 11.325 5.92002 11.0637C6.03735 10.797 6.19468 10.5704 6.39202 10.3837C6.58935 10.1917 6.82135 10.045 7.08802 9.9437C7.34935 9.84237 7.62402 9.7917 7.91202 9.7917C8.20002 9.7917 8.47735 9.84237 8.74402 9.9437C9.00535 10.045 9.23469 10.1917 9.43202 10.3837C9.62935 10.5704 9.78669 10.797 9.90402 11.0637C10.0214 11.325 10.08 11.6184 10.08 11.9437ZM7.92002 13.1917C8.12269 13.1917 8.30935 13.1597 8.48002 13.0957C8.65069 13.0317 8.80002 12.9437 8.92802 12.8317C9.05069 12.7197 9.14935 12.589 9.22402 12.4397C9.29335 12.285 9.32802 12.1197 9.32802 11.9437C9.32802 11.7677 9.29335 11.605 9.22402 11.4557C9.14935 11.301 9.04802 11.1677 8.92002 11.0557C8.79202 10.9437 8.64269 10.8557 8.47202 10.7917C8.30135 10.7277 8.11468 10.6957 7.91202 10.6957C7.71468 10.6957 7.53068 10.7277 7.36002 10.7917C7.18402 10.8557 7.03202 10.9437 6.90402 11.0557C6.77602 11.1677 6.67735 11.301 6.60802 11.4557C6.53335 11.605 6.49602 11.7677 6.49602 11.9437C6.49602 12.1144 6.53335 12.277 6.60802 12.4317C6.68269 12.581 6.78402 12.7117 6.91202 12.8237C7.04002 12.9357 7.19202 13.0264 7.36802 13.0957C7.53869 13.1597 7.72269 13.1917 7.92002 13.1917Z" fill="white"/>
<path d="M10 15.7607H5.81603V14.8807H10V15.7607ZM5.12803 15.7607H4.16003V14.8807H5.12803V15.7607Z" fill="white"/>
<path d="M9.78406 16.3702C9.8374 16.4822 9.89873 16.6368 9.96806 16.8342C10.0321 17.0315 10.0641 17.2422 10.0641 17.4662C10.0641 17.6048 10.0454 17.7355 10.0081 17.8582C9.97073 17.9808 9.91473 18.0902 9.84006 18.1862C9.7654 18.2768 9.6694 18.3488 9.55206 18.4022C9.4294 18.4555 9.28273 18.4822 9.11206 18.4822H6.49606V19.0342H5.81606V18.4822H4.44006V17.6022H5.81606V16.6902H6.49606V17.6022H8.83206C8.9814 17.5915 9.09073 17.5462 9.16006 17.4662C9.22406 17.3808 9.25606 17.2768 9.25606 17.1542C9.25606 17.0315 9.23473 16.9142 9.19206 16.8022C9.1494 16.6902 9.11473 16.6075 9.08806 16.5542L9.78406 16.3702Z" fill="white"/>
<path d="M10.08 21.1467C10.08 21.4827 10.0267 21.8187 9.92002 22.1547C9.80802 22.4854 9.65069 22.7707 9.44802 23.0107L8.88802 22.6587C9.06935 22.4081 9.20802 22.1601 9.30402 21.9147C9.39469 21.6694 9.44002 21.4187 9.44002 21.1627C9.44002 20.9014 9.38935 20.6961 9.28802 20.5467C9.18669 20.3921 9.04269 20.3147 8.85602 20.3147C8.68002 20.3147 8.55202 20.4001 8.47202 20.5707C8.39202 20.7414 8.30402 21.0081 8.20802 21.3707C8.13869 21.6321 8.07202 21.8561 8.00802 22.0427C7.94402 22.2294 7.86935 22.3814 7.78402 22.4987C7.69869 22.6161 7.60002 22.7014 7.48802 22.7547C7.37602 22.8081 7.24002 22.8347 7.08002 22.8347C6.86669 22.8347 6.67735 22.7947 6.51202 22.7147C6.34669 22.6294 6.20802 22.5147 6.09602 22.3707C5.97868 22.2214 5.89068 22.0481 5.83202 21.8507C5.77335 21.6534 5.74402 21.4401 5.74402 21.2107C5.74402 20.8961 5.79202 20.6027 5.88802 20.3307C5.98402 20.0587 6.12269 19.8161 6.30402 19.6027L6.83202 19.9787C6.52269 20.3681 6.36802 20.7814 6.36802 21.2187C6.36802 21.4427 6.41602 21.6321 6.51202 21.7867C6.60269 21.9361 6.74935 22.0107 6.95202 22.0107C7.03735 22.0107 7.10935 21.9947 7.16802 21.9627C7.22669 21.9307 7.27735 21.8801 7.32002 21.8107C7.36268 21.7361 7.40268 21.6427 7.44002 21.5307C7.47202 21.4134 7.50935 21.2694 7.55202 21.0987C7.62135 20.8161 7.69069 20.5734 7.76002 20.3707C7.82935 20.1627 7.91202 19.9921 8.00802 19.8587C8.09869 19.7254 8.20802 19.6267 8.33602 19.5627C8.45869 19.4987 8.60802 19.4667 8.78402 19.4667C9.18402 19.4667 9.50135 19.6187 9.73602 19.9227C9.96535 20.2214 10.08 20.6294 10.08 21.1467Z" fill="white"/>
<path d="M10.08 25.5293C10.08 25.8546 10.024 26.1506 9.91202 26.4173C9.79469 26.6839 9.63735 26.9133 9.44002 27.1053C9.24269 27.2919 9.01335 27.4386 8.75202 27.5453C8.49069 27.6466 8.21335 27.6973 7.92002 27.6973C7.62669 27.6973 7.34935 27.6466 7.08802 27.5453C6.82135 27.4386 6.58935 27.2919 6.39202 27.1053C6.18935 26.9133 6.03202 26.6839 5.92002 26.4173C5.80269 26.1506 5.74402 25.8519 5.74402 25.5213C5.74402 25.1959 5.80269 24.9026 5.92002 24.6413C6.03735 24.3746 6.19468 24.1479 6.39202 23.9613C6.58402 23.7746 6.81068 23.6333 7.07202 23.5373C7.32802 23.4359 7.59735 23.3853 7.88002 23.3853C7.94402 23.3853 8.00535 23.3879 8.06402 23.3933C8.11735 23.3986 8.16269 23.4039 8.20002 23.4093V26.7613C8.38669 26.7453 8.55469 26.7026 8.70402 26.6333C8.85335 26.5586 8.98402 26.4653 9.09602 26.3533C9.20268 26.2359 9.28535 26.1053 9.34402 25.9613C9.40269 25.8119 9.43202 25.6573 9.43202 25.4973C9.43202 25.3799 9.41869 25.2653 9.39202 25.1533C9.36002 25.0359 9.31735 24.9293 9.26402 24.8333C9.20535 24.7373 9.13602 24.6519 9.05602 24.5773C8.97602 24.5026 8.88802 24.4439 8.79202 24.4013L9.00802 23.6493C9.32269 23.7933 9.58135 24.0333 9.78402 24.3693C9.98135 24.6999 10.08 25.0866 10.08 25.5293ZM7.59202 24.2573C7.41602 24.2733 7.25335 24.3186 7.10402 24.3933C6.95469 24.4626 6.82935 24.5533 6.72802 24.6653C6.62135 24.7773 6.53869 24.9079 6.48002 25.0573C6.42135 25.2066 6.39202 25.3639 6.39202 25.5293C6.39202 25.6946 6.42135 25.8519 6.48002 26.0013C6.53869 26.1453 6.62135 26.2733 6.72802 26.3853C6.82935 26.4973 6.95469 26.5879 7.10402 26.6573C7.25335 26.7266 7.41602 26.7693 7.59202 26.7853V24.2573Z" fill="white"/>
<path d="M10.08 31.0118C10.08 31.4492 9.93871 31.7798 9.65604 32.0038C9.36804 32.2278 8.94137 32.3398 8.37604 32.3398H5.81604V31.4598H8.20004C8.95204 31.4598 9.32804 31.1932 9.32804 30.6598C9.32804 30.4092 9.25071 30.1718 9.09604 29.9478C8.94137 29.7238 8.71737 29.5505 8.42404 29.4278H5.81604V28.5478H8.96004C9.06137 28.5478 9.13337 28.5318 9.17604 28.4998C9.21871 28.4625 9.24271 28.3985 9.24804 28.3078H10C10.016 28.3985 10.0267 28.4732 10.032 28.5318C10.0374 28.5905 10.04 28.6465 10.04 28.6998C10.04 28.8598 9.99737 28.9958 9.91204 29.1078C9.82137 29.2198 9.70671 29.2785 9.56804 29.2838L9.15204 29.2998C9.45604 29.4865 9.68804 29.7292 9.84804 30.0278C10.0027 30.3265 10.08 30.6545 10.08 31.0118Z" fill="white"/>
<path d="M9.58403 34.3479C9.72803 34.5612 9.84003 34.7932 9.92003 35.0439C10 35.2892 10.04 35.5505 10.04 35.8279C10.04 36.2332 9.95736 36.6039 9.79203 36.9399C9.6267 37.2705 9.4107 37.5559 9.14403 37.7959C8.87736 38.0359 8.5707 38.2225 8.22403 38.3559C7.87736 38.4839 7.5227 38.5479 7.16003 38.5479C6.78136 38.5479 6.4187 38.4785 6.07203 38.3399C5.72536 38.2012 5.4187 38.0119 5.15203 37.7719C4.88536 37.5265 4.6747 37.2385 4.52003 36.9079C4.36003 36.5719 4.28003 36.2065 4.28003 35.8119C4.28003 35.4065 4.36536 35.0385 4.53603 34.7079C4.70136 34.3719 4.92003 34.0865 5.19203 33.8519C5.46403 33.6119 5.77336 33.4279 6.12003 33.2999C6.46136 33.1665 6.8107 33.0999 7.16803 33.0999C7.5467 33.0999 7.9067 33.1665 8.24803 33.2999C8.58403 33.4332 8.88536 33.6199 9.15203 33.8599L10 33.1159V33.9799L9.58403 34.3479ZM9.23203 35.8199C9.23203 35.6439 9.20803 35.4785 9.16003 35.3239C9.11203 35.1692 9.04536 35.0279 8.96003 34.8999L8.02403 35.7079V34.8439L8.49603 34.4359C8.30936 34.2972 8.10136 34.1932 7.87203 34.1239C7.63736 34.0545 7.40003 34.0199 7.16003 34.0199C6.88803 34.0199 6.62936 34.0625 6.38403 34.1479C6.13336 34.2332 5.91203 34.3559 5.72003 34.5159C5.52803 34.6705 5.37603 34.8599 5.26403 35.0839C5.1467 35.3025 5.08803 35.5479 5.08803 35.8199C5.08803 36.1079 5.14936 36.3639 5.27203 36.5879C5.38936 36.8119 5.5467 37.0012 5.74403 37.1559C5.93603 37.3105 6.15736 37.4305 6.40803 37.5159C6.65336 37.5959 6.90403 37.6359 7.16003 37.6359C7.4267 37.6359 7.68536 37.5932 7.93603 37.5079C8.1867 37.4225 8.40803 37.3025 8.60003 37.1479C8.79203 36.9879 8.9467 36.7959 9.06403 36.5719C9.17603 36.3479 9.23203 36.0972 9.23203 35.8199Z" fill="white"/>
<path d="M10.08 43.6797C10.08 43.8824 10.048 44.0717 9.98402 44.2477C9.91469 44.4184 9.82135 44.5677 9.70402 44.6957C9.58669 44.8184 9.44802 44.917 9.28802 44.9917C9.12802 45.061 8.95468 45.0957 8.76802 45.0957C8.57068 45.0957 8.39202 45.053 8.23202 44.9677C8.07202 44.8824 7.93335 44.7624 7.81602 44.6077C7.69869 44.4477 7.60802 44.261 7.54402 44.0477C7.48002 43.829 7.44802 43.589 7.44802 43.3277C7.44802 43.1304 7.46668 42.9357 7.50402 42.7437C7.53602 42.5517 7.58135 42.3784 7.64002 42.2237H7.35202C7.04269 42.2237 6.80269 42.3117 6.63202 42.4877C6.45602 42.6637 6.36802 42.917 6.36802 43.2477C6.36802 43.4717 6.41069 43.693 6.49602 43.9117C6.57602 44.125 6.69335 44.3464 6.84802 44.5757L6.28802 44.8477C5.92535 44.309 5.74402 43.749 5.74402 43.1677C5.74402 42.5917 5.89069 42.1437 6.18402 41.8237C6.47735 41.5037 6.89869 41.3437 7.44802 41.3437H8.96002C9.14669 41.3437 9.24269 41.2664 9.24802 41.1117H10C10.016 41.197 10.0267 41.2717 10.032 41.3357C10.0374 41.3944 10.04 41.453 10.04 41.5117C10.04 41.6824 9.99735 41.8157 9.91202 41.9117C9.82669 42.0024 9.71735 42.0584 9.58402 42.0797L9.32002 42.1037C9.56535 42.2904 9.75469 42.5224 9.88802 42.7997C10.016 43.0717 10.08 43.365 10.08 43.6797ZM9.43202 43.4397C9.43202 43.2264 9.39469 43.0264 9.32002 42.8397C9.24002 42.6477 9.13069 42.4984 8.99202 42.3917C8.89602 42.2797 8.79468 42.2237 8.68802 42.2237H8.13602C8.07735 42.373 8.03202 42.533 8.00002 42.7037C7.96802 42.869 7.95202 43.0317 7.95202 43.1917C7.95202 43.5064 8.02135 43.765 8.16002 43.9677C8.29335 44.165 8.47202 44.2637 8.69602 44.2637C8.90402 44.2637 9.08002 44.1864 9.22402 44.0317C9.36269 43.877 9.43202 43.6797 9.43202 43.4397Z" fill="white"/>
<path d="M10 48.2394L8.07203 49.5754L8.72803 50.2714H10V51.1514H4.16003V50.2714H7.86403L5.82403 48.3514V47.3914L7.57603 49.0154L10 47.3034V48.2394Z" fill="white"/>
<path d="M10.08 53.5999C10.08 53.9359 10.0267 54.2719 9.92002 54.6079C9.80802 54.9385 9.65069 55.2239 9.44802 55.4639L8.88802 55.1119C9.06935 54.8612 9.20802 54.6132 9.30402 54.3679C9.39469 54.1225 9.44002 53.8719 9.44002 53.6159C9.44002 53.3545 9.38935 53.1492 9.28802 52.9999C9.18669 52.8452 9.04269 52.7679 8.85602 52.7679C8.68002 52.7679 8.55202 52.8532 8.47202 53.0239C8.39202 53.1945 8.30402 53.4612 8.20802 53.8239C8.13869 54.0852 8.07202 54.3092 8.00802 54.4959C7.94402 54.6825 7.86935 54.8345 7.78402 54.9519C7.69869 55.0692 7.60002 55.1545 7.48802 55.2079C7.37602 55.2612 7.24002 55.2879 7.08002 55.2879C6.86669 55.2879 6.67735 55.2479 6.51202 55.1679C6.34669 55.0825 6.20802 54.9679 6.09602 54.8239C5.97868 54.6745 5.89068 54.5012 5.83202 54.3039C5.77335 54.1065 5.74402 53.8932 5.74402 53.6639C5.74402 53.3492 5.79202 53.0559 5.88802 52.7839C5.98402 52.5119 6.12269 52.2692 6.30402 52.0559L6.83202 52.4319C6.52269 52.8212 6.36802 53.2345 6.36802 53.6719C6.36802 53.8959 6.41602 54.0852 6.51202 54.2399C6.60269 54.3892 6.74935 54.4639 6.95202 54.4639C7.03735 54.4639 7.10935 54.4479 7.16802 54.4159C7.22669 54.3839 7.27735 54.3332 7.32002 54.2639C7.36268 54.1892 7.40268 54.0959 7.44002 53.9839C7.47202 53.8665 7.50935 53.7225 7.55202 53.5519C7.62135 53.2692 7.69069 53.0265 7.76002 52.8239C7.82935 52.6159 7.91202 52.4452 8.00802 52.3119C8.09869 52.1785 8.20802 52.0799 8.33602 52.0159C8.45869 51.9519 8.60802 51.9199 8.78402 51.9199C9.18402 51.9199 9.50135 52.0719 9.73602 52.3759C9.96535 52.6745 10.08 53.0825 10.08 53.5999Z" fill="white"/>
<path d="M4.32007 58.6874V57.9034L10.0001 55.6634V56.6074L8.45607 57.2074V59.3994L10.0001 59.9914V60.9434L4.32007 58.6874ZM7.79207 57.3834L5.35207 58.2954L7.79207 59.2394V57.3834Z" fill="white"/>
</svg>
