<svg width="26" height="30" viewBox="0 0 26 30" fill="none" xmlns="http://www.w3.org/2000/svg">
<path d="M24.8569 20.9057C24.1097 19.9069 23.0826 19.1924 21.8864 18.8394L16.7866 17.2493C16.6943 17.2205 16.5995 17.2079 16.5056 17.21C16.318 17.0115 16.1911 16.7117 16.1911 16.4425V15.2915C16.4123 15.1445 16.6274 14.981 16.8364 14.8011C17.8401 13.9368 18.47 12.6868 18.6004 11.3243C19.3333 11.3036 19.9231 10.7009 19.9231 9.96307V8.91887C19.9231 8.51306 19.7435 8.13544 19.441 7.87975V6.52888C19.441 6.29719 19.2533 6.10944 19.0216 6.10944C18.7899 6.10944 18.6021 6.29719 18.6021 6.52888L18.6021 7.42977C18.567 7.41788 18.5317 7.40683 18.4966 7.39516C18.4433 7.37746 18.39 7.35993 18.3367 7.34274C18.2671 7.32035 18.1974 7.29852 18.1277 7.27703C18.0753 7.26084 18.0229 7.24454 17.9703 7.22885C17.8984 7.20735 17.8264 7.18664 17.7544 7.16604C17.7041 7.15169 17.6539 7.13701 17.6036 7.12311C17.526 7.10167 17.4483 7.08124 17.3706 7.06086C17.3259 7.04914 17.2811 7.03691 17.2364 7.02552C17.1373 7.00034 17.0382 6.97651 16.9391 6.95311C16.9156 6.94759 16.8921 6.9415 16.8686 6.93609C16.7462 6.90773 16.6236 6.88082 16.5009 6.85514C16.4638 6.84738 16.4265 6.8404 16.3893 6.83286C16.3034 6.8155 16.2176 6.79819 16.1316 6.78211C16.0841 6.77324 16.0365 6.76514 15.9889 6.75666C15.9131 6.74314 15.8374 6.72969 15.7615 6.71719C15.7103 6.70876 15.6591 6.70099 15.6079 6.69301C15.5353 6.68173 15.4629 6.67062 15.3903 6.6603C15.3377 6.65282 15.2851 6.64578 15.2325 6.63875C15.161 6.62926 15.0896 6.62004 15.0181 6.61145C14.965 6.60503 14.9119 6.59894 14.8587 6.59302C14.7874 6.5851 14.7161 6.57773 14.6447 6.57075C14.5918 6.56556 14.539 6.56048 14.4862 6.55579C14.4137 6.54937 14.3412 6.54367 14.2688 6.53815C14.2172 6.53424 14.1657 6.53022 14.1141 6.52681C14.0387 6.52179 13.9633 6.51771 13.888 6.51375C13.8395 6.51118 13.7909 6.50828 13.7424 6.5061C13.6594 6.50241 13.5763 6.4999 13.4933 6.49745C13.4525 6.49622 13.4118 6.49449 13.371 6.49359C13.2473 6.49086 13.1236 6.4893 12.9999 6.4893C12.8762 6.4893 12.7525 6.49086 12.6288 6.49359C12.588 6.49449 12.5471 6.49627 12.5062 6.49745C12.4233 6.4999 12.3404 6.50241 12.2575 6.5061C12.2088 6.50828 12.16 6.51118 12.1114 6.51375C12.0362 6.51771 11.961 6.52179 11.8858 6.52681C11.8342 6.53027 11.7825 6.53429 11.7309 6.5382C11.6585 6.54367 11.5861 6.54937 11.5138 6.55579C11.4608 6.56048 11.4078 6.56561 11.3548 6.5708C11.2837 6.57778 11.2125 6.58515 11.1413 6.59302C11.088 6.59894 11.0346 6.60508 10.9813 6.6115C10.9102 6.62004 10.839 6.6292 10.7679 6.63864C10.715 6.64567 10.6621 6.65276 10.6092 6.6603C10.537 6.67062 10.4647 6.68168 10.3925 6.6929C10.3411 6.70088 10.2896 6.7087 10.2381 6.71719C10.1627 6.72963 10.0874 6.74298 10.0121 6.75643C9.96399 6.76503 9.91593 6.77318 9.86792 6.78217C9.78272 6.79808 9.69764 6.81522 9.61256 6.83247C9.57465 6.84017 9.53669 6.84726 9.49878 6.85519C9.37629 6.88082 9.25392 6.90773 9.1316 6.93603C9.1067 6.94178 9.0818 6.9482 9.0569 6.95412C8.9592 6.97718 8.86156 7.00068 8.76397 7.02547C8.71819 7.03708 8.67247 7.04958 8.62669 7.06159C8.5501 7.08169 8.4735 7.10178 8.39696 7.12294C8.34571 7.13712 8.29452 7.15203 8.24332 7.16671C8.17237 7.18703 8.10146 7.20735 8.03056 7.22857C7.97702 7.24459 7.92354 7.26117 7.87006 7.2777C7.80156 7.29886 7.73311 7.32029 7.66478 7.34229C7.61024 7.35988 7.55575 7.3778 7.50131 7.39588C7.46681 7.40733 7.43225 7.41816 7.39781 7.42983V4.5663C7.39781 3.56911 8.07528 2.71137 9.04535 2.48046L12.1075 1.75157C12.6191 1.62981 13.1605 1.62752 13.6731 1.74515L16.9372 2.49375C17.9175 2.71857 18.6021 3.57793 18.6021 4.5835C18.6021 4.81518 18.7898 5.00293 19.0215 5.00293C19.2532 5.00293 19.4409 4.81518 19.4409 4.5835C19.4409 3.18434 18.4885 1.98879 17.1248 1.67598L13.8606 0.927442C13.2229 0.781284 12.5494 0.78402 11.9131 0.935537L8.85107 1.66443C7.50143 1.98566 6.55883 3.17898 6.55883 4.56636L6.55894 7.87975C6.25641 8.13544 6.0767 8.51306 6.0767 8.91893V9.96313C6.0767 10.701 6.66652 11.3036 7.39943 11.3244C7.52973 12.6869 8.15969 13.9369 9.16348 14.8012C9.37239 14.9811 9.58755 15.1445 9.80874 15.2916V16.4426C9.80874 16.7118 9.68184 17.0116 9.49426 17.2101C9.40041 17.2079 9.30556 17.2206 9.21333 17.2494L4.11351 18.8395C2.91729 19.1925 1.89022 19.9069 1.14302 20.9058C0.395262 21.9055 0 23.0938 0 24.3423V24.655C0 24.8867 0.187749 25.0745 0.419435 25.0745C0.651121 25.0745 0.83887 24.8867 0.83887 24.655V24.3423C0.83887 23.2764 1.17635 22.2618 1.8148 21.4083C2.4533 20.5547 3.33119 19.9444 4.35368 19.6434C4.3558 19.6428 4.35793 19.6422 4.36005 19.6415L7.07602 18.7947L9.34497 21.3841C9.67146 21.7567 10.1336 21.9593 10.6097 21.9593C10.7918 21.9593 10.976 21.9297 11.1554 21.8685L11.6681 21.6939L12.3906 23.2194C12.1687 23.304 11.9636 23.4346 11.7868 23.608C11.4438 23.9446 11.2471 24.4116 11.2471 24.8892V27.4506C11.2471 27.7875 11.5212 28.0615 11.8581 28.0615H12.909C13.2458 28.0615 13.5199 27.7875 13.5199 27.4506V26.5324C14.2354 26.3088 14.7526 25.6364 14.7526 24.8591C14.7526 24.1131 14.2752 23.4677 13.6101 23.2174L14.3316 21.6937L14.8444 21.8684C15.0238 21.9296 15.208 21.9592 15.3901 21.9592C15.8662 21.9592 16.3283 21.7565 16.6548 21.384L18.9238 18.7945L21.6397 19.6414C21.6419 19.6421 21.644 19.6427 21.6461 19.6433C22.6686 19.9443 23.5465 20.5546 24.185 21.4082C24.8234 22.2617 25.1609 23.2762 25.1609 24.3422V27.932C25.1609 28.2809 24.877 28.5648 24.528 28.5648H22.4237V24.5483C22.4237 24.3166 22.236 24.1289 22.0043 24.1289C21.7726 24.1289 21.5849 24.3166 21.5849 24.5483V28.5648H4.41493V24.5483C4.41493 24.3166 4.22718 24.1289 3.99549 24.1289C3.7638 24.1289 3.57606 24.3166 3.57606 24.5483V28.5648H1.47173C1.12281 28.5648 0.83887 28.2809 0.83887 27.9319V26.6065C0.83887 26.3749 0.651121 26.1871 0.419435 26.1871C0.187749 26.1871 0 26.3749 0 26.6065V27.9319C0 28.7435 0.660221 29.4037 1.47179 29.4037H24.5282C25.3398 29.4037 26 28.7435 26 27.9319V24.3421C25.9999 23.0937 25.6046 21.9054 24.8569 20.9057ZM7.84036 8.16681C7.8748 8.15553 7.90936 8.14504 7.94386 8.13399C8.02693 8.10736 8.11001 8.08084 8.19319 8.05555C8.23735 8.04209 8.28168 8.02948 8.32589 8.01641C8.3997 7.99458 8.4735 7.97275 8.54742 7.95199C8.5956 7.93842 8.64383 7.92564 8.69207 7.91257C8.76213 7.89353 8.83214 7.8745 8.90226 7.85641C8.95278 7.84335 9.00342 7.83095 9.054 7.81839C9.122 7.80147 9.18994 7.78467 9.25799 7.76865C9.30997 7.75642 9.362 7.7447 9.41403 7.73297C9.48075 7.7179 9.54752 7.70305 9.61429 7.68881C9.66721 7.67754 9.72019 7.66671 9.77317 7.65599C9.83933 7.64259 9.90543 7.62947 9.97159 7.61691C10.025 7.60675 10.0784 7.59692 10.1318 7.58732C10.1977 7.57543 10.2636 7.56398 10.3296 7.55293C10.3832 7.54394 10.4367 7.53518 10.4903 7.52669C10.5563 7.51631 10.6224 7.50642 10.6884 7.49682C10.7418 7.48906 10.7953 7.48141 10.8488 7.47416C10.9154 7.46517 10.9819 7.45685 11.0485 7.4487C11.1014 7.44222 11.1544 7.43563 11.2073 7.42972C11.2748 7.42212 11.3423 7.41537 11.4098 7.40861C11.4618 7.40342 11.5138 7.39801 11.5659 7.39332C11.6351 7.38706 11.7043 7.38182 11.7735 7.37646C11.8238 7.3726 11.8742 7.36836 11.9245 7.36496C11.997 7.36004 12.0694 7.35625 12.1418 7.35234C12.1889 7.34983 12.236 7.34676 12.283 7.34463C12.363 7.34101 12.4431 7.33866 12.5232 7.33626C12.5627 7.33509 12.6021 7.3333 12.6416 7.33241C12.761 7.32973 12.8805 7.32822 12.9999 7.32822C13.0001 7.32822 13.0004 7.32822 13.0007 7.32822C13.1198 7.32822 13.239 7.32967 13.3582 7.33235C13.398 7.33325 13.4377 7.33503 13.4774 7.33626C13.5571 7.33866 13.6367 7.34101 13.7164 7.34458C13.7643 7.34676 13.812 7.34983 13.8599 7.35239C13.9316 7.35625 14.0033 7.36004 14.0749 7.36484C14.126 7.36831 14.177 7.37255 14.228 7.37651C14.2965 7.38176 14.3649 7.38701 14.4333 7.39315C14.4861 7.39789 14.5389 7.40337 14.5917 7.40867C14.6584 7.41531 14.7251 7.42201 14.7918 7.42955C14.8455 7.43558 14.8991 7.44222 14.9528 7.44881C15.0186 7.45685 15.0844 7.46506 15.1501 7.47393C15.2043 7.48125 15.2587 7.48906 15.3129 7.49693C15.3781 7.50637 15.4433 7.51614 15.5084 7.52641C15.5629 7.53495 15.6172 7.54388 15.6716 7.55298C15.7367 7.56387 15.8017 7.5752 15.8667 7.58693C15.9211 7.5967 15.9754 7.60675 16.0298 7.61707C16.0948 7.62947 16.1599 7.64236 16.225 7.65554C16.279 7.66648 16.333 7.67754 16.3869 7.68898C16.4525 7.70299 16.5182 7.71757 16.5838 7.73236C16.637 7.74436 16.6901 7.75631 16.7433 7.76882C16.8098 7.7845 16.8763 7.80092 16.9428 7.81744C16.9948 7.83039 17.047 7.84318 17.099 7.85663C17.1672 7.87427 17.2353 7.89275 17.3034 7.91123C17.3535 7.92485 17.4037 7.9382 17.4539 7.95227C17.5252 7.97231 17.5965 7.99341 17.6677 8.01446C17.7145 8.02825 17.7613 8.04165 17.808 8.05583C17.8868 8.07978 17.9654 8.10495 18.044 8.13008C18.083 8.14258 18.1221 8.15447 18.1611 8.1672C18.2703 8.20293 18.3793 8.23995 18.4881 8.27791C18.4965 8.28081 18.5049 8.28355 18.5134 8.28645C18.5144 8.28684 18.5155 8.28723 18.5165 8.28762L18.4088 8.68824C18.369 8.83608 18.2734 8.95834 18.1394 9.03237C18.0071 9.10545 17.8553 9.12136 17.7116 9.07731C17.5162 9.01729 17.3206 8.96102 17.1249 8.90849C14.1891 8.1207 11.2196 8.17692 8.28843 9.07731C8.14484 9.12136 7.99288 9.10545 7.86073 9.03237C7.82724 9.01383 7.79614 8.99234 7.76772 8.96817C7.68242 8.89565 7.62112 8.79912 7.59125 8.68824L7.53861 8.49246L7.48356 8.28762C7.60225 8.24609 7.72122 8.20578 7.84036 8.16681ZM9.71087 14.1654C8.78725 13.3701 8.24176 12.1786 8.21424 10.8964C8.20938 10.6683 8.02303 10.486 7.79486 10.486H7.43845C7.1501 10.486 6.91562 10.2514 6.91562 9.96313V9.23547C6.91691 9.2377 6.91842 9.23988 6.9197 9.24211C6.93237 9.26416 6.94566 9.28577 6.95951 9.30704C6.96419 9.31419 6.96894 9.32128 6.97374 9.32837C6.98597 9.34646 6.99864 9.36421 7.0117 9.38163C7.016 9.38738 7.02013 9.39324 7.02454 9.39893C7.04168 9.42104 7.05938 9.4427 7.07786 9.46375C7.0821 9.46861 7.08657 9.47324 7.09087 9.47804C7.10577 9.49462 7.12107 9.51081 7.13687 9.52667C7.14307 9.53292 7.14932 9.53912 7.15568 9.54526C7.17254 9.56162 7.18979 9.57753 7.20749 9.59299C7.2114 9.5964 7.21514 9.60003 7.2191 9.60338C7.24065 9.6218 7.26287 9.6395 7.2856 9.65669C7.29168 9.66127 7.29788 9.66562 7.30402 9.67015C7.322 9.68327 7.34025 9.69599 7.35895 9.70828C7.36571 9.71274 7.37246 9.71726 7.37933 9.72162C7.40395 9.73725 7.42896 9.75249 7.4547 9.76673C7.45587 9.76734 7.45704 9.7679 7.45822 9.76851C7.48088 9.78096 7.50377 9.79263 7.52688 9.80374C7.53492 9.80759 7.54302 9.81117 7.55111 9.81485C7.56786 9.82256 7.58472 9.82993 7.60169 9.8369C7.61063 9.84059 7.61956 9.84416 7.62855 9.84768C7.64585 9.85438 7.66333 9.86069 7.6808 9.86666C7.68878 9.8694 7.69671 9.8723 7.70475 9.87487C7.72987 9.88296 7.75511 9.8905 7.78051 9.89709C7.78358 9.89787 7.78671 9.89848 7.78978 9.89926C7.81239 9.90501 7.83511 9.91009 7.85794 9.91467C7.86665 9.9164 7.87536 9.91785 7.88413 9.91942C7.90177 9.9226 7.91941 9.92545 7.93711 9.9279C7.94654 9.92924 7.95603 9.93047 7.96547 9.93159C7.98372 9.93377 8.00203 9.93544 8.02035 9.93684C8.02855 9.93745 8.03676 9.93829 8.04497 9.93879C8.07093 9.9403 8.09689 9.94125 8.12296 9.94125C8.12374 9.94125 8.12452 9.9413 8.1253 9.9413C8.12804 9.9413 8.13072 9.94102 8.13345 9.94097C8.16075 9.9408 8.18805 9.93968 8.21541 9.9379C8.22334 9.93739 8.23121 9.93684 8.23914 9.93617C8.26928 9.93365 8.29949 9.93047 8.32958 9.92595C8.33164 9.92561 8.33371 9.92517 8.33577 9.92489C8.36397 9.92053 8.3921 9.91506 8.42019 9.90892C8.42856 9.90708 8.43693 9.90518 8.44531 9.90323C8.47378 9.89647 8.5022 9.88905 8.5305 9.88045C8.5319 9.88006 8.53329 9.87978 8.53469 9.87933C9.27541 9.65178 10.0188 9.48111 10.7635 9.36734C12.532 9.09718 14.3079 9.14782 16.0735 9.5193C16.5382 9.61705 17.0021 9.73703 17.4651 9.87922C17.8281 9.99093 18.2118 9.95085 18.5451 9.76662C18.5707 9.75244 18.5955 9.73736 18.6201 9.72179C18.6273 9.71721 18.6343 9.71246 18.6414 9.70777C18.6597 9.69566 18.6778 9.68315 18.6954 9.67026C18.7017 9.66562 18.7082 9.66116 18.7143 9.65647C18.737 9.63933 18.7592 9.62163 18.7807 9.60326C18.7846 9.59991 18.7883 9.5964 18.7922 9.59299C18.81 9.57742 18.8273 9.56139 18.8443 9.54498C18.8505 9.53895 18.8567 9.53287 18.8627 9.52672C18.8787 9.51065 18.8943 9.49418 18.9094 9.47737C18.9135 9.47285 18.9177 9.46844 18.9217 9.46386C18.9403 9.4427 18.9581 9.42099 18.9753 9.39871C18.9796 9.39313 18.9837 9.38743 18.9878 9.38179C19.001 9.36426 19.0137 9.3464 19.026 9.32826C19.0308 9.32117 19.0355 9.31413 19.0402 9.30693C19.0539 9.28583 19.0671 9.26444 19.0797 9.24262C19.0811 9.24016 19.0827 9.23787 19.0841 9.23541V9.96307C19.0841 10.2514 18.8496 10.4859 18.5613 10.4859H18.2049C17.9767 10.4859 17.7904 10.6683 17.7855 10.8963C17.758 12.1785 17.2125 13.3701 16.2888 14.1653C16.0541 14.3674 15.8102 14.5452 15.558 14.6991C15.5566 14.7 15.555 14.7005 15.5537 14.7014C15.5147 14.725 15.4755 14.7476 15.4362 14.7701C15.4239 14.7772 15.4116 14.7845 15.3993 14.7914C15.3579 14.8147 15.3162 14.8372 15.2742 14.8592C15.263 14.8651 15.2516 14.871 15.2403 14.8768C15.0492 14.9754 14.8536 15.061 14.6536 15.1333C14.6486 15.1351 14.6436 15.1369 14.6386 15.1387C14.4881 15.1925 14.335 15.239 14.1798 15.2779C14.1754 15.279 14.171 15.2802 14.1666 15.2813C14.1222 15.2923 14.0775 15.3024 14.0327 15.3122C14.014 15.3162 13.9953 15.3202 13.9766 15.3241C13.9355 15.3325 13.8943 15.3408 13.853 15.3482C13.8273 15.3528 13.8014 15.3568 13.7755 15.361C13.7187 15.3703 13.6616 15.3786 13.6043 15.386C13.5652 15.3911 13.5262 15.396 13.4869 15.4001C13.4587 15.4031 13.4303 15.4055 13.4019 15.408C13.3597 15.4117 13.3174 15.415 13.2749 15.4177C13.2504 15.4192 13.2258 15.4209 13.2012 15.4221C13.1379 15.4253 13.0744 15.4276 13.0104 15.4285C13.0068 15.4285 13.0033 15.4287 12.9997 15.4287C12.9961 15.4287 12.9925 15.4285 12.989 15.4285C12.9251 15.4276 12.8615 15.4253 12.7982 15.4221C12.7735 15.4209 12.749 15.4192 12.7245 15.4177C12.682 15.415 12.6397 15.4117 12.5975 15.408C12.5691 15.4055 12.5407 15.4031 12.5125 15.4001C12.4732 15.396 12.4342 15.391 12.3951 15.386C12.3378 15.3787 12.2807 15.3703 12.2239 15.361C12.1981 15.3568 12.1722 15.3528 12.1464 15.3482C12.1051 15.3407 12.0639 15.3325 12.0228 15.3241C12.0041 15.3202 11.9853 15.3162 11.9667 15.3122C11.9219 15.3024 11.8772 15.2923 11.8328 15.2813C11.8284 15.2802 11.824 15.279 11.8196 15.2779C11.6643 15.2389 11.5113 15.1925 11.3608 15.1387C11.3557 15.1369 11.3508 15.1351 11.3458 15.1333C11.1458 15.061 10.9502 14.9754 10.7591 14.8768C10.7478 14.871 10.7364 14.8652 10.7252 14.8592C10.6833 14.8372 10.6416 14.8147 10.6001 14.7914C10.5878 14.7845 10.5755 14.7772 10.5632 14.7701C10.5239 14.7476 10.4846 14.725 10.4457 14.7014C10.4443 14.7005 10.4428 14.7 10.4414 14.6991C10.1894 14.5453 9.94557 14.3675 9.71087 14.1654ZM10.8849 21.0742C10.5593 21.1852 10.2025 21.0897 9.97594 20.8311L7.95212 18.5214L9.46311 18.0502C9.46495 18.0497 9.46685 18.0503 9.46875 18.05C9.47349 18.0493 9.47824 18.0485 9.48281 18.0495C9.48354 18.0498 9.48427 18.0502 9.48499 18.0505C9.48912 18.0516 9.49275 18.054 9.49632 18.0566C9.49789 18.0576 9.49979 18.0578 9.50118 18.0592L9.50113 18.0591L12.2074 20.6238L10.8849 21.0742ZM13.9137 24.859C13.9137 25.3344 13.5428 25.7344 13.0693 25.7697C12.8504 25.7861 12.681 25.9685 12.681 26.1881V27.2224H12.0861V24.889C12.0861 24.6351 12.1911 24.3864 12.3744 24.2066C12.5507 24.0337 12.7803 23.9403 13.0177 23.9453C13.5118 23.9547 13.9137 24.3646 13.9137 24.859ZM12.4674 21.4214L12.9999 21.24L13.5324 21.4214L12.9999 22.5458L12.4674 21.4214ZM12.9999 20.2189L10.2491 17.6121C10.497 17.2765 10.6477 16.851 10.6477 16.4425V15.7559C11.0133 15.9214 11.3929 16.0468 11.7853 16.1321C11.7866 16.1323 11.7879 16.1326 11.7892 16.1329C11.8723 16.1509 11.956 16.1671 12.0404 16.1815C12.0696 16.1865 12.0989 16.1913 12.1283 16.1959C12.1698 16.2023 12.2112 16.2087 12.253 16.2142C12.3095 16.2218 12.3663 16.2284 12.4233 16.2344C12.4487 16.2371 12.4742 16.2397 12.4998 16.242C12.5698 16.2485 12.64 16.2538 12.7107 16.2579C12.7265 16.2588 12.7424 16.2594 12.7582 16.2602C12.8369 16.2641 12.9158 16.2669 12.9953 16.2678H12.9954C12.997 16.2678 12.9985 16.2678 13 16.2678C13.0016 16.2678 13.0031 16.2678 13.0047 16.2678H13.0047C13.0842 16.2669 13.1632 16.2641 13.2419 16.2602C13.2577 16.2594 13.2735 16.2588 13.2893 16.2579C13.36 16.2539 13.4303 16.2485 13.5003 16.242C13.5259 16.2397 13.5513 16.2371 13.5768 16.2344C13.6338 16.2285 13.6906 16.2218 13.7471 16.2142C13.7888 16.2086 13.8303 16.2023 13.8718 16.1959C13.9011 16.1913 13.9304 16.1865 13.9596 16.1815C14.0439 16.1671 14.1276 16.1509 14.2108 16.1329C14.2121 16.1326 14.2134 16.1323 14.2147 16.1321C14.6071 16.0468 14.9867 15.9214 15.3523 15.7559V16.4425C15.3523 16.851 15.503 17.2765 15.7509 17.6121L12.9999 20.2189ZM16.0239 20.831C15.7973 21.0897 15.4408 21.1852 15.115 21.0742L13.7924 20.6237L16.0335 18.4998L16.4986 18.0591C16.4993 18.0585 16.5002 18.0584 16.5009 18.0579C16.5049 18.0546 16.5094 18.0522 16.5142 18.0507C16.5152 18.0504 16.5161 18.0498 16.5171 18.0495C16.5236 18.0481 16.5304 18.0482 16.5369 18.0502L18.0478 18.5213L16.0239 20.831Z" fill="white"/>
</svg>
