<svg width="27" height="27" viewBox="0 0 27 27" fill="none" xmlns="http://www.w3.org/2000/svg">
<path d="M26.1112 13.683C26.1112 6.50083 20.3235 0.682129 13.1904 0.682129C6.05241 0.682129 0.269531 6.50083 0.269531 13.683C0.269531 20.1704 4.9929 25.5495 11.1715 26.5238V17.4419H7.89039V13.6838H11.1715V10.8179C11.1715 7.5604 13.0975 5.7614 16.0499 5.7614C17.4639 5.7614 18.9442 6.01492 18.9442 6.01492V9.21394H17.3121C15.7099 9.21394 15.2092 10.2174 15.2092 11.2453V13.683H18.7923L18.2166 17.441H15.2092V26.523C21.383 25.5487 26.1112 20.1696 26.1112 13.6822V13.683Z" fill="#193FF6"/>
</svg>
