<svg width="303" height="38" viewBox="0 0 303 38" fill="none" xmlns="http://www.w3.org/2000/svg">
<g clip-path="url(#clip0_48_923)">
<path fill-rule="evenodd" clip-rule="evenodd" d="M28.5 38H9.5C6.98048 37.9999 4.56418 36.999 2.78261 35.2174C1.00104 33.4358 0.000110222 31.0195 0 28.5L0 9.5C0.000110222 6.98048 1.00104 4.56418 2.78261 2.78261C4.56418 1.00104 6.98048 0.000110222 9.5 0L28.5 0C31.0196 0 33.4359 1.00089 35.2175 2.78249C36.9991 4.56408 38 6.98044 38 9.5V28.5C38 31.0196 36.9991 33.4359 35.2175 35.2175C33.4359 36.9991 31.0196 38 28.5 38Z" fill="#1BADC4"/>
<path fill-rule="evenodd" clip-rule="evenodd" d="M17.8125 10.6875H28.5C29.8699 10.6874 31.1875 10.1612 32.1807 9.21762C33.1738 8.274 33.7667 6.98503 33.8368 5.61688C33.9069 4.24873 33.4489 2.90591 32.5574 1.86572C31.6659 0.825532 30.409 0.167427 29.0462 0.0273125C28.8646 0.0172187 28.6847 0 28.5 0H9.5C6.98048 0.000110222 4.56418 1.00104 2.78261 2.78261C1.00104 4.56418 0.000110222 6.98048 0 9.5L0 28.5C0.000110226 23.7759 1.87681 19.2452 5.21728 15.9048C8.55775 12.5643 13.0884 10.6876 17.8125 10.6875Z" fill="#0B8CA0"/>
<path fill-rule="evenodd" clip-rule="evenodd" d="M28.5 19C26.6211 19 24.7844 19.5572 23.2221 20.601C21.6598 21.6449 20.4422 23.1286 19.7231 24.8645C19.0041 26.6004 18.816 28.5105 19.1825 30.3534C19.5491 32.1962 20.4539 33.8889 21.7825 35.2175C23.1111 36.5461 24.8038 37.4509 26.6466 37.8175C28.4895 38.184 30.3996 37.9959 32.1355 37.2769C33.8714 36.5578 35.3551 35.3402 36.399 33.7779C37.4428 32.2156 38 30.3789 38 28.5V9.5C38 12.0196 36.9991 14.4359 35.2175 16.2175C33.4359 17.9991 31.0196 19 28.5 19Z" fill="#0B8CA0"/>
<path fill-rule="evenodd" clip-rule="evenodd" d="M14.8723 10.6139C14.6924 10.5031 14.4861 10.4423 14.2749 10.4378C14.0637 10.4333 13.8551 10.4852 13.6706 10.5883C13.4862 10.6914 13.3326 10.8418 13.2257 11.024C13.1188 11.2063 13.0624 11.4137 13.0625 11.625V26.375C13.0624 26.5863 13.1188 26.7937 13.2257 26.976C13.3326 27.1582 13.4862 27.3086 13.6706 27.4117C13.8551 27.5148 14.0637 27.5667 14.2749 27.5622C14.4861 27.5577 14.6924 27.4969 14.8723 27.3861C17.8998 25.5235 23.9442 21.8037 26.8565 20.0112C27.0292 19.9049 27.1719 19.7562 27.2709 19.5792C27.3698 19.4022 27.4218 19.2028 27.4218 19C27.4218 18.7972 27.3698 18.5978 27.2709 18.4208C27.1719 18.2438 27.0292 18.0951 26.8565 17.9888C23.9442 16.1963 17.8998 12.4765 14.8723 10.6139Z" fill="white"/>
</g>
<path d="M48.628 27V11.38H51.664V27H48.628ZM65.3509 27H62.4029V20.532C62.4029 19.608 62.2416 18.9333 61.9189 18.508C61.5963 18.0827 61.1489 17.87 60.5769 17.87C60.2836 17.87 59.9829 17.9287 59.6749 18.046C59.3669 18.1633 59.0736 18.332 58.7949 18.552C58.5309 18.7573 58.2889 19.0067 58.0689 19.3C57.8489 19.5933 57.6876 19.916 57.5849 20.268V27H54.6369V15.472H57.2989V17.606C57.7243 16.8727 58.3403 16.3007 59.1469 15.89C59.9536 15.4793 60.8629 15.274 61.8749 15.274C62.5936 15.274 63.1803 15.406 63.6349 15.67C64.0896 15.934 64.4416 16.2787 64.6909 16.704C64.9403 17.1293 65.1089 17.6133 65.1969 18.156C65.2996 18.6987 65.3509 19.2487 65.3509 19.806V27ZM72.2703 27.22C71.3023 27.22 70.3563 27.066 69.4323 26.758C68.5083 26.45 67.7163 26.01 67.0563 25.438L68.1563 23.59C68.8603 24.0887 69.5423 24.47 70.2023 24.734C70.8769 24.9833 71.5443 25.108 72.2043 25.108C72.7909 25.108 73.2529 24.998 73.5903 24.778C73.9276 24.558 74.0963 24.2427 74.0963 23.832C74.0963 23.4213 73.8983 23.1207 73.5023 22.93C73.1063 22.7393 72.4609 22.5193 71.5663 22.27C70.8183 22.0647 70.1803 21.8667 69.6523 21.676C69.1243 21.4853 68.6989 21.2727 68.3763 21.038C68.0536 20.7887 67.8189 20.51 67.6723 20.202C67.5256 19.8793 67.4523 19.498 67.4523 19.058C67.4523 18.4713 67.5623 17.9433 67.7823 17.474C68.0169 17.0047 68.3396 16.6087 68.7503 16.286C69.1609 15.9487 69.6376 15.692 70.1803 15.516C70.7376 15.34 71.3389 15.252 71.9843 15.252C72.8496 15.252 73.6563 15.3767 74.4043 15.626C75.1669 15.8753 75.8636 16.2787 76.4943 16.836L75.3063 18.618C74.7196 18.178 74.1476 17.8553 73.5903 17.65C73.0476 17.4447 72.5049 17.342 71.9623 17.342C71.4636 17.342 71.0456 17.4447 70.7083 17.65C70.3709 17.8553 70.2023 18.1853 70.2023 18.64C70.2023 18.8453 70.2389 19.014 70.3123 19.146C70.4003 19.278 70.5323 19.3953 70.7083 19.498C70.8843 19.6007 71.1116 19.7033 71.3903 19.806C71.6836 19.894 72.0429 19.9893 72.4683 20.092C73.2603 20.2973 73.9349 20.5027 74.4923 20.708C75.0643 20.9133 75.5263 21.148 75.8783 21.412C76.2449 21.676 76.5089 21.984 76.6703 22.336C76.8463 22.6733 76.9343 23.084 76.9343 23.568C76.9343 24.6973 76.5163 25.592 75.6803 26.252C74.8443 26.8973 73.7076 27.22 72.2703 27.22ZM85.7578 27.22C84.8485 27.22 84.0565 27.022 83.3818 26.626C82.7071 26.2153 82.1791 25.6653 81.7978 24.976V31.686H78.8498V15.472H81.4238V17.452C81.8491 16.7773 82.3991 16.2493 83.0738 15.868C83.7485 15.472 84.5258 15.274 85.4058 15.274C86.1831 15.274 86.9018 15.4353 87.5618 15.758C88.2218 16.066 88.7865 16.4913 89.2558 17.034C89.7398 17.562 90.1138 18.1927 90.3778 18.926C90.6565 19.6447 90.7958 20.4073 90.7958 21.214C90.7958 22.05 90.6711 22.8347 90.4218 23.568C90.1725 24.3013 89.8205 24.9393 89.3658 25.482C88.9258 26.0247 88.3978 26.45 87.7818 26.758C87.1658 27.066 86.4911 27.22 85.7578 27.22ZM84.7678 24.712C85.2078 24.712 85.6111 24.6167 85.9778 24.426C86.3591 24.2353 86.6818 23.9787 86.9458 23.656C87.2098 23.3333 87.4151 22.9593 87.5618 22.534C87.7085 22.1087 87.7818 21.6687 87.7818 21.214C87.7818 20.73 87.7011 20.2827 87.5398 19.872C87.3785 19.4467 87.1511 19.08 86.8578 18.772C86.5791 18.464 86.2418 18.222 85.8458 18.046C85.4645 17.87 85.0465 17.782 84.5918 17.782C84.3131 17.782 84.0271 17.8333 83.7338 17.936C83.4405 18.024 83.1691 18.156 82.9198 18.332C82.6705 18.508 82.4431 18.7133 82.2378 18.948C82.0471 19.1827 81.9005 19.4393 81.7978 19.718V22.424C82.0618 23.084 82.4651 23.634 83.0078 24.074C83.5505 24.4993 84.1371 24.712 84.7678 24.712ZM92.7932 27V15.472H95.7412V27H92.7932ZM92.7932 13.866V10.94H95.7412V13.866H92.7932ZM105.265 18.024C104.37 18.0387 103.571 18.2147 102.867 18.552C102.163 18.8747 101.657 19.366 101.349 20.026V27H98.4006V15.472H101.107V17.936C101.312 17.54 101.554 17.188 101.833 16.88C102.111 16.5573 102.412 16.2787 102.735 16.044C103.057 15.8093 103.38 15.6333 103.703 15.516C104.04 15.384 104.363 15.318 104.671 15.318C104.832 15.318 104.949 15.318 105.023 15.318C105.111 15.318 105.191 15.3253 105.265 15.34V18.024ZM106.908 27V15.472H109.856V27H106.908ZM106.908 13.866V10.94H109.856V13.866H106.908ZM123.23 27H120.282V20.532C120.282 19.608 120.12 18.9333 119.798 18.508C119.475 18.0827 119.028 17.87 118.456 17.87C118.162 17.87 117.862 17.9287 117.554 18.046C117.246 18.1633 116.952 18.332 116.674 18.552C116.41 18.7573 116.168 19.0067 115.948 19.3C115.728 19.5933 115.566 19.916 115.464 20.268V27H112.516V15.472H115.178V17.606C115.603 16.8727 116.219 16.3007 117.026 15.89C117.832 15.4793 118.742 15.274 119.754 15.274C120.472 15.274 121.059 15.406 121.514 15.67C121.968 15.934 122.32 16.2787 122.57 16.704C122.819 17.1293 122.988 17.6133 123.076 18.156C123.178 18.6987 123.23 19.2487 123.23 19.806V27ZM130.303 27.066C129.526 27.066 128.822 26.912 128.191 26.604C127.561 26.296 127.011 25.878 126.541 25.35C126.087 24.8073 125.735 24.184 125.485 23.48C125.236 22.776 125.111 22.028 125.111 21.236C125.111 20.4 125.243 19.6227 125.507 18.904C125.771 18.1853 126.138 17.5547 126.607 17.012C127.077 16.4693 127.641 16.044 128.301 15.736C128.961 15.428 129.687 15.274 130.479 15.274C131.374 15.274 132.159 15.4793 132.833 15.89C133.508 16.286 134.065 16.8213 134.505 17.496V15.472H137.079V26.45C137.079 27.3007 136.918 28.0633 136.595 28.738C136.273 29.4127 135.825 29.9847 135.253 30.454C134.696 30.9233 134.021 31.2827 133.229 31.532C132.452 31.7813 131.601 31.906 130.677 31.906C129.416 31.906 128.353 31.6933 127.487 31.268C126.637 30.8573 125.903 30.2707 125.287 29.508L126.893 27.946C127.333 28.4887 127.883 28.914 128.543 29.222C129.218 29.53 129.929 29.684 130.677 29.684C131.132 29.684 131.565 29.618 131.975 29.486C132.401 29.3687 132.775 29.178 133.097 28.914C133.42 28.65 133.669 28.3127 133.845 27.902C134.036 27.4913 134.131 27.0073 134.131 26.45V24.998C133.75 25.658 133.215 26.1713 132.525 26.538C131.836 26.89 131.095 27.066 130.303 27.066ZM131.293 24.712C131.616 24.712 131.924 24.6607 132.217 24.558C132.511 24.4553 132.782 24.316 133.031 24.14C133.281 23.964 133.501 23.7587 133.691 23.524C133.882 23.2893 134.029 23.04 134.131 22.776V20.026C133.867 19.3513 133.449 18.8087 132.877 18.398C132.32 17.9873 131.733 17.782 131.117 17.782C130.663 17.782 130.252 17.8847 129.885 18.09C129.519 18.2807 129.203 18.5447 128.939 18.882C128.675 19.2047 128.47 19.5787 128.323 20.004C128.191 20.4293 128.125 20.8693 128.125 21.324C128.125 21.7933 128.206 22.2333 128.367 22.644C128.529 23.0547 128.749 23.414 129.027 23.722C129.321 24.03 129.658 24.272 130.039 24.448C130.421 24.624 130.839 24.712 131.293 24.712ZM146.316 11.38L150.166 18.904L154.082 11.38H157.36L151.684 21.544V27H148.67V21.5L143.016 11.38H146.316ZM162.076 27.22C161.137 27.22 160.294 27.0587 159.546 26.736C158.798 26.4133 158.16 25.9807 157.632 25.438C157.119 24.8807 156.723 24.2427 156.444 23.524C156.165 22.8053 156.026 22.05 156.026 21.258C156.026 20.4513 156.165 19.6887 156.444 18.97C156.723 18.2513 157.119 17.6207 157.632 17.078C158.16 16.5207 158.798 16.0807 159.546 15.758C160.294 15.4353 161.137 15.274 162.076 15.274C163.015 15.274 163.851 15.4353 164.584 15.758C165.332 16.0807 165.963 16.5207 166.476 17.078C167.004 17.6207 167.407 18.2513 167.686 18.97C167.965 19.6887 168.104 20.4513 168.104 21.258C168.104 22.05 167.965 22.8053 167.686 23.524C167.407 24.2427 167.011 24.8807 166.498 25.438C165.985 25.9807 165.354 26.4133 164.606 26.736C163.858 27.0587 163.015 27.22 162.076 27.22ZM159.062 21.258C159.062 21.7713 159.135 22.2407 159.282 22.666C159.443 23.0767 159.656 23.436 159.92 23.744C160.199 24.052 160.521 24.294 160.888 24.47C161.255 24.6313 161.651 24.712 162.076 24.712C162.501 24.712 162.897 24.6313 163.264 24.47C163.631 24.294 163.946 24.052 164.21 23.744C164.489 23.436 164.701 23.0693 164.848 22.644C165.009 22.2187 165.09 21.7493 165.09 21.236C165.09 20.7373 165.009 20.2753 164.848 19.85C164.701 19.4247 164.489 19.058 164.21 18.75C163.946 18.442 163.631 18.2073 163.264 18.046C162.897 17.87 162.501 17.782 162.076 17.782C161.651 17.782 161.255 17.87 160.888 18.046C160.521 18.222 160.199 18.464 159.92 18.772C159.656 19.08 159.443 19.4467 159.282 19.872C159.135 20.2973 159.062 20.7593 159.062 21.258ZM173.614 27.22C172.426 27.22 171.524 26.8387 170.908 26.076C170.292 25.3133 169.984 24.184 169.984 22.688V15.472H172.932V22.05C172.932 23.8247 173.57 24.712 174.846 24.712C175.418 24.712 175.968 24.5433 176.496 24.206C177.039 23.854 177.479 23.326 177.816 22.622V15.472H180.764V23.612C180.764 23.92 180.815 24.14 180.918 24.272C181.035 24.404 181.219 24.4773 181.468 24.492V27C181.175 27.0587 180.925 27.0953 180.72 27.11C180.529 27.1247 180.353 27.132 180.192 27.132C179.664 27.132 179.231 27.0147 178.894 26.78C178.571 26.5307 178.381 26.1933 178.322 25.768L178.256 24.844C177.743 25.636 177.083 26.23 176.276 26.626C175.469 27.022 174.582 27.22 173.614 27.22ZM194.408 27H191.46V20.532C191.46 19.608 191.298 18.9333 190.976 18.508C190.653 18.0827 190.206 17.87 189.634 17.87C189.34 17.87 189.04 17.9287 188.732 18.046C188.424 18.1633 188.13 18.332 187.852 18.552C187.588 18.7573 187.346 19.0067 187.126 19.3C186.906 19.5933 186.744 19.916 186.642 20.268V27H183.694V15.472H186.356V17.606C186.781 16.8727 187.397 16.3007 188.204 15.89C189.01 15.4793 189.92 15.274 190.932 15.274C191.65 15.274 192.237 15.406 192.692 15.67C193.146 15.934 193.498 16.2787 193.748 16.704C193.997 17.1293 194.166 17.6133 194.254 18.156C194.356 18.6987 194.408 19.2487 194.408 19.806V27ZM201.481 27.066C200.704 27.066 200 26.912 199.369 26.604C198.738 26.296 198.188 25.878 197.719 25.35C197.264 24.8073 196.912 24.184 196.663 23.48C196.414 22.776 196.289 22.028 196.289 21.236C196.289 20.4 196.421 19.6227 196.685 18.904C196.949 18.1853 197.316 17.5547 197.785 17.012C198.254 16.4693 198.819 16.044 199.479 15.736C200.139 15.428 200.865 15.274 201.657 15.274C202.552 15.274 203.336 15.4793 204.011 15.89C204.686 16.286 205.243 16.8213 205.683 17.496V15.472H208.257V26.45C208.257 27.3007 208.096 28.0633 207.773 28.738C207.45 29.4127 207.003 29.9847 206.431 30.454C205.874 30.9233 205.199 31.2827 204.407 31.532C203.63 31.7813 202.779 31.906 201.855 31.906C200.594 31.906 199.53 31.6933 198.665 31.268C197.814 30.8573 197.081 30.2707 196.465 29.508L198.071 27.946C198.511 28.4887 199.061 28.914 199.721 29.222C200.396 29.53 201.107 29.684 201.855 29.684C202.31 29.684 202.742 29.618 203.153 29.486C203.578 29.3687 203.952 29.178 204.275 28.914C204.598 28.65 204.847 28.3127 205.023 27.902C205.214 27.4913 205.309 27.0073 205.309 26.45V24.998C204.928 25.658 204.392 26.1713 203.703 26.538C203.014 26.89 202.273 27.066 201.481 27.066ZM202.471 24.712C202.794 24.712 203.102 24.6607 203.395 24.558C203.688 24.4553 203.96 24.316 204.209 24.14C204.458 23.964 204.678 23.7587 204.869 23.524C205.06 23.2893 205.206 23.04 205.309 22.776V20.026C205.045 19.3513 204.627 18.8087 204.055 18.398C203.498 17.9873 202.911 17.782 202.295 17.782C201.84 17.782 201.43 17.8847 201.063 18.09C200.696 18.2807 200.381 18.5447 200.117 18.882C199.853 19.2047 199.648 19.5787 199.501 20.004C199.369 20.4293 199.303 20.8693 199.303 21.324C199.303 21.7933 199.384 22.2333 199.545 22.644C199.706 23.0547 199.926 23.414 200.205 23.722C200.498 24.03 200.836 24.272 201.217 24.448C201.598 24.624 202.016 24.712 202.471 24.712ZM220.242 11.38H222.926L228.866 27H225.742L224.29 23.106H218.834L217.404 27H214.28L220.242 11.38ZM223.74 20.972L221.584 14.834L219.34 20.972H223.74ZM236.857 26.406C236.461 26.582 235.977 26.758 235.405 26.934C234.833 27.11 234.232 27.198 233.601 27.198C233.191 27.198 232.802 27.1467 232.435 27.044C232.083 26.9413 231.768 26.78 231.489 26.56C231.225 26.3253 231.013 26.032 230.851 25.68C230.69 25.3133 230.609 24.8733 230.609 24.36V17.738H229.091V15.472H230.609V11.732H233.557V15.472H235.977V17.738H233.557V23.37C233.557 23.7807 233.66 24.074 233.865 24.25C234.085 24.4113 234.349 24.492 234.657 24.492C234.965 24.492 235.266 24.4407 235.559 24.338C235.853 24.2353 236.087 24.1473 236.263 24.074L236.857 26.406ZM249.107 27H246.159V20.532C246.159 19.6227 245.99 18.9553 245.653 18.53C245.315 18.09 244.839 17.87 244.223 17.87C243.959 17.87 243.68 17.9287 243.387 18.046C243.093 18.1633 242.815 18.332 242.551 18.552C242.287 18.7573 242.045 19.0067 241.825 19.3C241.605 19.5933 241.443 19.916 241.341 20.268V27H238.393V10.94H241.341V17.606C241.766 16.858 242.338 16.286 243.057 15.89C243.79 15.4793 244.597 15.274 245.477 15.274C246.225 15.274 246.833 15.406 247.303 15.67C247.772 15.9193 248.139 16.2567 248.403 16.682C248.667 17.1073 248.85 17.5913 248.953 18.134C249.055 18.6767 249.107 19.234 249.107 19.806V27ZM251.648 10.94H254.596V23.304C254.596 23.7293 254.699 24.0593 254.904 24.294C255.109 24.5287 255.403 24.646 255.784 24.646C255.96 24.646 256.151 24.6167 256.356 24.558C256.576 24.4993 256.781 24.426 256.972 24.338L257.368 26.582C256.972 26.7727 256.51 26.9193 255.982 27.022C255.454 27.1247 254.977 27.176 254.552 27.176C253.628 27.176 252.909 26.934 252.396 26.45C251.897 25.9513 251.648 25.2473 251.648 24.338V10.94ZM263.999 27.22C263.075 27.22 262.239 27.066 261.491 26.758C260.743 26.4353 260.105 26.0027 259.577 25.46C259.049 24.9173 258.638 24.2867 258.345 23.568C258.066 22.8493 257.927 22.094 257.927 21.302C257.927 20.4807 258.066 19.7107 258.345 18.992C258.623 18.2587 259.027 17.6207 259.555 17.078C260.083 16.5207 260.721 16.0807 261.469 15.758C262.231 15.4353 263.082 15.274 264.021 15.274C264.959 15.274 265.795 15.4353 266.529 15.758C267.277 16.0807 267.907 16.5133 268.421 17.056C268.949 17.5987 269.345 18.2293 269.609 18.948C269.887 19.6667 270.027 20.4147 270.027 21.192C270.027 21.3827 270.019 21.566 270.005 21.742C270.005 21.918 269.99 22.0647 269.961 22.182H261.051C261.095 22.6367 261.205 23.04 261.381 23.392C261.557 23.744 261.784 24.0447 262.063 24.294C262.341 24.5433 262.657 24.734 263.009 24.866C263.361 24.998 263.727 25.064 264.109 25.064C264.695 25.064 265.245 24.9247 265.759 24.646C266.287 24.3527 266.646 23.9713 266.837 23.502L269.367 24.206C268.941 25.086 268.259 25.812 267.321 26.384C266.397 26.9413 265.289 27.22 263.999 27.22ZM266.991 20.268C266.917 19.4027 266.595 18.7133 266.023 18.2C265.465 17.672 264.783 17.408 263.977 17.408C263.581 17.408 263.207 17.4813 262.855 17.628C262.517 17.76 262.217 17.9507 261.953 18.2C261.689 18.4493 261.469 18.75 261.293 19.102C261.131 19.454 261.036 19.8427 261.007 20.268H266.991ZM278.645 26.406C278.249 26.582 277.765 26.758 277.193 26.934C276.621 27.11 276.019 27.198 275.389 27.198C274.978 27.198 274.589 27.1467 274.223 27.044C273.871 26.9413 273.555 26.78 273.277 26.56C273.013 26.3253 272.8 26.032 272.639 25.68C272.477 25.3133 272.397 24.8733 272.397 24.36V17.738H270.879V15.472H272.397V11.732H275.345V15.472H277.765V17.738H275.345V23.37C275.345 23.7807 275.447 24.074 275.653 24.25C275.873 24.4113 276.137 24.492 276.445 24.492C276.753 24.492 277.053 24.4407 277.347 24.338C277.64 24.2353 277.875 24.1473 278.051 24.074L278.645 26.406ZM285.247 27.22C284.323 27.22 283.487 27.066 282.739 26.758C281.991 26.4353 281.353 26.0027 280.825 25.46C280.297 24.9173 279.886 24.2867 279.593 23.568C279.314 22.8493 279.175 22.094 279.175 21.302C279.175 20.4807 279.314 19.7107 279.593 18.992C279.871 18.2587 280.275 17.6207 280.803 17.078C281.331 16.5207 281.969 16.0807 282.717 15.758C283.479 15.4353 284.33 15.274 285.269 15.274C286.207 15.274 287.043 15.4353 287.777 15.758C288.525 16.0807 289.155 16.5133 289.669 17.056C290.197 17.5987 290.593 18.2293 290.857 18.948C291.135 19.6667 291.275 20.4147 291.275 21.192C291.275 21.3827 291.267 21.566 291.253 21.742C291.253 21.918 291.238 22.0647 291.209 22.182H282.299C282.343 22.6367 282.453 23.04 282.629 23.392C282.805 23.744 283.032 24.0447 283.311 24.294C283.589 24.5433 283.905 24.734 284.257 24.866C284.609 24.998 284.975 25.064 285.357 25.064C285.943 25.064 286.493 24.9247 287.007 24.646C287.535 24.3527 287.894 23.9713 288.085 23.502L290.615 24.206C290.189 25.086 289.507 25.812 288.569 26.384C287.645 26.9413 286.537 27.22 285.247 27.22ZM288.239 20.268C288.165 19.4027 287.843 18.7133 287.271 18.2C286.713 17.672 286.031 17.408 285.225 17.408C284.829 17.408 284.455 17.4813 284.103 17.628C283.765 17.76 283.465 17.9507 283.201 18.2C282.937 18.4493 282.717 18.75 282.541 19.102C282.379 19.454 282.284 19.8427 282.255 20.268H288.239ZM297.427 27.22C296.459 27.22 295.513 27.066 294.589 26.758C293.665 26.45 292.873 26.01 292.213 25.438L293.313 23.59C294.017 24.0887 294.699 24.47 295.359 24.734C296.033 24.9833 296.701 25.108 297.361 25.108C297.947 25.108 298.409 24.998 298.747 24.778C299.084 24.558 299.253 24.2427 299.253 23.832C299.253 23.4213 299.055 23.1207 298.659 22.93C298.263 22.7393 297.617 22.5193 296.723 22.27C295.975 22.0647 295.337 21.8667 294.809 21.676C294.281 21.4853 293.855 21.2727 293.533 21.038C293.21 20.7887 292.975 20.51 292.829 20.202C292.682 19.8793 292.609 19.498 292.609 19.058C292.609 18.4713 292.719 17.9433 292.939 17.474C293.173 17.0047 293.496 16.6087 293.907 16.286C294.317 15.9487 294.794 15.692 295.337 15.516C295.894 15.34 296.495 15.252 297.141 15.252C298.006 15.252 298.813 15.3767 299.561 15.626C300.323 15.8753 301.02 16.2787 301.651 16.836L300.463 18.618C299.876 18.178 299.304 17.8553 298.747 17.65C298.204 17.4447 297.661 17.342 297.119 17.342C296.62 17.342 296.202 17.4447 295.865 17.65C295.527 17.8553 295.359 18.1853 295.359 18.64C295.359 18.8453 295.395 19.014 295.469 19.146C295.557 19.278 295.689 19.3953 295.865 19.498C296.041 19.6007 296.268 19.7033 296.547 19.806C296.84 19.894 297.199 19.9893 297.625 20.092C298.417 20.2973 299.091 20.5027 299.649 20.708C300.221 20.9133 300.683 21.148 301.035 21.412C301.401 21.676 301.665 21.984 301.827 22.336C302.003 22.6733 302.091 23.084 302.091 23.568C302.091 24.6973 301.673 25.592 300.837 26.252C300.001 26.8973 298.864 27.22 297.427 27.22Z" fill="#1BADC4"/>
<defs>
<clipPath id="clip0_48_923">
<rect width="38" height="38" fill="white"/>
</clipPath>
</defs>
</svg>
