<svg width="114" height="113" viewBox="0 0 114 113" fill="none" xmlns="http://www.w3.org/2000/svg">
<mask id="mask0_67_2528" style="mask-type:luminance" maskUnits="userSpaceOnUse" x="0" y="0" width="114" height="113">
<path d="M0.730469 7.62939e-06H113.73V113H0.730469V7.62939e-06Z" fill="white"/>
</mask>
<g mask="url(#mask0_67_2528)">
<path d="M61.1403 22.1679C78.3816 24.1096 91.7816 38.7398 91.7816 56.5C91.7816 75.582 76.3128 91.0508 57.2308 91.0508C38.1488 91.0508 22.6797 75.582 22.6797 56.5C22.6797 38.7552 36.0567 24.1348 53.2764 22.1729" stroke="#2E9E1C" stroke-width="2" stroke-miterlimit="10" stroke-linecap="round" stroke-linejoin="round"/>
<path d="M63.5726 15.0007C65.8317 17.4554 69.3044 18.3859 72.4883 17.3896C77.2998 15.884 82.3707 18.8118 83.4727 23.7315C84.2017 26.9869 86.744 29.5292 89.9993 30.2581C94.919 31.3601 97.8469 36.431 96.3412 41.2425C95.3448 44.4264 96.2755 47.8992 98.7301 50.1583C102.44 53.5723 102.44 59.4276 98.7301 62.8419C96.2755 65.101 95.3448 68.5737 96.3412 71.7576C97.8469 76.5692 94.919 81.64 89.9993 82.7418C86.744 83.471 84.2017 86.0133 83.4727 89.2686C82.3707 94.1883 77.2998 97.116 72.4883 95.6103C69.3044 94.6141 65.8317 95.5445 63.5726 97.9992C60.1585 101.709 54.303 101.709 50.889 97.9992C48.6298 95.5445 45.1571 94.6141 41.9732 95.6103C37.1617 97.116 32.0908 94.1883 30.9891 89.2686C30.2598 86.0133 27.7176 83.471 24.4622 82.7418C19.5425 81.64 16.6147 76.5692 18.1205 71.7576C19.1168 68.5737 18.1861 65.101 15.7314 62.8419C12.0218 59.4276 12.0218 53.5723 15.7314 50.1583C18.1861 47.8992 19.1168 44.4264 18.1205 41.2425C16.6147 36.431 19.5425 31.3601 24.4622 30.2581C27.7176 29.5292 30.2598 26.9869 30.9891 23.7315C32.0908 18.8118 37.1617 15.884 41.9732 17.3896C45.1571 18.3859 48.6298 17.4554 50.889 15.0007C54.303 11.2909 60.1585 11.2909 63.5726 15.0007Z" stroke="#2E9E1C" stroke-width="2" stroke-miterlimit="10" stroke-linecap="round" stroke-linejoin="round"/>
<path d="M111.616 1.65528L97.7705 15.5004" stroke="#2E9E1C" stroke-width="2" stroke-miterlimit="10" stroke-linecap="round" stroke-linejoin="round"/>
<path d="M104.693 25.4984L111.615 23.6099" stroke="#2E9E1C" stroke-width="2" stroke-miterlimit="10" stroke-linecap="round" stroke-linejoin="round"/>
<path d="M87.6245 8.57788L89.5131 1.65531" stroke="#2E9E1C" stroke-width="2" stroke-miterlimit="10" stroke-linecap="round" stroke-linejoin="round"/>
<path d="M2.8457 1.65528L16.6909 15.5004" stroke="#2E9E1C" stroke-width="2" stroke-miterlimit="10" stroke-linecap="round" stroke-linejoin="round"/>
<path d="M9.76828 25.4984L2.8457 23.6099" stroke="#2E9E1C" stroke-width="2" stroke-miterlimit="10" stroke-linecap="round" stroke-linejoin="round"/>
<path d="M26.8368 8.57788L24.9482 1.65531" stroke="#2E9E1C" stroke-width="2" stroke-miterlimit="10" stroke-linecap="round" stroke-linejoin="round"/>
<path d="M111.616 111.345L97.7705 97.4996" stroke="#2E9E1C" stroke-width="2" stroke-miterlimit="10" stroke-linecap="round" stroke-linejoin="round"/>
<path d="M104.693 87.5016L111.615 89.3901" stroke="#2E9E1C" stroke-width="2" stroke-miterlimit="10" stroke-linecap="round" stroke-linejoin="round"/>
<path d="M87.6245 104.422L89.5131 111.345" stroke="#2E9E1C" stroke-width="2" stroke-miterlimit="10" stroke-linecap="round" stroke-linejoin="round"/>
<path d="M2.8457 111.345L16.6909 97.4996" stroke="#2E9E1C" stroke-width="2" stroke-miterlimit="10" stroke-linecap="round" stroke-linejoin="round"/>
<path d="M9.76828 87.5016L2.8457 89.3901" stroke="#2E9E1C" stroke-width="2" stroke-miterlimit="10" stroke-linecap="round" stroke-linejoin="round"/>
<path d="M26.8368 104.422L24.9482 111.345" stroke="#2E9E1C" stroke-width="2" stroke-miterlimit="10" stroke-linecap="round" stroke-linejoin="round"/>
<path d="M65.5275 63.0268L79.1098 49.4445C80.466 48.0883 80.466 45.8897 79.1098 44.5334L74.8412 40.2648C73.4849 38.9086 71.2861 38.9086 69.9299 40.2648L51.93 58.2647L44.8714 51.2062C43.5152 49.85 41.3164 49.85 39.9601 51.2062L35.3516 55.8149C33.9954 57.1711 33.9954 59.37 35.3516 60.726L47.159 72.5336C49.6062 74.9805 53.5736 74.9805 56.0207 72.5336L60.0911 68.4632" stroke="#2E9E1C" stroke-width="2" stroke-miterlimit="10" stroke-linecap="round" stroke-linejoin="round"/>
</g>
</svg>
