<svg width="19" height="13" viewBox="0 0 19 13" fill="none" xmlns="http://www.w3.org/2000/svg">
<path d="M18.8323 6.0855L13.0653 0.205541C12.8582 -0.0410996 12.4941 -0.0698515 12.2522 0.141417C12.0103 0.352636 11.9821 0.723834 12.1893 0.970475C12.2087 0.993466 12.2297 1.01494 12.2522 1.0346L17.033 5.91495H0.576679C0.258207 5.91495 0 6.17822 0 6.50298C0 6.82774 0.258207 7.09096 0.576679 7.09096H17.033L12.2522 11.9654C12.0103 12.1766 11.9821 12.5478 12.1893 12.7945C12.3965 13.0411 12.7606 13.0699 13.0025 12.8586C13.025 12.8389 13.0461 12.8174 13.0653 12.7945L18.8323 6.9145C19.0559 6.68525 19.0559 6.31485 18.8323 6.0855Z" fill="white"/>
</svg>
