<svg width="217" height="230" viewBox="0 0 217 230" fill="none" xmlns="http://www.w3.org/2000/svg">
<path d="M18.3242 214.578C123.374 161.104 162.732 117.338 197.084 13.9844C235.775 64.8896 192.865 133.008 166.573 160.704C91.5347 241.656 36.4747 230.35 18.3242 214.578Z" fill="#1BADC4" fill-opacity="0.2"/>
<path fill-rule="evenodd" clip-rule="evenodd" d="M83.0259 217.293C108.73 208.688 137.06 189.76 161.557 162.271C186.054 134.782 201.606 104.467 207.205 77.9461C212.852 51.1975 208.169 29.9008 194.76 17.9505C181.35 6.0006 159.657 3.79228 133.732 12.4706C108.029 21.0751 79.6984 40.0038 55.2018 67.4925C30.7051 94.9812 15.1521 125.297 9.55339 151.817C3.90671 178.566 8.58938 199.863 21.9992 211.813C35.4086 223.763 57.1023 225.971 83.0259 217.293ZM17.2003 217.198C49.5435 246.02 116.585 223.578 166.942 167.07C217.299 110.562 231.902 41.3881 199.559 12.5656C167.215 -16.2572 100.174 6.18597 49.8169 62.6936C-0.540119 119.201 -15.1431 188.375 17.2003 217.198Z" fill="#2A3D46"/>
<path d="M136.35 79.424C137.675 77.9369 139.955 77.8057 141.442 79.1308C142.929 80.4559 143.06 82.7358 141.735 84.2229L81.7487 151.536C80.4236 153.023 78.1437 153.154 76.6566 151.829C75.17 150.504 75.0387 148.224 76.3639 146.737L136.35 79.424Z" fill="black"/>
<path d="M95.0267 71.5849C92.3756 74.5596 92.6385 79.1199 95.6131 81.7706C98.5877 84.4217 103.148 84.1593 105.799 81.1842C108.45 78.2096 108.187 73.6492 105.213 70.9986C102.238 68.3474 97.6774 68.6099 95.0267 71.5849Z" fill="black"/>
<path d="M79.4293 89.0866C76.7781 92.0612 77.0406 96.6215 80.0152 99.2727C82.9903 101.923 87.5506 101.661 90.2013 98.6863C92.8524 95.7117 92.59 91.1513 89.6149 88.5002C86.6403 85.8495 82.0799 86.1119 79.4293 89.0866Z" fill="black"/>
<path d="M63.8335 106.593C61.1829 109.568 61.4453 114.129 64.4199 116.779C67.3945 119.43 71.9549 119.168 74.606 116.193C77.2567 113.218 76.9942 108.658 74.0196 106.007C71.045 103.356 66.4847 103.619 63.8335 106.593Z" fill="black"/>
<path d="M143.491 114.78C140.84 117.755 141.103 122.315 144.077 124.966C147.052 127.617 151.612 127.354 154.263 124.38C156.914 121.405 156.652 116.845 153.677 114.194C150.702 111.543 146.142 111.805 143.491 114.78Z" fill="black"/>
<path d="M127.894 132.277C125.242 135.252 125.505 139.812 128.48 142.463C131.455 145.114 136.015 144.851 138.666 141.877C141.317 138.902 141.054 134.342 138.079 131.691C135.105 129.04 130.544 129.302 127.894 132.277Z" fill="black"/>
<path d="M112.298 149.779C109.647 152.754 109.91 157.314 112.884 159.965C115.859 162.616 120.419 162.353 123.07 159.379C125.721 156.404 125.458 151.844 122.484 149.193C119.509 146.542 114.949 146.804 112.298 149.779Z" fill="black"/>
<path d="M98.0148 79.0805C96.5277 77.7554 96.3965 75.4754 97.7216 73.9883C99.0467 72.5013 101.327 72.37 102.814 73.6956L151.279 116.886C152.766 118.211 152.897 120.491 151.572 121.978C150.247 123.465 147.967 123.596 146.48 122.27L98.0148 79.0805Z" fill="#1BADC4"/>
<path d="M82.4193 96.5786C80.9322 95.2535 80.801 92.9735 82.1265 91.4865C83.4516 89.9994 85.7311 89.8682 87.2182 91.1933L135.684 134.384C137.171 135.709 137.302 137.988 135.977 139.475C134.652 140.962 132.372 141.094 130.885 139.769L82.4193 96.5786Z" fill="#1BADC4"/>
<path d="M66.8217 114.08C65.3346 112.755 65.2034 110.475 66.5285 108.988C67.854 107.501 70.1335 107.37 71.6206 108.695L120.086 151.885C121.573 153.21 121.705 155.49 120.379 156.977C119.054 158.464 116.774 158.596 115.287 157.271L66.8217 114.08Z" fill="#1BADC4"/>
</svg>
