<svg width="56" height="56" viewBox="0 0 56 56" fill="none" xmlns="http://www.w3.org/2000/svg">
<g clip-path="url(#clip0_85_6478)">
<path d="M25.3345 24.2964H0.88167C0.394734 24.2964 0 24.6911 0 25.1781C0 25.665 0.394734 26.0597 0.88167 26.0597H25.3345C25.8214 26.0597 26.2162 25.665 26.2162 25.1781C26.2162 24.6911 25.8214 24.2964 25.3345 24.2964Z" fill="#1BADC4"/>
<path d="M15.9296 20.5351L8.40572 20.5347C7.91878 20.5347 7.52405 20.9293 7.52405 21.4163C7.52405 21.9034 7.91867 22.2979 8.40572 22.298L15.9296 22.2984C16.4165 22.2984 16.8113 21.9038 16.8113 21.4168C16.8114 20.9297 16.4167 20.5351 15.9296 20.5351Z" fill="#1BADC4"/>
<path d="M15.9295 16.7725L13.108 16.7729C12.621 16.7729 12.2263 17.1677 12.2264 17.6548C12.2264 18.1417 12.6212 18.5363 13.1081 18.5363L15.9297 18.5359C16.4167 18.5359 16.8113 18.1411 16.8112 17.6541C16.8113 17.1672 16.4165 16.7725 15.9295 16.7725Z" fill="#1BADC4"/>
<path d="M23.4536 28.0586H8.40572C7.91878 28.0586 7.52405 28.4533 7.52405 28.9403C7.52405 29.4272 7.91878 29.8219 8.40572 29.8219H23.4536C23.9405 29.8219 24.3353 29.4272 24.3353 28.9403C24.3353 28.4533 23.9405 28.0586 23.4536 28.0586Z" fill="#1BADC4"/>
<path d="M4.64368 20.5347H2.76265C2.27572 20.5347 1.88098 20.9294 1.88098 21.4163C1.88098 21.9033 2.27572 22.298 2.76265 22.298H4.64368C5.13062 22.298 5.52535 21.9033 5.52535 21.4163C5.52535 20.9294 5.13062 20.5347 4.64368 20.5347Z" fill="#1BADC4"/>
<path d="M41.8546 22.5971L44.129 23.6207C44.8567 23.9479 45.6282 24.1139 46.4222 24.1139C47.83 24.1139 49.1763 23.5862 50.2131 22.6276L55.0582 18.145C56.083 17.1969 56.3012 15.6459 55.5659 14.5369C55.1124 13.8531 54.3899 13.4052 53.5836 13.3083C52.7777 13.2116 51.9731 13.4717 51.3768 14.0229L46.4608 18.5717C46.4433 18.5878 46.4181 18.5919 46.3966 18.5823L42.2295 16.707C41.4312 16.3477 40.4859 16.6158 39.9815 17.3441C39.2605 18.3851 38.2064 18.8811 37.418 18.5502C36.5983 18.2062 36.215 17.0235 36.5066 15.7379C36.698 14.8933 36.2679 14.0243 35.4839 13.6714L30.9235 11.6192C28.959 10.7353 26.6331 11.07 24.9978 12.4717L19.8511 16.8831C18.7907 17.792 18.5128 19.3347 19.2047 20.4713C19.6316 21.1724 20.3366 21.6476 21.1393 21.775C21.9413 21.9023 22.7552 21.6723 23.3709 21.1438L28.5942 16.6669C28.6115 16.6522 28.6361 16.6486 28.6568 16.6578L30.8272 17.6345C31.0728 17.7451 31.26 17.9452 31.3537 18.1978C31.4475 18.4505 31.4366 18.724 31.3226 18.9682L23.894 34.898C23.8811 34.9257 23.8514 34.939 23.8215 34.9289L12.8141 31.171C12.3557 31.006 11.8509 31.2438 11.686 31.7021L9.45719 37.8968C9.37812 38.1168 9.38949 38.3592 9.48902 38.5708C9.58855 38.7824 9.76826 38.9458 9.98832 39.0249L10.8733 39.3432C11.2861 39.4918 11.7081 39.5621 12.1234 39.5621C13.3614 39.5621 14.5385 38.9359 15.2253 37.8868L22.7341 40.3867C23.3069 40.5776 23.9012 40.6743 24.5008 40.6743C26.6553 40.6743 28.6366 39.4149 29.5534 37.4643L31.2746 34.1019L39.232 37.3914C39.2491 37.3987 39.2602 37.4108 39.267 37.433L42.3221 47.1853V50.5717C42.3221 51.0586 42.7169 51.4533 43.2038 51.4533H49.7873C50.2742 51.4533 50.669 51.0586 50.669 50.5717V49.6311C50.669 47.8604 49.4191 46.3766 47.7555 46.0137L44.3528 35.0367C43.863 33.4453 42.7006 32.165 41.1632 31.5238L37.3455 29.9332L40.5387 23.0857C40.7686 22.5933 41.3588 22.3741 41.8546 22.5971ZM30.1882 15.4135L29.3799 15.0497C28.739 14.7611 27.98 14.8704 27.4463 15.3279L22.2227 19.8052C22 19.9963 21.706 20.0794 21.4154 20.0332C21.1205 19.9864 20.8702 19.8163 20.7107 19.5542C20.4672 19.1541 20.5934 18.5689 20.9983 18.2219L26.1451 13.8105C27.264 12.8512 28.8556 12.6224 30.1996 13.2273L31.0446 13.6076L30.1882 15.4135ZM13.952 36.5157C13.5899 37.5222 12.4766 38.0464 11.4701 37.6842L11.4148 37.6643L13.0467 33.1289L14.9271 33.8055L13.952 36.5157ZM44.9015 19.8429L45.6728 20.1901C46.3408 20.4906 47.1203 20.3634 47.6582 19.8659L52.5741 15.3173C52.7896 15.118 53.0801 15.0238 53.3731 15.059C53.6698 15.0947 53.9266 15.2552 54.0962 15.5112C54.3547 15.9009 54.2512 16.4893 53.8606 16.8505L49.0158 21.3329C48.306 21.9892 47.385 22.3504 46.4223 22.3504C45.8793 22.3504 45.3512 22.2368 44.8526 22.0125L44.0451 21.6491L44.9015 19.8429ZM27.9764 36.6749C27.9715 36.6846 27.9668 36.6943 27.9622 36.7041C27.337 38.045 25.9783 38.9113 24.5006 38.9113C24.0909 38.9113 23.6841 38.845 23.2912 38.7139L15.9184 36.2593L16.5937 34.3827L23.2628 36.6015C24.1416 36.8962 25.0999 36.4844 25.4921 35.6436L25.5403 35.5403L28.0302 36.5696L27.9764 36.6749ZM48.9056 49.6315V49.6902H44.0856V47.6916H46.9659C48.0354 47.6917 48.9056 48.5619 48.9056 49.6315ZM40.0724 32.9798L40.4849 33.1516C41.5368 33.5903 42.3323 34.4665 42.6681 35.5573L45.8829 45.9283H43.7762L40.9509 36.9105C40.791 36.3909 40.4117 35.973 39.9077 35.763L39.0926 35.426L40.0724 32.9798ZM38.9406 22.3408L35.7164 29.2546L32.2547 27.8236C31.8047 27.6377 31.2892 27.8516 31.1031 28.3015C30.9171 28.7516 31.1311 29.2672 31.5811 29.4531L38.4444 32.3017L37.4628 34.7525L31.1966 32.1621C30.7725 31.9867 30.2842 32.1664 30.0749 32.5752L28.8362 34.995L26.286 33.9408L32.9204 19.7136C33.2352 19.0384 33.2658 18.282 33.0062 17.5837C32.7783 16.9704 32.3515 16.4695 31.7908 16.1494L32.6529 14.3317L34.7596 15.2798C34.7859 15.2917 34.7917 15.3236 34.7862 15.3482C34.2973 17.5043 35.0987 19.4897 36.7352 20.1764C38.2995 20.833 40.2307 20.0811 41.4308 18.3484C41.4478 18.3239 41.4784 18.3032 41.5055 18.3154L43.2931 19.1197L42.4346 20.93C41.0956 20.4157 39.5539 21.0258 38.9406 22.3408Z" fill="#2A3D46"/>
<path d="M45.0849 4.54639H40.3824C38.3405 4.54639 36.6792 6.20768 36.6792 8.2496V10.1306C36.6792 12.6911 38.7624 14.7744 41.3229 14.7744C43.8834 14.7744 45.9667 12.6912 45.9667 10.1306V5.42806C45.9667 4.94112 45.5718 4.54639 45.0849 4.54639ZM44.2032 10.1305C44.2032 11.7186 42.9112 13.0108 41.3229 13.0108C39.7348 13.0108 38.4427 11.7186 38.4427 10.1305V8.2496C38.4427 7.18002 39.3128 6.30984 40.3824 6.30984H44.2032V10.1305Z" fill="#2A3D46"/>
</g>
<defs>
<clipPath id="clip0_85_6478">
<rect width="56" height="56" fill="white"/>
</clipPath>
</defs>
</svg>
