<svg width="48" height="48" viewBox="0 0 48 48" fill="none" xmlns="http://www.w3.org/2000/svg">
<g clip-path="url(#clip0_85_6720)">
<path d="M27 12H36.75V13.5H27V12Z" fill="#2A3D46"/>
<path d="M33.75 25.5C31.7615 25.4978 29.8552 24.7069 28.4491 23.3009C27.0431 21.8948 26.2522 19.9885 26.25 18V15H27.75V18C27.7489 19.5342 28.3355 21.0106 29.3893 22.1256C30.443 23.2407 31.8839 23.9097 33.4157 23.9951C34.9476 24.0806 36.4539 23.576 37.6252 22.5851C38.7965 21.5942 39.5437 20.1923 39.7133 18.6675L41.2042 18.8325C41.0022 20.6673 40.1294 22.3627 38.7536 23.5933C37.3778 24.824 35.5959 25.503 33.75 25.5Z" fill="#2A3D46"/>
<path d="M39.75 19.5C38.7558 19.4988 37.8027 19.1033 37.0997 18.4003C36.3967 17.6973 36.0012 16.7442 36 15.75V13.5H24.75C24.1533 13.5 23.581 13.2629 23.159 12.841C22.7371 12.419 22.5 11.8467 22.5 11.25C22.5 10.6533 22.7371 10.081 23.159 9.65901C23.581 9.23705 24.1533 9 24.75 9H25.5413C25.7278 7.35068 26.5147 5.82765 27.7519 4.72114C28.9891 3.61464 30.5902 3.00201 32.25 3H36.75C38.5395 3.00218 40.2552 3.71404 41.5206 4.97944C42.786 6.24484 43.4978 7.96046 43.5 9.75V15.75C43.4988 16.7442 43.1033 17.6973 42.4003 18.4003C41.6973 19.1033 40.7442 19.4988 39.75 19.5ZM24.75 10.5C24.5511 10.5 24.3603 10.579 24.2197 10.7197C24.079 10.8603 24 11.0511 24 11.25C24 11.4489 24.079 11.6397 24.2197 11.7803C24.3603 11.921 24.5511 12 24.75 12H36.75C36.9489 12 37.1397 12.079 37.2803 12.2197C37.421 12.3603 37.5 12.5511 37.5 12.75V15.75C37.5 16.3467 37.7371 16.919 38.159 17.341C38.581 17.7629 39.1533 18 39.75 18C40.3467 18 40.919 17.7629 41.341 17.341C41.7629 16.919 42 16.3467 42 15.75V9.75C41.9984 8.3581 41.4448 7.02367 40.4606 6.03944C39.4763 5.05522 38.1419 4.50159 36.75 4.5H32.25C30.8581 4.50159 29.5237 5.05522 28.5394 6.03944C27.5552 7.02367 27.0016 8.3581 27 9.75C27 9.94891 26.921 10.1397 26.7803 10.2803C26.6397 10.421 26.4489 10.5 26.25 10.5H24.75Z" fill="#2A3D46"/>
<path d="M39.75 17.25C40.5784 17.25 41.25 16.5784 41.25 15.75C41.25 14.9216 40.5784 14.25 39.75 14.25C38.9216 14.25 38.25 14.9216 38.25 15.75C38.25 16.5784 38.9216 17.25 39.75 17.25Z" fill="#2A3D46"/>
<path d="M25.425 34.836L24.0825 34.161L27.0825 28.161C27.1291 28.068 27.1944 27.9857 27.2745 27.9194C27.3545 27.853 27.4475 27.804 27.5475 27.7755L32.25 26.4345V24.75H33.75V27C33.7499 27.1629 33.6968 27.3213 33.5987 27.4514C33.5006 27.5814 33.3629 27.676 33.2063 27.7207L28.275 29.1307L25.425 34.836Z" fill="#2A3D46"/>
<path d="M39.75 40.5C39.6018 40.5 39.457 40.4562 39.3337 40.374L32.5837 35.874C32.423 35.7667 32.3099 35.6016 32.268 35.4129C32.2261 35.2243 32.2586 35.0268 32.3587 34.8615L37.365 26.5815C37.7262 25.9743 38.206 25.4461 38.7758 25.0283C39.3456 24.6106 39.9937 24.3119 40.6815 24.15C41.3754 23.9801 42.0965 23.9519 42.8017 24.067C43.5068 24.182 44.1815 24.4381 44.7855 24.8198C45.4023 25.2031 45.9324 25.711 46.3416 26.311C46.7508 26.911 47.0302 27.5899 47.1619 28.3041C47.2935 29.0183 47.2746 29.7522 47.1062 30.4587C46.9379 31.1651 46.6238 31.8287 46.1842 32.4068L40.35 40.2C40.2801 40.2932 40.1895 40.3688 40.0854 40.4208C39.9812 40.4729 39.8664 40.5 39.75 40.5ZM34.0132 35.025L39.5752 38.733L44.9865 31.5045C45.3009 31.0922 45.5257 30.6187 45.6462 30.1145C45.7668 29.6102 45.7805 29.0862 45.6864 28.5763C45.5924 28.0664 45.3928 27.5818 45.1003 27.1536C44.8078 26.7255 44.429 26.3633 43.9882 26.0903C43.5531 25.8157 43.0671 25.6315 42.5593 25.5488C42.0515 25.4661 41.5322 25.4865 41.0325 25.6088C40.5384 25.7247 40.0729 25.9391 39.6636 26.2391C39.2543 26.5391 38.9097 26.9185 38.6505 27.3548L34.0132 35.025Z" fill="#2A3D46"/>
<path d="M32.1442 45.75H31.3867C30.8306 45.7506 30.2854 45.5966 29.8117 45.3053L20.607 39.639C20.4568 39.5459 20.3444 39.4027 20.2895 39.2348C20.2347 39.0668 20.2408 38.8849 20.307 38.721L21.807 34.971C21.8455 34.8747 21.9036 34.7874 21.9776 34.7146C22.0516 34.6419 22.1399 34.5853 22.2369 34.5484C22.3339 34.5116 22.4375 34.4952 22.5411 34.5005C22.6447 34.5057 22.7462 34.5324 22.839 34.5788L31.2967 38.808L33.9217 35.5313L35.0932 36.4688L32.0932 40.2188C31.986 40.3528 31.8361 40.446 31.6685 40.4829C31.5009 40.5197 31.3257 40.498 31.1722 40.4213L22.8937 36.285L21.9307 38.6925L30.6 44.025C30.8362 44.1711 31.1082 44.249 31.386 44.25H32.1435C32.5109 44.2501 32.8656 44.1154 33.1402 43.8713L38.4652 38.4713L39.534 39.525L34.173 44.9565C33.6189 45.4641 32.8956 45.747 32.1442 45.75Z" fill="#2A3D46"/>
<path d="M20.6025 39.6361L14.6025 35.8861C14.4358 35.7819 14.3167 35.6164 14.2708 35.4252C14.2249 35.234 14.256 35.0324 14.3573 34.8639L16.6073 31.1139C16.6994 30.9605 16.8433 30.845 17.013 30.7884L18.1755 30.4006C18.6438 30.2445 19.1504 30.2467 19.6173 30.4069C20.0842 30.5671 20.4855 30.8764 20.7593 31.2871L23.124 34.8339L21.876 35.6664L19.5113 32.1196C19.42 31.9828 19.2863 31.8797 19.1307 31.8263C18.9751 31.7729 18.8063 31.7722 18.6503 31.8241L17.7503 32.1241L16.0253 35.0041L21.4005 38.3641L20.6025 39.6361Z" fill="#2A3D46"/>
<path d="M24.9885 47.2499C24.1665 47.2506 23.3735 46.9462 22.7632 46.3956L17.6632 41.8064L18.6667 40.6919L23.7667 45.2811C24.0009 45.4919 24.2856 45.6384 24.5932 45.7065C24.9008 45.7747 25.2208 45.7621 25.522 45.67C25.8233 45.5779 26.0956 45.4094 26.3126 45.1809C26.5295 44.9525 26.6836 44.6718 26.76 44.3661L27.0225 43.3161L28.4775 43.6806L28.2157 44.7306C28.0364 45.4507 27.6213 46.09 27.0363 46.5466C26.4514 47.0032 25.7305 47.2508 24.9885 47.2499Z" fill="#2A3D46"/>
<path d="M44.25 48H27.75C27.5511 48 27.3603 47.921 27.2197 47.7803C27.079 47.6397 27 47.4489 27 47.25V42.75H28.5V46.5H43.5V45.927L42.825 44.5852C42.7744 44.4808 42.7487 44.366 42.75 44.25V43.2945C42.7507 42.8202 42.8611 42.3525 43.0725 41.928C44.829 38.405 45.7454 34.5231 45.75 30.5865V29.25H47.25V30.5865C47.2451 34.7562 46.2745 38.8682 44.4143 42.6C44.3066 42.8162 44.2504 43.0544 44.25 43.296V44.0745L44.925 45.4163C44.9754 45.5202 45.001 45.6345 45 45.75V47.25C45 47.4489 44.921 47.6397 44.7803 47.7803C44.6397 47.921 44.4489 48 44.25 48Z" fill="#2A3D46"/>
<path d="M14.7593 42.1957C14.2724 42.1962 13.7985 42.0383 13.4093 41.7457L12.2693 40.8915C11.7347 40.4907 11.3789 39.8961 11.2782 39.2357C11.1775 38.5752 11.34 37.9016 11.7308 37.3597L13.1108 34.971C13.2259 34.7718 13.3853 34.6018 13.5766 34.4741C13.7679 34.3464 13.9861 34.2644 14.2142 34.2344C14.4422 34.2045 14.6742 34.2274 14.892 34.3014C15.1098 34.3754 15.3076 34.4985 15.4703 34.6612L14.4098 35.7217L13.0095 38.145C12.9948 38.1711 12.9783 38.1962 12.96 38.22C12.8772 38.3303 12.8169 38.4559 12.7826 38.5895C12.7483 38.7232 12.7407 38.8623 12.7602 38.9989C12.7797 39.1355 12.8259 39.2669 12.8963 39.3856C12.9666 39.5043 13.0596 39.608 13.17 39.6907L14.31 40.5457C14.4638 40.661 14.656 40.7128 14.847 40.6905C15.0379 40.6682 15.213 40.5734 15.336 40.4257L18.174 37.0207L19.326 37.9807L16.488 41.3865C16.277 41.6401 16.0127 41.8441 15.7139 41.984C15.4151 42.1239 15.0892 42.1962 14.7593 42.1957Z" fill="#2A3D46"/>
<path d="M37.5 23.25H39V25.5H37.5V23.25Z" fill="#2A3D46"/>
<path d="M35.25 29.25C33.1777 29.25 32.25 28.1198 32.25 27H33.75C33.75 27.5535 34.5577 27.75 35.25 27.75C35.8241 27.6844 36.3591 27.4263 36.7677 27.0177C37.1763 26.6091 37.4344 26.0741 37.5 25.5H39C38.9273 26.4704 38.5089 27.3826 37.8207 28.0707C37.1326 28.7589 36.2204 29.1773 35.25 29.25Z" fill="#2A3D46"/>
<path d="M27 28.5H28.5V38.25H27V28.5Z" fill="#2A3D46"/>
<path d="M11.4491 42.9219L13.4833 40.7291L14.583 41.7493L12.5488 43.942L11.4491 42.9219Z" fill="#2A3D46"/>
<path d="M20.4464 33.2305L29.4908 23.4812L30.5903 24.5012L21.5459 34.2505L20.4464 33.2305Z" fill="#2A3D46"/>
<path d="M43.2998 10.8285L42.2003 9.80854L45.8228 5.90854C46.0703 5.64049 46.2575 5.32255 46.3719 4.97611C46.4862 4.62966 46.5251 4.26275 46.4858 3.90004C46.4466 3.52978 46.3287 3.17218 46.1401 2.85115C45.9516 2.53012 45.6966 2.25307 45.3923 2.03854C44.7918 1.60562 44.0477 1.42045 43.3143 1.52141C42.5809 1.62236 41.9145 2.00171 41.4533 2.58079L39.6375 4.95604L38.4465 4.04404L40.2653 1.66879C40.9661 0.783398 41.9808 0.201808 43.099 0.0447021C44.2172 -0.112404 45.3529 0.167036 46.2705 0.825037C46.7447 1.16522 47.1419 1.60153 47.4362 2.10552C47.7304 2.60951 47.9151 3.16986 47.9783 3.75004C48.0359 4.32304 47.9721 4.90175 47.7912 5.44849C47.6103 5.99523 47.3163 6.49773 46.9283 6.92329L43.2998 10.8285Z" fill="#2A3D46"/>
<path d="M21.907 25.646L26.4068 19.7696L27.5978 20.6816L23.098 26.558L21.907 25.646Z" fill="#2A3D46"/>
<path d="M20.0691 28.0459L21.1567 26.6256L22.3477 27.5376L21.2601 28.9579L20.0691 28.0459Z" fill="#2A3D46"/>
<path d="M18.1562 30.543L19.4946 28.7952L20.6856 29.7072L19.3473 31.455L18.1562 30.543Z" fill="#2A3D46"/>
<path d="M9.90613 41.3169L11.4533 39.2964L12.6443 40.2084L11.0971 42.2289L9.90613 41.3169Z" fill="#2A3D46"/>
<path d="M11.4323 46.5C11.1607 46.5004 10.8918 46.4472 10.6408 46.3435C10.3898 46.2398 10.1618 46.0875 9.96978 45.8955L8.10603 44.0318C7.91397 43.8397 7.76162 43.6117 7.65768 43.3608C7.55374 43.1098 7.50024 42.8409 7.50024 42.5693C7.50024 42.2977 7.55374 42.0287 7.65768 41.7778C7.76162 41.5268 7.91397 41.2988 8.10603 41.1068C8.49391 40.7189 9.01999 40.501 9.56853 40.501C9.84014 40.501 10.1091 40.5545 10.36 40.6584C10.611 40.7624 10.839 40.9147 11.031 41.1068L12.8948 42.9713C13.184 43.2604 13.3809 43.6288 13.4607 44.0299C13.5404 44.4309 13.4994 44.8466 13.3428 45.2244C13.1863 45.6022 12.9212 45.925 12.5811 46.1521C12.241 46.3791 11.8412 46.5002 11.4323 46.5ZM11.0303 44.8343C11.1368 44.9408 11.2813 45.0006 11.4319 45.0006C11.5825 45.0006 11.727 44.9408 11.8335 44.8343C11.94 44.7277 11.9999 44.5833 11.9999 44.4326C11.9999 44.282 11.94 44.1375 11.8335 44.031L9.96978 42.1673C9.86326 42.0607 9.7188 42.0009 9.56816 42.0009C9.41752 42.0009 9.27305 42.0607 9.16653 42.1673C9.06001 42.2738 9.00017 42.4183 9.00017 42.5689C9.00017 42.7195 9.06001 42.864 9.16653 42.9705L11.0303 44.8343Z" fill="#2A3D46"/>
<path d="M15 21C13.9617 21 12.9466 20.6921 12.0833 20.1152C11.2199 19.5383 10.547 18.7184 10.1496 17.7591C9.75227 16.7998 9.64831 15.7442 9.85088 14.7258C10.0535 13.7074 10.5535 12.7719 11.2877 12.0377C12.0219 11.3035 12.9574 10.8035 13.9758 10.6009C14.9942 10.3983 16.0498 10.5023 17.0091 10.8996C17.9684 11.297 18.7883 11.9699 19.3652 12.8333C19.9421 13.6966 20.25 14.7117 20.25 15.75C20.2484 17.1419 19.6948 18.4763 18.7106 19.4606C17.7263 20.4448 16.3919 20.9984 15 21ZM15 12C14.2583 12 13.5333 12.2199 12.9166 12.632C12.2999 13.044 11.8193 13.6297 11.5355 14.3149C11.2516 15.0002 11.1774 15.7542 11.3221 16.4816C11.4668 17.209 11.8239 17.8772 12.3484 18.4017C12.8728 18.9261 13.541 19.2833 14.2684 19.4279C14.9958 19.5726 15.7498 19.4984 16.4351 19.2146C17.1203 18.9307 17.706 18.4501 18.118 17.8334C18.5301 17.2167 18.75 16.4917 18.75 15.75C18.7488 14.7558 18.3533 13.8027 17.6503 13.0997C16.9473 12.3967 15.9942 12.0012 15 12Z" fill="#1BADC4"/>
<path d="M12.75 19.5002H11.25C11.2201 18.8857 11.3124 18.2713 11.5216 17.6928C11.7308 17.1142 12.0527 16.5829 12.4688 16.1297C12.5781 16.0139 12.6726 15.8849 12.75 15.7457C12.7303 14.745 12.5477 13.7543 12.2093 12.8124L12.03 12.2124L13.47 11.7954L13.6455 12.3827C14.0264 13.4655 14.2305 14.6025 14.25 15.7502C14.2135 16.26 13.989 16.7381 13.62 17.0919C13.3174 17.4121 13.084 17.7912 12.9344 18.2055C12.7847 18.6198 12.7219 19.0605 12.75 19.5002Z" fill="#1BADC4"/>
<path d="M18.75 19.4998H17.25C17.2781 19.0602 17.2153 18.6195 17.0657 18.2052C16.916 17.7908 16.6826 17.4118 16.38 17.0916C16.011 16.7378 15.7865 16.2597 15.75 15.7498C15.7687 14.5997 15.9728 13.46 16.3545 12.3748L16.53 11.7876L17.97 12.2046L17.7908 12.8046C17.4511 13.7503 17.2685 14.7452 17.25 15.7498C17.3289 15.8867 17.4232 16.0141 17.5312 16.1293C17.9473 16.5826 18.2692 17.1139 18.4784 17.6925C18.6876 18.271 18.7799 18.8853 18.75 19.4998Z" fill="#1BADC4"/>
<path d="M3.75 12H8.25V13.5H3.75V12Z" fill="#1BADC4"/>
<path d="M0.75 12H2.25V13.5H0.75V12Z" fill="#1BADC4"/>
<path d="M3.75 15H8.25V16.5H3.75V15Z" fill="#1BADC4"/>
<path d="M0.75 15H2.25V16.5H0.75V15Z" fill="#1BADC4"/>
<path d="M3.75 18H8.25V19.5H3.75V18Z" fill="#1BADC4"/>
<path d="M0.75 18H2.25V19.5H0.75V18Z" fill="#1BADC4"/>
</g>
<defs>
<clipPath id="clip0_85_6720">
<rect width="48" height="48" fill="white"/>
</clipPath>
</defs>
</svg>
