<svg width="46" height="46" viewBox="0 0 46 46" fill="none" xmlns="http://www.w3.org/2000/svg">
<g clip-path="url(#clip0_85_6503)">
<path d="M44.8151 27.3905C44.7454 27.042 44.4666 26.8329 44.1181 26.8329H37.7757C37.3575 26.8329 37.009 27.1814 37.0787 27.5996C37.2181 29.4117 36.9394 29.7602 36.9394 29.7602C35.1272 31.5723 31.7818 32.8966 27.7393 33.4541L28.2969 30.4572L28.6454 30.5269C29.9 30.8753 31.2939 30.1784 31.6424 28.8541C31.9909 27.5299 31.2939 26.2056 29.9697 25.8572C29.6909 25.7875 29.4121 25.7178 29.203 25.6481L29.9697 21.4663C30.0393 21.1178 29.7606 20.6996 29.4121 20.6299C29.0636 20.5602 28.6454 20.839 28.5757 21.1875L27.8787 25.2299C18.4697 22.5814 18.4697 22.442 17.3545 22.3723C15.0545 22.3026 13.103 24.1147 13.103 26.4844L12.9636 32.0602C11.3606 31.4329 10.0363 30.6663 9.13026 29.6905C9.13026 29.6905 8.85147 29.342 8.99086 27.5299C9.06056 27.1117 8.71208 26.7632 8.29389 26.7632H1.88177C1.53329 26.7632 1.2545 26.9723 1.1848 27.3208C0.348438 31.9208 0.557529 34.8481 1.81207 36.0329C2.99692 37.2178 4.73935 38.2632 6.89995 39.0996C6.69086 39.0996 6.48177 39.1693 6.20298 39.1693C4.18177 39.1693 3.90298 37.7753 1.39389 37.7753C0.975711 37.7753 0.696923 38.0541 0.696923 38.4723C0.696923 38.8905 0.975711 39.1693 1.39389 39.1693C3.4151 39.1693 3.69389 40.5632 6.20298 40.5632C7.59692 40.5632 8.29389 40.145 8.92117 39.7966C10.3151 38.9602 11.5697 38.9602 13.0333 39.7966C14.8454 40.842 16.6575 40.9117 18.5393 39.7966C19.9333 38.9602 21.1878 38.9602 22.6515 39.7966C23.209 40.145 23.906 40.4935 25.0212 40.5632L24.3939 43.9087C23.906 43.839 23.6272 43.6996 23.3484 43.4905C19.8636 41.4693 19.0272 45.0238 16.3787 43.4905C14.9848 42.7238 13.5909 42.6541 12.1969 43.4905C11.2212 44.0481 10.3848 44.0481 9.40905 43.4905C8.92117 43.2117 8.36359 42.8632 7.31814 42.8632C6.89995 42.8632 6.62117 43.142 6.62117 43.5602C6.62117 43.9784 6.89995 44.2572 7.31814 44.2572C8.01511 44.2572 8.29389 44.4663 8.71208 44.6753C10.106 45.5117 11.5 45.5117 12.8939 44.6753C13.8697 44.1178 14.706 44.1178 15.6818 44.6753C17.0757 45.442 18.4697 45.5117 19.8636 44.6753C20.8393 44.1178 21.6757 44.1178 22.6515 44.6753C24.0454 45.442 25.4393 45.5117 26.8333 44.6753C27.809 44.1178 28.6454 44.1178 29.6212 44.6753C31.0151 45.5117 32.409 45.5117 33.803 44.6753C34.7787 44.1178 35.6151 44.1178 36.5909 44.6753C37.0787 44.9541 37.6363 45.3026 38.6818 45.3026C39.1 45.3026 39.3787 45.0238 39.3787 44.6056C39.3787 44.1875 39.1 43.9087 38.6818 43.9087C37.9848 43.9087 37.706 43.6996 37.2878 43.4905C35.8939 42.6541 34.5 42.6541 33.106 43.4905C32.1303 44.0481 31.2939 44.0481 30.3181 43.4905C28.9242 42.7238 27.5303 42.6541 26.1363 43.4905C26.0666 43.5602 25.9969 43.5602 25.8575 43.6299L26.4151 40.4935C27.1818 40.3541 27.6697 40.0753 28.0878 39.7966C29.4818 38.9602 30.7363 38.9602 32.2 39.7966C34.0121 40.842 35.8242 40.9117 37.706 39.7966C40.8424 37.9844 41.609 40.5632 44.5363 40.5632C44.9545 40.5632 45.2333 40.2844 45.2333 39.8663C45.2333 39.4481 44.9545 39.1693 44.5363 39.1693C42.9333 39.1693 42.6545 38.4723 41.4 38.0541C42.4454 37.4269 43.4212 36.7996 44.1181 36.0329C45.4424 34.8481 45.6515 31.9208 44.8151 27.3905ZM26.2757 33.5935C24.5333 33.7329 22.9303 33.8026 21.1878 33.7329L21.3272 28.5057L26.903 30.1087L26.2757 33.5935ZM14.4272 26.4844C14.4272 24.9511 15.7515 23.7663 17.2848 23.7663C18.2606 23.836 18.4697 24.1147 29.6212 27.1814C30.1787 27.3208 30.5272 27.9481 30.3181 28.5057C30.1787 29.0632 29.5515 29.4117 28.9939 29.2026L20.8393 26.9026C20.4212 26.7632 19.9333 27.1117 19.9333 27.5299L19.7939 33.5935C17.7727 33.3844 15.8909 33.036 14.2181 32.5481L14.4272 26.4844ZM17.8424 38.6117C16.4484 39.4481 15.1939 39.4481 13.7303 38.6117C11.9181 37.5663 10.0363 37.636 8.71208 38.3329C6.06359 37.4269 4.11207 36.3814 2.78783 35.0572C2.02117 34.2905 1.88177 31.7117 2.43935 28.1572H7.45753C7.38783 29.4117 7.59692 30.2481 8.01511 30.6663C11.9181 34.5693 20.4212 35.4057 25.9969 34.9178L25.2303 39.1693C23.1393 39.1693 21.5363 36.5208 17.8424 38.6117ZM43.2121 35.0572C41.0515 37.2178 38.5424 37.7057 37.0787 38.6117C35.6848 39.4481 34.3606 39.4481 32.9666 38.6117C31.1545 37.5663 29.3424 37.4966 27.4606 38.6117C27.2515 38.7511 26.9727 38.8905 26.7636 38.9602L27.5303 34.7784C32.1303 34.2208 35.9636 32.7572 37.9848 30.6663C38.403 30.2481 38.6121 29.4117 38.5424 28.1572H43.5606C44.1181 31.7117 43.9787 34.2905 43.2121 35.0572Z" fill="#2A3D46"/>
<path d="M17.912 12.8936C15.612 12.8936 13.7302 14.7754 13.7302 17.0754C13.7302 19.3754 15.612 21.2572 17.912 21.2572C20.212 21.2572 22.0939 19.3754 22.0939 17.0754C22.0939 14.7754 20.212 12.8936 17.912 12.8936ZM17.912 19.8633C16.3787 19.8633 15.1242 18.6087 15.1242 17.0754C15.1242 15.542 16.3787 14.2875 17.912 14.2875C19.4454 14.2875 20.6999 15.542 20.6999 17.0754C20.6999 18.6087 19.4454 19.8633 17.912 19.8633Z" fill="#2A3D46"/>
<path d="M43.212 4.25121C43.212 3.48454 43.0029 2.71788 42.5151 2.09061C40.4241 -0.55788 36.2423 0.905757 36.2423 4.18151C34.6393 4.04212 33.1757 5.36636 33.1757 6.96939C33.1757 8.50273 34.4302 9.75727 35.9635 9.75727H42.5151C44.3272 9.75727 45.3029 8.36333 45.3029 6.96939C45.3029 5.71485 44.5363 4.53 43.212 4.25121ZM42.5151 8.36333H36.0332C35.2666 8.36333 34.6393 7.73606 34.6393 6.96939C34.6393 6.13303 35.406 5.57545 36.0332 5.57545C36.7999 5.57545 37.009 6.20273 37.5666 5.78454C38.3332 5.15727 37.0787 4.39061 37.9848 3.06636C39.309 1.18454 42.306 2.50879 41.7484 4.73909C41.6787 4.94818 41.7484 5.15727 41.8878 5.36636C42.1666 5.71485 42.5151 5.57545 42.5847 5.64515C43.6302 5.64515 43.9787 6.55121 43.9787 7.03909C43.909 7.59667 43.5605 8.36333 42.5151 8.36333Z" fill="#1BADC4"/>
<path d="M1.39387 2.09072C2.57872 2.09072 3.48478 2.99678 3.48478 4.18163C3.48478 4.59981 3.76357 4.8786 4.18175 4.8786C4.59993 4.8786 4.87872 4.59981 4.87872 4.18163C4.87872 2.99678 5.78478 2.09072 6.96963 2.09072C7.38781 2.09072 7.6666 1.81193 7.6666 1.39375C7.6666 0.975565 7.38781 0.696777 6.96963 0.696777C5.85448 0.696777 4.80902 1.25435 4.18175 2.09072C3.55448 1.25435 2.50902 0.696777 1.39387 0.696777C0.975687 0.696777 0.696899 0.975565 0.696899 1.39375C0.696899 1.74223 0.975687 2.09072 1.39387 2.09072Z" fill="#1BADC4"/>
<path d="M23.0696 8.36327C23.0696 8.78145 23.3484 9.06024 23.7666 9.06024C24.1848 9.06024 24.4636 8.78145 24.4636 8.36327C24.4636 7.17842 25.3696 6.27236 26.5545 6.27236C26.9726 6.27236 27.2514 5.99357 27.2514 5.57539C27.2514 5.15721 26.9726 4.87842 26.5545 4.87842C25.4393 4.87842 24.3939 5.43599 23.7666 6.27236C23.1393 5.43599 22.0939 4.87842 20.9787 4.87842C20.5605 4.87842 20.2817 5.15721 20.2817 5.57539C20.2817 5.99357 20.5605 6.27236 20.9787 6.27236C22.1636 6.27236 23.0696 7.17842 23.0696 8.36327Z" fill="#1BADC4"/>
</g>
<defs>
<clipPath id="clip0_85_6503">
<rect width="46" height="46" fill="white"/>
</clipPath>
</defs>
</svg>
