<svg width="56" height="56" viewBox="0 0 56 56" fill="none" xmlns="http://www.w3.org/2000/svg">
<path d="M8.48237 9.30547C8.15295 9.71723 8.0706 10.2114 8.23531 10.7878C8.40001 11.1996 8.56472 11.529 8.81178 11.7761C9.71766 12.929 10.5412 12.1055 10.953 12.0231C11.1177 12.4349 11.2 13.5878 12.4353 14.1643C14.1647 14.9878 14.4118 13.4231 23.6353 11.0349C24.2118 10.8702 24.7059 10.4584 25.0353 9.96429C25.3647 9.38782 25.3647 8.81135 25.2 8.15253L25.1177 7.82312V7.74076L26.0235 7.329C26.2706 7.24665 26.4353 6.91723 26.353 6.67018C26.2706 6.0937 26.1882 5.59959 26.0235 5.02312C25.9412 4.77606 25.8588 4.44665 25.5294 4.11723C25.2 3.87018 24.6235 3.78782 24.1294 4.03488C23.9647 4.11723 23.8824 4.11723 23.8 4.19959C23.7177 4.03488 23.7177 3.95253 23.6353 3.78782C23.2235 2.79959 22.0706 2.22312 21 2.55253C17.7882 3.45841 14.4941 4.36429 11.2824 5.27018C10.7059 5.43488 10.2118 5.84665 9.96472 6.34076C9.38825 7.41135 9.88237 8.31723 9.96472 8.56429C9.88237 8.56429 9.80001 8.64665 9.63531 8.64665C9.22354 8.81135 8.81178 8.8937 8.48237 9.30547ZM24.3765 5.27018C24.4588 5.27018 24.5412 5.18782 24.6235 5.18782C24.7059 5.18782 24.7059 5.18782 24.7059 5.10547C24.7059 5.10547 24.7059 5.18782 24.7882 5.27018C24.8706 5.59959 24.953 5.929 25.0353 6.34076L24.7059 6.50547C24.5412 6.0937 24.4588 5.76429 24.2941 5.35253C24.2941 5.35253 24.2941 5.35253 24.3765 5.27018ZM11.5294 6.50547C12.0235 6.34076 12.4353 6.25841 12.9294 6.0937L13.0118 6.17606C14.3294 7.08194 15.2353 8.48194 15.4 10.0466C15.4 10.3761 15.7294 10.6231 15.9765 10.6231C16.3882 10.6231 16.6353 10.2937 16.553 9.96429C16.3059 8.31723 15.4824 6.83488 14.2471 5.68194C15.6471 5.27018 16.9647 4.94076 18.2 4.61135C18.7765 5.18782 19.1882 6.0937 19.1059 6.99959C19.1059 7.329 19.353 7.65841 19.6824 7.65841C20.0118 7.65841 20.3412 7.41135 20.3412 7.08194C20.4235 6.0937 20.0941 5.10547 19.5177 4.28194C20.0941 4.11723 20.6706 3.95253 21.2471 3.78782C21.7412 3.62312 22.2353 3.87018 22.4824 4.36429C23.0588 5.59959 23.3882 6.83488 23.8824 8.15253L23.9647 8.48194C24.0471 8.729 24.0471 9.05841 23.8824 9.30547C23.7177 9.55253 23.553 9.71723 23.2235 9.79959C19.8471 10.7055 16.6353 11.7761 13.6706 13.0114C13.0941 13.2584 12.5177 12.929 12.353 12.3525L10.953 7.74076C10.7059 7.24665 11.0353 6.67018 11.5294 6.50547ZM10.5412 10.7878L9.88237 11.1172C9.71766 10.8702 9.22354 10.2937 9.4706 10.0466C9.55295 9.96429 9.96472 9.88194 10.2941 9.79959L10.5412 10.7878Z" fill="#1BADC4"/>
<path d="M43.8117 7.90569C41.1764 5.76451 38.5411 3.62333 35.9059 1.56451C35.4117 1.15275 34.8353 0.98804 34.2588 1.07039C33.0235 1.2351 32.6117 2.14098 32.447 2.30569C32.1176 2.22333 31.7882 1.72922 31.1294 1.64686C30.6353 1.56451 30.1411 1.89392 29.8117 2.30569C29.5647 2.6351 29.4 3.04686 29.3176 3.37628C29.2353 3.62333 29.0706 4.0351 29.3176 4.44686C29.4823 4.77628 29.7294 4.85863 30.3059 5.18804C30.1411 5.51745 29.1529 6.25863 29.4 7.57628C29.4823 8.2351 29.8941 8.72922 30.3882 9.05863C33.1059 10.7057 35.8235 12.6822 38.4588 14.8233C39.447 15.6469 40.9294 15.4822 41.6706 14.4116C42 13.9175 41.9176 14.0822 41.9176 14.0822L42.8235 14.5763C43.0706 14.741 43.3176 14.6586 43.5647 14.4939C43.9764 14.0822 44.3059 13.6704 44.7176 13.2586C44.8823 13.0939 45.1294 12.7645 45.1294 12.3527C45.1294 11.8586 44.8823 11.4469 44.3882 11.1998C44.3059 11.1175 44.2235 11.1175 44.0588 11.0351C44.1411 10.9527 44.2235 10.788 44.3059 10.7057C44.9647 9.88216 44.7176 8.64686 43.8117 7.90569ZM30.4706 3.87039C30.5529 3.62333 30.6353 3.29392 30.8 3.04686C31.047 2.6351 31.2117 2.96451 31.7882 3.37628L31.1294 4.19981C31.047 4.19981 30.4706 3.87039 30.4706 3.87039ZM40.1059 14.1645C39.8588 14.1645 39.5294 14.0822 39.3647 13.9175C36.647 11.6939 33.9294 9.71745 31.1294 7.98804C30.6353 7.74098 30.4706 7.08216 30.8823 6.58804L33.7647 2.79981C33.9294 2.55275 34.1764 2.47039 34.4235 2.38804C35 2.30569 35.247 2.6351 36.3176 3.45863V3.54098C36.2353 4.44686 35.8235 5.35275 35.1647 5.92922C34.7529 6.34098 35 6.9998 35.5764 6.9998C35.7411 6.9998 35.9059 6.91745 35.9882 6.8351C36.7294 6.17628 37.2235 5.27039 37.3882 4.36451C38.3764 5.10569 39.2823 5.92922 40.2706 6.67039C40.1882 6.75275 40.1882 6.8351 40.1882 6.91745C40.1059 7.65863 39.7764 8.39981 39.2823 8.89392C38.8706 9.30569 39.2 9.96451 39.6941 9.96451C39.8588 9.96451 40.0235 9.88216 40.1059 9.79981C40.6823 9.14098 41.0941 8.39981 41.2588 7.57628C41.8353 8.07039 42.4117 8.48216 42.9882 8.97628C43.4 9.30569 43.4823 9.88216 43.2353 10.2939C42.4941 11.4469 41.7529 12.5175 40.9294 13.6704C40.847 13.6704 40.6823 14.0822 40.1059 14.1645ZM43.8117 12.3527C43.8941 12.3527 43.8941 12.4351 43.8941 12.4351C43.8117 12.5998 43.2353 13.2586 43.0706 13.341L42.7411 13.1763C42.9882 12.8469 43.2353 12.5175 43.4823 12.188C43.7294 12.3527 43.8117 12.3527 43.8117 12.3527Z" fill="#1BADC4"/>
<path d="M15.7294 20.6702C15.4823 19.2702 14.247 18.3643 12.847 18.529C11.7764 18.6937 10.8705 19.4349 10.6235 20.6702C10.1294 22.1526 10.2117 21.4937 14.9882 52.8702C15.0705 53.3643 15.1529 53.9408 15.4823 54.2702C15.8117 54.5996 16.3058 54.5996 16.6353 54.3526C17.7058 54.1879 18.7764 54.1055 19.847 54.1055C20.2588 54.1055 20.5058 53.7761 20.5058 53.4467C19.4353 43.2349 17.2117 30.7996 15.7294 20.6702ZM16.5529 53.0349L11.8588 21.2467C11.7764 20.9173 11.9411 20.5879 12.1058 20.2585C12.847 19.3526 14.3294 19.7643 14.4941 20.8349C15.9764 30.7173 18.1176 42.9055 19.1882 52.7879C18.2823 52.7879 17.3764 52.9526 16.5529 53.0349Z" fill="#2A3D46"/>
<path d="M27.1765 14.6588C26.6824 15.5647 26.7648 16.0588 26.0236 23.0588C22.4001 23.5529 19.7648 27.0118 20.5883 30.7176C20.753 33.0235 22.2353 35.247 24.6236 36.0706C24.2942 39.7765 24.0471 43.5647 23.7177 47.2706C23.2236 53.0353 23.2236 52.8706 23.3059 53.2823C23.3883 53.6118 23.7177 53.8588 23.9648 54.0235C24.2118 54.4353 24.6236 54.3529 24.7883 54.3529C25.9412 54.4353 27.0942 54.5176 28.1648 54.847C28.5765 54.9294 28.9059 54.6823 28.9883 54.3529C29.5648 48.8353 30.1412 42.2471 30.7177 34.9176C31.3765 34.3412 31.8706 33.6823 32.2 32.9412C32.8589 31.8706 33.2706 30.6353 33.2706 29.4C33.2706 27.7529 32.6118 26.1059 31.4589 24.9529C31.7059 21.7412 31.8706 18.6118 32.1177 15.8941C32.2001 14.1647 30.9648 12.847 29.5648 12.847C28.4942 12.7647 27.5883 13.5059 27.1765 14.6588ZM26.8471 24.2118C29.153 24.2941 30.3059 25.5294 30.3883 25.6118C30.553 25.7765 30.9648 26.1059 31.3765 26.847C27.5883 26.2706 23.9648 28.0823 22.0706 31.3765C20.5883 27.9176 23.2236 24.2118 26.8471 24.2118ZM32.0353 29.3176C32.0353 34.2588 25.7765 36.4 22.7295 32.5294C22.8118 32.4471 22.8942 32.4471 22.8942 32.2823C24.5412 29.0706 28.0824 27.3412 31.6236 28.0823H31.7883C32.0353 28.4941 32.0353 28.9059 32.0353 29.3176ZM27.8353 53.447C26.9295 53.2823 26.0236 53.1176 25.2001 53.1176L26.5177 36.3176C27.5059 36.3176 28.4942 36.1529 29.4001 35.7412C28.9059 42.4118 28.4118 48.3412 27.8353 53.447ZM30.8824 15.7294C30.7177 18.5294 30.4706 21.4118 30.3059 23.9647C29.4824 23.4706 28.5765 23.1412 27.5883 22.9765L28.1648 15.5647C28.2471 14.7412 28.8236 14 29.5648 14C29.6471 14 29.7295 14 29.6471 14C30.3883 14.0823 30.9648 14.8235 30.8824 15.7294Z" fill="#2A3D46"/>
<path d="M45.7883 15.2352C44.8824 14.6587 43.5648 14.9058 42.7412 16.3882C42.2471 17.294 42.0824 18.3646 41.753 19.3529C40.8471 21.9058 44.1412 12.2705 34.4236 41.0117C33.2707 44.3882 32.1177 47.7646 30.9648 51.1411C30.7177 51.8823 30.8001 52.6234 31.4589 52.5411L31.7883 52.6235C35.4942 53.9411 34.753 54.1058 35.2471 54.1058C35.4942 54.1058 35.7412 53.9411 35.8236 53.694C39.9412 42.494 44.0589 29.9764 47.6824 18.9411C48.2589 17.1293 47.353 15.4823 45.7883 15.2352ZM46.5295 18.447C42.9883 29.2352 38.953 41.5058 34.9177 52.4587C34.0942 52.047 33.2707 51.7176 32.4471 51.4705L43.9765 17.6234C44.2236 16.8823 45.0471 16.2234 45.7883 16.4705C46.4471 16.7176 46.7765 17.6234 46.5295 18.447Z" fill="#2A3D46"/>
<path d="M20.9177 21.3291C21.1647 21.082 21.0824 20.6703 20.8353 20.4232L19.4353 19.2703C19.1882 19.0232 18.7765 19.1056 18.5294 19.3526C18.2824 19.5997 18.3647 20.0114 18.6118 20.2585L20.0118 21.4114C20.3412 21.6585 20.753 21.5761 20.9177 21.3291Z" fill="#1BADC4"/>
<path d="M22.8117 20.5059C23.1411 20.4235 23.3059 20.0941 23.2235 19.7647L22.5647 17.5411C22.4823 17.2117 22.1529 17.047 21.8235 17.1294C21.4941 17.2117 21.3294 17.5412 21.4117 17.8706L22.0706 20.0941C22.1529 20.4235 22.4823 20.5882 22.8117 20.5059Z" fill="#1BADC4"/>
<path d="M25.2823 19.5177L25.447 18.3647C25.5294 18.0353 25.2823 17.7059 24.9529 17.7059C24.6235 17.6235 24.2941 17.8706 24.2941 18.2L24.1294 19.353C24.047 19.6824 24.2941 20.0118 24.6235 20.0118C24.9529 20.0941 25.2823 19.8471 25.2823 19.5177Z" fill="#1BADC4"/>
</svg>
