<svg width="54" height="54" viewBox="0 0 54 54" fill="none" xmlns="http://www.w3.org/2000/svg">
<path d="M43.0313 29.5312C41.7503 29.5322 40.4813 29.7779 39.2926 30.2552C38.9883 28.8815 38.8288 27.4797 38.8167 26.0727C39.1582 26.1258 39.5031 26.154 39.8486 26.1571C40.3967 26.1573 40.9275 25.965 41.3483 25.6138C41.769 25.2625 42.0531 24.7747 42.1509 24.2354C42.2486 23.6961 42.1539 23.1395 41.8831 22.663C41.6124 22.1864 41.1829 21.82 40.6696 21.6278L35.4375 19.6653V19.4062C35.6613 19.4062 35.8759 19.3174 36.0341 19.1591C36.1924 19.0009 36.2813 18.7863 36.2813 18.5625V15.1875C36.2813 15.1149 36.2728 15.0441 36.2703 14.9723C36.6569 15.1103 37.0638 15.183 37.4743 15.1875C38.0335 15.1893 38.582 15.0345 39.0577 14.7406C39.5335 14.4467 39.9173 14.0254 40.1659 13.5245L40.4114 13.0334C40.4698 12.9163 40.5001 12.7871 40.5 12.6562V12.0116L40.7177 11.5771L40.9092 11.6918C41.0372 11.7688 41.1834 11.8103 41.3327 11.8123C41.482 11.8142 41.6292 11.7765 41.7592 11.703C41.8892 11.6295 41.9973 11.5227 42.0726 11.3937C42.1478 11.2647 42.1875 11.1181 42.1875 10.9688V10.125C42.1855 8.55918 41.5626 7.05807 40.4554 5.95087C39.3482 4.84367 37.8471 4.22076 36.2813 4.21875H36.0526C35.6245 4.21969 35.205 4.33971 34.8412 4.56539C34.4774 4.79107 34.1835 5.11351 33.9925 5.49665C33.8015 5.87979 33.7208 6.30853 33.7594 6.73491C33.7981 7.16128 33.9547 7.5685 34.2115 7.911L32.9113 9.86175C32.12 9.48093 31.2532 9.28255 30.375 9.28125C26.9071 9.27892 23.5167 10.3068 20.6339 12.2344L17.2589 14.4821C16.3619 15.0795 15.6263 15.8892 15.1177 16.8394C14.6092 17.7896 14.3433 18.8508 14.3438 19.9285C14.3438 21.949 14.9049 23.9297 15.9646 25.65L18.1929 29.2781L16.6101 31.2567C14.7657 30.0167 12.5646 29.4179 10.3463 29.5528C8.12796 29.6876 6.01562 30.5486 4.33509 32.003C2.65456 33.4573 1.49922 35.4241 1.04727 37.6001C0.59532 39.7761 0.871876 42.0404 1.83428 44.0436C2.79668 46.0469 4.39146 47.6778 6.37262 48.6849C8.35379 49.692 10.6113 50.0193 12.7969 49.6162C14.9824 49.2132 16.9747 48.1023 18.4664 46.4548C19.958 44.8073 20.8661 42.7148 21.0507 40.5H21.6101L21.9375 44.7837C21.9539 44.996 22.05 45.1943 22.2065 45.3388C22.363 45.4832 22.5683 45.5631 22.7813 45.5625H28.6875C28.9113 45.5625 29.1259 45.4736 29.2841 45.3154C29.4424 45.1571 29.5313 44.9425 29.5313 44.7188V43.875C29.5305 43.127 29.2816 42.4003 28.8235 41.8089C28.3655 41.2175 27.7241 40.7949 27 40.6072V38.1004L37.4929 29.9388C37.5612 30.3092 37.654 30.6737 37.7409 31.0357C35.6647 32.3163 34.1218 34.3049 33.3971 36.6342C32.6724 38.9635 32.8149 41.4764 33.7981 43.7089C34.7814 45.9414 36.5391 47.7429 38.7468 48.7807C40.9545 49.8185 43.4632 50.0227 45.8096 49.3554C48.156 48.6881 50.1819 47.1946 51.5131 45.1504C52.8444 43.1062 53.3912 40.6494 53.0526 38.2335C52.7141 35.8177 51.5129 33.6059 49.671 32.0064C47.8291 30.4069 45.4707 29.5278 43.0313 29.5312ZM22.9222 21.303L23.463 20.7613L24.7016 21.6894L23.5862 23.0285L22.9222 21.303ZM25.4382 27.8438H25.8069L25.5403 28.1104L25.4382 27.8438ZM24.7885 26.1562L24.2823 24.8324L26.0542 22.7036L27.0743 23.4689C27.2767 23.6196 27.4474 23.8089 27.5763 24.0258C27.7052 24.2428 27.7898 24.4832 27.8252 24.7331C27.8607 24.9829 27.8463 25.2374 27.7829 25.4816C27.7194 25.7259 27.6082 25.9552 27.4556 26.1562H24.7885ZM28.0859 22.1197L24.6932 19.575C25.9276 18.4397 27.3917 17.5831 28.9862 17.0632L29.5768 18.8283C29.6325 18.9961 29.7395 19.1422 29.8828 19.2459C30.026 19.3496 30.1982 19.4057 30.375 19.4062V22.7812C30.3751 22.9583 30.4309 23.1308 30.5345 23.2743C30.6381 23.4179 30.7842 23.5252 30.9521 23.5811L37.125 25.639V25.9706C37.125 26.0331 37.1326 26.0938 37.1334 26.1562H29.3296C29.4588 25.7876 29.5269 25.4002 29.5313 25.0096C29.53 24.449 29.3988 23.8963 29.148 23.3949C28.8973 22.8935 28.5337 22.457 28.0859 22.1197ZM34.2976 21.0406L40.0773 23.2073C40.2233 23.2588 40.3462 23.3605 40.424 23.4943C40.5017 23.6281 40.5294 23.7852 40.5018 23.9375C40.4743 24.0898 40.3935 24.2273 40.2738 24.3255C40.1541 24.4236 40.0034 24.4759 39.8486 24.473C39.253 24.4734 38.6611 24.3774 38.0962 24.1886L32.0625 22.1729V19.4062H33.75V20.25C33.7499 20.4219 33.8023 20.5897 33.9001 20.731C33.998 20.8722 34.1367 20.9803 34.2976 21.0406ZM35.6198 8.84166C36.0079 8.98088 36.3926 9.12684 36.7664 9.29981C36.0977 9.65684 35.405 9.96697 34.6933 10.2279L35.6198 8.84166ZM38.9011 11.4353C38.8427 11.5525 38.8124 11.6816 38.8125 11.8125V12.4571L38.6556 12.7702C38.5467 12.9901 38.3782 13.1751 38.1694 13.3041C37.9606 13.4332 37.7198 13.501 37.4743 13.5C37.2067 13.5007 36.9417 13.4483 36.6945 13.3459C36.4473 13.2435 36.2228 13.0931 36.034 12.9035C35.9479 12.8187 35.8442 12.7539 35.7303 12.7136C35.5888 12.4055 35.4208 12.1102 35.2283 11.8311C36.369 11.4142 37.4647 10.883 38.4986 10.2457L39.2656 10.7063L38.9011 11.4353ZM36.0526 5.90625H36.2813C37.2828 5.9077 38.2512 6.26476 39.014 6.91379C39.7768 7.56282 40.2843 8.46163 40.446 9.45L38.9273 8.53959C37.9642 7.9623 36.9412 7.49153 35.8763 7.13559C35.7474 7.09299 35.6355 7.01052 35.5566 6.9001C35.4777 6.78968 35.436 6.65703 35.4375 6.52134C35.4377 6.35828 35.5026 6.20196 35.6179 6.08665C35.7332 5.97135 35.8895 5.90647 36.0526 5.90625ZM21.5688 13.635C24.1753 11.8937 27.2403 10.9657 30.375 10.9688C31.4935 10.9701 32.5658 11.415 33.3566 12.2059C34.1475 12.9968 34.5924 14.069 34.5938 15.1875V17.7188H30.9834L30.3311 15.7646C30.2639 15.5632 30.1232 15.3945 29.9371 15.2922C29.751 15.1899 29.5332 15.1616 29.3271 15.2128C26.9704 15.8019 24.818 17.0204 23.1002 18.738L21.8675 19.9707L17.4344 16.5223C17.6651 16.2839 17.9196 16.0696 18.1938 15.8827L21.5688 13.635ZM16.0313 19.9285C16.0337 19.2334 16.1853 18.5469 16.4759 17.9153L21.2338 21.6152L22.6302 25.2433C21.3794 25.9533 20.0216 26.4554 18.6098 26.73L17.4015 24.7666C16.5057 23.3119 16.0313 21.637 16.0313 19.9285ZM10.9688 48.0938C9.65528 48.0961 8.35939 47.7918 7.18426 47.205C6.00914 46.6182 4.98724 45.7652 4.19992 44.7138C3.41261 43.6624 2.88162 42.4418 2.64924 41.149C2.41686 39.8563 2.48951 38.5271 2.86139 37.2674C3.23327 36.0076 3.89413 34.8521 4.79134 33.8928C5.68854 32.9335 6.79732 32.1969 8.0294 31.7417C9.26147 31.2865 10.5828 31.1252 11.8882 31.2707C13.1936 31.4162 14.447 31.8644 15.5486 32.5797L15.0188 33.2438C13.6256 32.3652 11.9843 31.9638 10.3429 32.1002C8.70146 32.2366 7.14899 32.9034 5.91993 33.9999C4.69087 35.0964 3.85197 36.563 3.52992 38.1783C3.20787 39.7936 3.42015 41.4698 4.13472 42.9539C4.84929 44.4379 6.02733 45.6491 7.49094 46.4045C8.95455 47.16 10.6242 47.4188 12.2478 47.1417C13.8715 46.8646 15.3608 46.0667 16.491 44.8685C17.6212 43.6704 18.3308 42.137 18.5127 40.5H19.3632C19.1517 42.5801 18.1763 44.5079 16.6258 45.9106C15.0752 47.3133 13.0596 48.0911 10.9688 48.0938ZM19.3632 38.8125H18.5127C18.3225 37.103 17.5559 35.5092 16.3392 34.2934L16.8674 33.6336C18.2815 35.0133 19.1651 36.8467 19.3632 38.8125ZM10.2094 40.0224C10.2782 40.1654 10.386 40.286 10.5203 40.3705C10.6547 40.455 10.8101 40.4999 10.9688 40.5H16.8075C16.6285 41.7561 16.0504 42.9213 15.1585 43.8237C14.2667 44.7261 13.1083 45.3178 11.8545 45.5115C10.6006 45.7053 9.31765 45.4907 8.19502 44.8996C7.0724 44.3085 6.16957 43.3721 5.61981 42.2286C5.07005 41.0852 4.90248 39.7953 5.14185 38.5493C5.38122 37.3033 6.01484 36.1674 6.94918 35.309C7.88352 34.4507 9.06906 33.9155 10.3308 33.7825C11.5926 33.6494 12.8637 33.9256 13.9565 34.5701L10.3098 39.1264C10.21 39.2509 10.1476 39.4013 10.1299 39.5599C10.1121 39.7185 10.1397 39.8789 10.2094 40.0224ZM12.7238 38.8125L15.2719 35.6257C16.0987 36.5052 16.6348 37.6178 16.8075 38.8125H12.7238ZM21.0507 38.8125C20.8436 36.3355 19.7295 34.022 17.9221 32.3156L19.1329 30.8019L21.1115 34.0183L21.481 38.8125H21.0507ZM27.8438 43.875H23.5626L22.7813 33.685C22.7706 33.5515 22.7287 33.4223 22.6589 33.3079L19.5531 28.2606C20.8411 27.9512 22.0822 27.4717 23.2436 26.8346L25.3125 32.2194V41.3438C25.3125 41.5675 25.4014 41.7821 25.5596 41.9404C25.7179 42.0986 25.9325 42.1875 26.1563 42.1875C26.6038 42.1875 27.033 42.3653 27.3495 42.6818C27.666 42.9982 27.8438 43.4274 27.8438 43.875ZM27 35.9623V32.0625C27.0002 31.959 26.9813 31.8563 26.9443 31.7596L26.2035 29.8333L28.1931 27.8438H37.2094C37.2144 27.8994 37.2203 27.9543 37.2254 28.0125L27 35.9623ZM43.0313 48.0938C41.2355 48.0935 39.4868 47.52 38.0397 46.4566C36.5926 45.3933 35.5229 43.8958 34.9862 42.1821C34.4495 40.4685 34.4739 38.6282 35.0559 36.9294C35.6379 35.2306 36.7471 33.762 38.2219 32.7375C38.3139 33.0202 38.3906 33.3062 38.4953 33.5812C36.9586 34.7397 35.9231 36.442 35.6012 38.3393C35.2792 40.2366 35.6951 42.1852 36.7635 43.7858C37.832 45.3863 39.4722 46.5176 41.3479 46.9478C43.2236 47.378 45.1929 47.0745 46.852 46.0995C48.5112 45.1245 49.7346 43.5519 50.2716 41.7039C50.8086 39.8559 50.6185 37.8726 49.7402 36.1602C48.8619 34.4479 47.362 33.1363 45.5478 32.4943C43.7337 31.8523 41.7426 31.9284 39.9828 32.7071C39.8883 32.4397 39.8064 32.168 39.7229 31.8971C40.8741 31.4053 42.1202 31.1759 43.371 31.2253C44.6219 31.2748 45.846 31.602 46.9547 32.1831C48.0634 32.7643 49.029 33.5848 49.7813 34.5853C50.5336 35.5858 51.0539 36.7412 51.3044 37.9677C51.555 39.1941 51.5294 40.461 51.2297 41.6764C50.93 42.8918 50.3636 44.0252 49.5716 44.9946C48.7796 45.964 47.7818 46.745 46.6506 47.2811C45.5194 47.8171 44.2831 48.0947 43.0313 48.0938ZM40.6139 34.2731C41.9792 33.6567 43.5273 33.5801 44.9469 34.0586C46.3664 34.5371 47.5522 35.5353 48.2657 36.8525C48.9793 38.1697 49.1677 39.7082 48.7931 41.1586C48.4185 42.609 47.5086 43.8639 46.2465 44.6708C44.9844 45.4778 43.4636 45.7769 41.9898 45.5082C40.5161 45.2395 39.1987 44.4228 38.3026 43.2223C37.4065 42.0219 36.9981 40.5267 37.1596 39.0374C37.321 37.5481 38.0403 36.1751 39.1728 35.1945C40.0117 37.0036 41.0945 38.6894 42.3909 40.2047L43.6717 39.1078C42.4277 37.6498 41.3981 36.0219 40.6139 34.2731Z" fill="#2A3D46"/>
<path d="M21.0938 7.59375H10.9688V9.28125H21.0938V7.59375Z" fill="#1BADC4"/>
<path d="M14.3438 10.9688H5.90625V12.6562H14.3438V10.9688Z" fill="#1BADC4"/>
<path d="M11.8125 23.625H0.84375V25.3125H11.8125V23.625Z" fill="#1BADC4"/>
<path d="M5.90625 20.25H0.84375V21.9375H5.90625V20.25Z" fill="#1BADC4"/>
</svg>
