<svg width="56" height="56" viewBox="0 0 56 56" fill="none" xmlns="http://www.w3.org/2000/svg">
<path d="M55.9967 29.7741C55.932 26.6973 54.9319 23.7723 53.1046 21.3156C52.1774 20.0681 51.0568 18.9776 49.7737 18.074C48.4902 17.1703 47.0856 16.4827 45.5988 16.0303C42.6689 15.1383 39.578 15.1828 36.6606 16.1591C33.6796 17.1563 31.1445 19.0458 29.3295 21.6235C29.115 21.9281 28.9111 22.2421 28.723 22.5568C27.3071 24.926 26.5926 27.638 26.6569 30.399C26.7322 33.6831 27.9191 36.8804 29.9987 39.4014C30.8301 40.4103 31.7992 41.3072 32.8788 42.0676C33.9586 42.8279 35.1297 43.4376 36.3589 43.8802C37.9511 44.4541 39.6331 44.7416 41.3178 44.7416C42.8868 44.7416 44.4583 44.4922 45.9616 43.9926C48.5819 43.1226 50.8942 41.5363 52.6486 39.4044C52.8821 39.1205 53.1091 38.8223 53.3231 38.5183L53.323 38.5184C55.138 35.9403 56.0627 32.9169 55.9967 29.7741ZM48.8043 19.4503C49.4722 19.9207 50.0887 20.4495 50.6514 21.0283C49.669 21.002 48.6969 20.8862 47.9278 20.6953C47.4885 20.0352 47.0518 19.1589 46.6958 18.243C47.4305 18.5777 48.1362 18.9799 48.8043 19.4503ZM37.6795 17.6038C38.8789 17.2526 40.1069 17.0764 41.3345 17.0764C42.454 17.0764 43.5732 17.2231 44.6698 17.5159C45.079 18.9044 45.7136 20.3418 46.3902 21.4166L44.558 24.0187C42.5956 23.582 39.7773 23.5311 37.8601 24.1L36.1926 22.1215C36.8542 20.852 37.4124 19.1578 37.6795 17.6038ZM46.4424 31.6216C45.449 32.8868 43.1103 34.7334 41.395 35.4118C39.3727 34.7572 37.5707 33.488 36.2731 31.8046C36.3198 29.9584 37.1319 27.3323 38.1383 25.7774C39.7492 25.2216 42.6451 25.2776 44.3967 25.7097C45.3935 27.2121 46.4217 29.9173 46.4424 31.6216ZM35.8122 18.3079C35.5222 19.4772 35.0825 20.66 34.5998 21.531C33.6064 21.8669 32.2809 22.0933 31.0257 22.1575C32.3013 20.4936 33.932 19.1849 35.8122 18.3079ZM30.3453 37.0133C29.3817 35.4848 28.7433 33.7591 28.4772 31.9649C29.3639 32.5765 30.2034 33.2863 30.7853 33.9316C30.7787 34.8264 30.6147 35.944 30.3453 37.0133ZM28.3377 29.8842C28.3658 27.772 28.9085 25.7057 29.9208 23.8536C30.0507 23.8573 30.1814 23.8604 30.3143 23.8604C31.8514 23.8604 33.5696 23.6152 34.9017 23.202L36.5455 25.1523C35.4946 26.9143 34.7081 29.4816 34.601 31.5096L31.8572 32.6124C30.9424 31.651 29.6259 30.6297 28.3377 29.8842ZM33.848 40.6911C33.0217 40.1094 32.2694 39.4371 31.6053 38.6893C32.0984 37.2414 32.4196 35.5506 32.4633 34.1829L35.1559 33.1008C36.5689 34.8294 38.4492 36.1534 40.5529 36.9011L40.4416 39.8006C39.1684 40.3027 37.6848 41.1751 36.4878 42.1274C35.5605 41.7546 34.6742 41.273 33.848 40.6911ZM38.4906 42.7488C39.4063 42.135 40.4034 41.6038 41.2437 41.2958C42.0475 41.6262 42.9991 42.1774 43.8739 42.8063C42.0948 43.1605 40.2548 43.141 38.4906 42.7488ZM45.8798 42.2364C44.7436 41.2746 43.3383 40.3794 42.1248 39.842L42.2383 36.8829C44.1137 36.0721 46.3658 34.303 47.5595 32.9105L49.9586 33.804C50.0238 35.3178 50.4296 37.1921 51.0236 38.7133C49.6207 40.2906 47.8583 41.4981 45.8798 42.2364ZM50.5401 32.2243L48.1154 31.3213C48.0049 29.3243 47.007 26.6882 45.9345 24.9878L47.7665 22.3859C48.7398 22.6015 49.9148 22.7181 51.0747 22.7181C51.3921 22.7181 51.7079 22.7085 52.0184 22.6907C53.3713 24.6479 54.1521 26.9152 54.2933 29.3014C52.9202 30.0762 51.5127 31.173 50.5401 32.2243ZM52.248 37.1014C51.8853 35.8973 51.6514 34.5729 51.6328 33.5249C52.2906 32.7763 53.2563 31.9635 54.2597 31.2966C54.0677 33.3627 53.385 35.3393 52.248 37.1014Z" fill="#1BADC4"/>
<path d="M27.4248 16.1886C27.531 16.233 27.6411 16.254 27.7494 16.254C28.0785 16.254 28.3912 16.0598 28.5262 15.737L34.6231 1.16674C34.8026 0.737879 34.6003 0.244816 34.1716 0.0654413C33.743 -0.113934 33.2497 0.0880819 33.0702 0.516941L30.4438 6.79332L16.9561 3.51907L17.5084 1.024C17.6089 0.570207 17.3225 0.120785 16.8686 0.0202695C16.4151 -0.0802461 15.9654 0.206316 15.865 0.660223L11.4207 20.7336C11.2364 20.7203 11.0505 20.7664 10.8933 20.8714L4.46338 25.158C4.41405 25.1899 4.36702 25.2271 4.32381 25.2704L3.03559 26.5586C3.0345 26.5597 3.03363 26.561 3.03242 26.5621L0.246422 29.3479C0.0887031 29.5057 0 29.7197 0 29.943C0 30.1662 0.0887031 30.3804 0.246422 30.5381L1.33219 31.6238L0.315875 32.6402C-0.0129063 32.9688 -0.0129063 33.5017 0.315766 33.8304C0.480156 33.9948 0.695516 34.0769 0.910984 34.0769C1.12634 34.0769 1.34181 33.9948 1.50609 33.8304L2.52252 32.8141L5.81087 36.1024L4.79456 37.1187C4.46589 37.4474 4.46589 37.9804 4.79456 38.309C4.95895 38.4732 5.17442 38.5555 5.38978 38.5555C5.60514 38.5555 5.82061 38.4733 5.985 38.309L7.00131 37.2926L10.2897 40.581L9.27336 41.5972C8.94458 41.9259 8.94458 42.4588 9.27325 42.7874C9.43764 42.9518 9.653 43.034 9.86847 43.034C10.0838 43.034 10.2993 42.9518 10.4636 42.7874L11.4799 41.7711L14.7681 45.0594L13.7518 46.0757C13.4232 46.4043 13.4232 46.9373 13.7519 47.266C13.9162 47.4303 14.1317 47.5124 14.347 47.5124C14.5624 47.5124 14.7779 47.4303 14.9423 47.2659L15.9585 46.2496L18.1744 48.4655C18.3272 48.6183 18.7179 49.0021 19.2788 49.5056L18.2303 50.554C17.9016 50.8827 17.9016 51.4157 18.2303 51.7443C18.3947 51.9085 18.6102 51.9908 18.8255 51.9908C19.0409 51.9908 19.2563 51.9086 19.4207 51.7443L20.5624 50.6026C21.5774 51.4279 22.8233 52.3412 24.1379 53.0736L23.6982 53.7467C23.4439 54.1358 23.5532 54.6573 23.9424 54.9116C24.0846 55.0045 24.2441 55.0488 24.4021 55.0488C24.6768 55.0488 24.946 54.9145 25.1075 54.6673L25.6627 53.8175C26.6375 54.2202 27.6154 54.4732 28.5344 54.473C29.1152 54.4729 29.673 54.3719 30.1907 54.1434C30.2859 54.1013 30.3726 54.042 30.4461 53.9684L32.2713 52.1434C32.2905 52.1241 32.3089 52.1039 32.3262 52.0828C32.4347 51.9509 32.969 51.2249 32.8354 49.8826C32.6233 47.7575 30.8805 45.3274 27.6535 42.6574L27.2442 41.3616C27.1043 40.9184 26.6314 40.6726 26.1882 40.8125C25.7449 40.9525 25.499 41.4254 25.639 41.8687L26.1235 43.4027C26.1728 43.5592 26.2668 43.6978 26.3942 43.8015C30.1358 46.8523 31.0239 48.8814 31.1503 49.9959C28.6494 49.8841 24.8432 47.1759 22.1536 44.4863L11.5899 33.9227C11.2611 33.594 10.7283 33.594 10.3996 33.9227C10.0709 34.2514 10.0709 34.7843 10.3996 35.1129L20.9632 45.6766C21.5659 46.2792 26.3577 50.9584 30.4266 51.6073L29.3775 52.6564C28.3266 53.0266 26.6616 52.5966 24.662 51.4341C22.9583 50.4436 20.978 48.8889 19.3644 47.2754L2.03197 29.943L3.63081 28.3442L8.582 33.2955C8.74639 33.4599 8.96175 33.5421 9.17722 33.5421C9.39258 33.5421 9.60805 33.4599 9.77244 33.2955C10.1011 32.9669 10.1011 32.4339 9.77244 32.1053L4.82125 27.154L5.45519 26.5201L10.9165 22.879C11.4632 24.3057 12.6652 26.8809 14.8443 29.06C16.3063 30.5219 18.1665 30.9873 20.2239 30.4063C20.8408 30.232 21.3851 29.9865 21.8132 29.7568L22.6731 32.4789L21.6304 32.6588C21.1724 32.7377 20.865 33.173 20.9441 33.6313C21.0147 34.041 21.3705 34.3301 21.7725 34.3301C21.82 34.3301 21.8682 34.3261 21.9165 34.3178L23.1847 34.099L23.3162 34.5155L22.3179 34.7003C21.8608 34.785 21.5588 35.2241 21.6433 35.6812C21.7184 36.0865 22.0722 36.3698 22.47 36.3698C22.5209 36.3698 22.5725 36.3651 22.6243 36.3556L23.8269 36.1328L23.9573 36.5457L22.908 36.74C22.451 36.8246 22.149 37.2638 22.2335 37.7208C22.3086 38.1261 22.6624 38.4095 23.0602 38.4095C23.111 38.4095 23.1627 38.4048 23.2145 38.3953L24.4681 38.1631L24.9227 39.6022C25.0626 40.0455 25.5359 40.2914 25.9788 40.1514C26.422 40.0113 26.6679 39.5385 26.5279 39.0953L26.1356 37.8531C26.5799 37.7583 26.8708 37.327 26.7876 36.8776C26.7028 36.4205 26.2638 36.1183 25.8066 36.2032L25.625 36.2368L25.4947 35.824L25.5228 35.8188C25.9798 35.7342 26.2818 35.295 26.1973 34.8379C26.1125 34.3809 25.6735 34.079 25.2163 34.1635L24.9839 34.2066L24.8587 33.8104L25.0296 33.7809C25.4877 33.702 25.795 33.2667 25.7159 32.8084C25.6371 32.3503 25.2013 32.0429 24.7435 32.1219L24.347 32.1903L23.1831 28.5056L27.4514 18.3057C27.6309 17.8768 27.4286 17.3838 26.9999 17.2044C26.5707 17.0247 26.0778 17.227 25.8985 17.6559L21.6022 27.923C20.903 28.4053 18.1914 30.0264 16.0349 27.8699C14.3135 26.1485 13.2571 24.1076 12.6934 22.7732L15.5339 9.94343C15.8127 10.0439 16.1456 10.1517 16.5459 10.2707C18.8146 10.9445 22.6486 11.7785 27.9509 12.7515L26.9733 15.0878C26.7939 15.5162 26.996 16.0093 27.4248 16.1886ZM15.901 8.28508L16.5923 5.16297L29.7859 8.36602L28.6161 11.1614C19.724 9.53907 16.8179 8.64613 15.901 8.28508Z" fill="#2A3D46"/>
</svg>
