<svg width="55" height="55" viewBox="0 0 55 55" fill="none" xmlns="http://www.w3.org/2000/svg">
<path d="M26.4397 49.5684C25.9877 49.4803 25.5698 49.7862 25.4922 50.2016C25.3877 50.7031 25.7838 51.1651 26.2819 51.1651C26.7141 51.1651 27.0876 50.8143 27.0876 50.3594C27.0876 49.9948 26.8404 49.6528 26.4397 49.5684Z" fill="#1BADC4"/>
<path d="M29.165 47.9913C29.165 47.6262 28.9158 47.2847 28.5163 47.2016C28.0224 47.1038 27.5537 47.4794 27.5537 47.9913C27.5537 48.4483 27.9276 48.797 28.3594 48.797C28.81 48.797 29.165 48.4273 29.165 47.9913Z" fill="#1BADC4"/>
<path d="M29.207 51.6367C29.6439 51.6367 30.0131 51.2808 30.0131 50.831C30.0131 50.4475 29.7467 50.1198 29.364 50.0404C28.8688 49.9423 28.4014 50.3216 28.4014 50.831C28.4014 51.28 28.7694 51.6367 29.207 51.6367Z" fill="#1BADC4"/>
<path d="M31.2849 49.269C31.7356 49.269 32.0906 48.9002 32.0906 48.4646C32.0906 47.959 31.6278 47.5754 31.1272 47.6736C30.7264 47.7567 30.478 48.102 30.478 48.4646C30.478 48.9018 30.8347 49.269 31.2849 49.269Z" fill="#1BADC4"/>
<path d="M31.2421 45.6246C31.2421 45.2582 30.9924 44.9167 30.5942 44.834C30.1071 44.7362 29.6304 45.108 29.6304 45.6246C29.6304 46.0635 29.9883 46.4307 30.436 46.4307C30.8741 46.4307 31.2421 46.0765 31.2421 45.6246Z" fill="#1BADC4"/>
<path d="M45.7357 40.9285L44.5578 41.2125C44.1252 41.317 43.8592 41.7526 43.9637 42.1852C44.0681 42.6174 44.5037 42.8839 44.9359 42.7794L46.1138 42.4949C47.2069 42.2309 48.3235 42.8276 48.7125 43.8821C49.1535 45.0776 48.4712 46.3872 47.2413 46.7129L43.0086 47.8324C41.6117 48.2025 40.1288 47.5873 39.4037 46.3369L37.7173 43.4281C38.8053 43.6862 39.8774 43.781 41.0805 43.64C41.5223 43.5884 41.8387 43.1877 41.7867 42.7458C41.7351 42.304 41.3348 41.9884 40.8925 42.0396C39.984 42.1462 39.0722 42.0933 38.1822 41.8822L36.6036 41.5084L28.4702 27.4814L30.3891 24.1719C30.7751 24.2441 31.1578 24.2219 31.5166 24.117C31.5166 24.1165 31.5166 24.1165 31.5166 24.1165C32.0902 23.9478 32.6076 23.5597 32.9261 23.01C33.4162 22.1649 43.3846 4.97407 44.1638 3.63004C44.8344 2.47441 44.4412 0.996105 43.2851 0.325558C42.1316 -0.34289 40.6495 0.0511293 39.9807 1.20465L28.7433 20.5842C28.2201 21.486 28.3384 22.5929 28.9951 23.3633L27.5386 25.8747L26.083 23.3646C26.7275 22.6059 26.8614 21.4931 26.3343 20.5842L15.0966 1.20423C14.4281 0.0511294 12.9456 -0.34289 11.7921 0.325558C10.639 0.994426 10.245 2.47651 10.9134 3.63004C11.6973 4.98162 21.6657 22.1729 22.1512 23.01C22.656 23.8799 23.6584 24.3645 24.6882 24.1719L26.6071 27.4814L18.4737 41.5084L16.8955 41.8822C14.6631 42.411 13.4261 41.9146 9.34197 40.9285C7.45454 40.4723 5.52472 41.5029 4.85291 43.3245C4.08502 45.4074 5.27883 47.7027 7.42432 48.2709C12.0485 49.4945 12.0774 49.5503 12.8852 49.5503C14.5763 49.5503 16.1914 48.6574 17.0679 47.1451C17.3822 46.6029 27.539 29.0877 27.539 29.0877C27.539 29.0877 37.6925 46.5979 38.0097 47.1451C38.8867 48.6574 40.501 49.5503 42.1925 49.5503C43.0006 49.5503 43.03 49.4941 47.6533 48.2705C49.7946 47.704 50.9943 45.4108 50.2248 43.3245C49.5529 41.5029 47.6227 40.4728 45.7357 40.9285ZM41.375 2.01284C41.5979 1.62805 42.0926 1.49671 42.477 1.71952C42.8622 1.94318 42.9935 2.43581 42.7699 2.82144L33.5647 18.6968L32.1594 17.9054L41.375 2.01284ZM30.1373 21.3924L31.3508 19.2998L32.7561 20.0907L31.5321 22.2014C31.3122 22.5807 30.8221 22.7217 30.4302 22.4947C30.045 22.2706 29.9137 21.778 30.1373 21.3924ZM21.5129 18.6968L12.3074 2.82144C12.0846 2.43707 12.2159 1.94276 12.6007 1.71952C12.9851 1.49671 13.4798 1.62805 13.7026 2.01284L22.9182 17.9054L21.5129 18.6968ZM24.647 22.4943C24.2547 22.7217 23.765 22.5803 23.5451 22.2014L22.3215 20.0907L23.7264 19.2998L24.9399 21.3924C25.1632 21.7772 25.0314 22.2715 24.647 22.4943ZM15.6736 46.3369C14.9485 47.5873 13.4668 48.2021 12.0686 47.8324L7.83639 46.7129C6.60439 46.3864 5.92461 45.0759 6.36479 43.8821C6.7542 42.8255 7.87247 42.2318 8.96347 42.4949C13.0988 43.4936 14.5796 44.0882 17.36 43.4281L15.6736 46.3369Z" fill="#2A3D46"/>
<path d="M34.4446 46.1491C34.8731 46.0291 35.1232 45.5843 35.0027 45.1558C33.4044 39.452 26.2323 37.6023 22.0618 41.7729C19.0401 44.795 19.0401 49.712 22.0618 52.7337C23.5728 54.2447 25.5572 55.0005 27.5424 55C31.06 54.9996 34.0771 52.6544 35.0027 49.3512C35.1232 48.9223 34.8731 48.478 34.4446 48.3575C34.0154 48.2375 33.571 48.4876 33.451 48.916C32.188 53.4235 26.5101 54.9027 23.2015 51.594C20.808 49.2009 20.808 45.3061 23.2015 42.9126C26.5105 39.6035 32.1884 41.0839 33.451 45.5906C33.5714 46.0194 34.0166 46.2691 34.4446 46.1491Z" fill="#1BADC4"/>
</svg>
