<svg width="61" height="49" viewBox="0 0 61 49" fill="none" xmlns="http://www.w3.org/2000/svg">
<path d="M4.20458 34.5229H15.3409V35.6366H4.20458V34.5229Z" fill="#1BADC4"/>
<path d="M0.863614 37.8638H9.77271V38.9774H0.863614V37.8638Z" fill="#1BADC4"/>
<path d="M1.97727 46.7729H12V47.8866H1.97727V46.7729Z" fill="#1BADC4"/>
<path d="M7.54547 43.4316H13.1136V44.5453H7.54547V43.4316Z" fill="#1BADC4"/>
<path d="M12.0008 28.5489C12.0088 28.3639 12.0793 28.1871 12.2009 28.0475C12.3225 27.9079 12.4879 27.8138 12.6699 27.7807L21.6443 26.1473C21.6516 26.146 21.6588 26.1448 21.6661 26.1436L27.3045 25.2753C27.4883 25.247 27.6723 25.2146 27.8562 25.1804L26.3541 22.8175C25.4469 21.3905 25.0069 19.7157 25.0956 18.0265C25.1842 16.3374 25.797 14.7179 26.8486 13.3939L26.8484 13.3938L30.7646 8.16692C31.3652 7.37009 32.2354 6.8197 33.2121 6.6188V5.58724C33.2146 4.43479 33.5878 3.31378 34.2767 2.39036L34.471 2.13116C34.9681 1.47091 35.6112 0.934907 36.3499 0.565158C37.0886 0.195408 37.9029 0.00196696 38.7288 7.54957e-10H38.974C39.8811 -1.52842e-05 40.7732 0.232065 41.5656 0.674208C42.3579 1.11635 43.0242 1.75388 43.5012 2.52627C43.9782 3.29867 44.2501 4.18028 44.291 5.08743C44.3319 5.99457 44.1406 6.89713 43.7351 7.70942C43.678 7.82616 43.5938 7.92756 43.4897 8.00521C43.3856 8.08285 43.2644 8.13449 43.1364 8.15585C43.0083 8.1772 42.877 8.16764 42.7533 8.12797C42.6297 8.0883 42.5173 8.01966 42.4254 7.92775L40.406 5.90626C40.3405 5.84066 40.2612 5.79042 40.174 5.75919C40.0867 5.72795 39.9936 5.71648 39.9014 5.72562C39.8091 5.73476 39.7201 5.76426 39.6406 5.81202C39.5612 5.85977 39.4933 5.92458 39.4419 6.00177C39.3619 6.12249 39.326 6.26717 39.3403 6.41133C39.3545 6.55549 39.4181 6.6903 39.5203 6.79294L41.9476 9.22278C42.0687 9.34401 42.1486 9.50029 42.176 9.6695C42.2034 9.83871 42.1769 10.0123 42.1004 10.1656L41.2845 11.799C41.1967 11.9748 41.0485 12.1131 40.867 12.1883C40.6856 12.2636 40.4831 12.2707 40.2968 12.2085L39.2069 11.8449C39.2194 12.4215 39.0938 12.9928 38.8408 13.511C38.5878 14.0292 38.2147 14.4793 37.7526 14.8237L38.6842 15.7563C38.8372 15.9095 38.9231 16.1172 38.9231 16.3338H39.739C39.85 16.3339 39.9599 16.3566 40.0619 16.4006C40.1639 16.4446 40.2558 16.5089 40.3321 16.5898L44.3515 20.8499C46.9936 19.0361 50.2073 18.2528 53.3867 18.6477C53.9209 18.7145 54.4096 18.9827 54.7533 19.3976C55.0969 19.8126 55.2696 20.343 55.2361 20.8809C55.2027 21.4189 54.9656 21.9238 54.5733 22.2929C54.1809 22.6619 53.6627 22.8674 53.1243 22.8674H52.7817C51.0141 22.8627 49.3105 23.5291 48.0143 24.7322L49.1936 25.9821C50.6964 24.8462 52.5768 24.3295 54.4483 24.5381C56.3199 24.7468 58.0406 25.665 59.257 27.1041C60.4733 28.5432 61.093 30.3939 60.9887 32.2761C60.8843 34.1583 60.0639 35.929 58.696 37.2246C57.3281 38.5201 55.5165 39.2421 53.6333 39.2422C51.7502 39.2423 49.9385 38.5205 48.5704 37.2251C47.2023 35.9298 46.3817 34.1591 46.2771 32.2769C46.1726 30.3947 46.792 28.5439 48.0082 27.1047L46.9439 25.9766C46.3811 26.8119 46.0049 27.7589 45.841 28.753L45.6849 29.6907C45.5859 30.2951 45.2752 30.8444 44.8084 31.2403C44.3416 31.6361 43.7492 31.8526 43.1374 31.851C43.0751 31.851 43.013 31.8485 42.9512 31.8441C43.3592 32.2401 43.6397 32.7491 43.7569 33.3057C43.8741 33.8623 43.8226 34.4413 43.6089 34.9684C43.3953 35.4956 43.0294 35.9469 42.5579 36.2645C42.0865 36.5821 41.531 36.7515 40.9627 36.7511H38.2999L36.8405 37.4816L36.8401 37.4809C36.8057 37.4984 36.7701 37.5135 36.7336 37.526L34.3297 38.3281L29.0797 40.7807C29.256 42.261 28.9784 43.7599 28.2838 45.0786C27.5891 46.3972 26.5103 47.4733 25.1905 48.1639C23.8707 48.8544 22.3723 49.1269 20.8942 48.9451C19.4161 48.7634 18.0281 48.1359 16.9145 47.1461C15.801 46.1562 15.0144 44.8508 14.6593 43.403C14.3042 41.9553 14.3973 40.4336 14.9263 39.0401C15.4552 37.6465 16.395 36.4469 17.621 35.6005C18.8469 34.7541 20.301 34.3009 21.7902 34.3011C23.6768 34.3021 25.4906 35.0299 26.8556 36.3335L27.3476 36.0709L27.0828 33.421L26.8453 33.4685C26.706 33.4964 26.562 33.4874 26.4273 33.4425L21.5537 31.8162L12.6012 29.3721C12.4227 29.3234 12.266 29.2154 12.1569 29.0658C12.0478 28.9162 11.9927 28.734 12.0008 28.5489ZM27.7306 21.9406L30.637 26.5124C30.7367 26.6691 30.78 26.8552 30.7597 27.04C30.7395 27.2247 30.6569 27.397 30.5257 27.5284C29.984 28.0706 29.5425 28.7046 29.2215 29.4009H31.8439L33.1646 26.0957L30.8581 18.3991L27.6151 15.1528C27.0073 16.1849 26.6964 17.3651 26.7168 18.563C26.7372 19.7609 27.0881 20.9298 27.7306 21.9406ZM22.0017 40.7761C21.8446 40.86 21.7264 41.0019 21.6723 41.1718C21.6182 41.3416 21.6324 41.5259 21.712 41.6853C21.7915 41.8448 21.9302 41.9669 22.0983 42.0256C22.2665 42.0842 22.4509 42.0749 22.6122 41.9995L32.5814 37.3424L28.5149 38.3601C28.3142 38.4104 28.102 38.3824 27.9211 38.282C27.7403 38.1815 27.6043 38.0159 27.5408 37.8189L22.0017 40.7761ZM36.4755 31.851H37.7522C37.8711 31.8513 37.9897 31.8603 38.1073 31.8779V29.6302L36.4755 30.0386V31.851ZM42.8907 22.0041L43.0594 21.8594L41.3074 20.0023L40.0234 21.2876C40.0825 21.3089 40.1389 21.3369 40.1915 21.3712L42.189 22.7042C42.4053 22.4538 42.6399 22.2198 42.8907 22.0041ZM34.6687 25.4295L38.2673 26.15C38.3718 26.1709 38.4712 26.2121 38.5598 26.2713L40.1186 27.3115L41.2155 24.0175L39.492 22.8674H36.7614C36.0096 23.4631 35.2153 24.003 34.3849 24.4829L34.6687 25.4295ZM41.3707 30.2176C41.3704 30.0011 41.2844 29.7935 41.1314 29.6404C40.9785 29.4873 40.7711 29.4012 40.5548 29.4009H39.739V31.0343H40.5548C40.7711 31.034 40.9785 30.9479 41.1314 30.7948C41.2844 30.6417 41.3704 30.4341 41.3707 30.2176ZM38.1227 27.9427L37.789 27.72L34.5334 27.0682L31.8251 33.8461L35.1468 35.1762C35.2213 35.2064 35.2908 35.2475 35.3533 35.2981L34.8597 32.8279C34.8491 32.7751 34.8438 32.7215 34.8438 32.6677V29.4009C34.8438 29.2188 34.9046 29.0419 35.0166 28.8983C35.1286 28.7548 35.2853 28.6528 35.4618 28.6086L38.1227 27.9427ZM28.6573 32.7674L29.0349 36.5464L32.1982 35.7547L30.4616 35.0593C30.3621 35.0195 30.2715 34.9605 30.1948 34.8856C30.1181 34.8107 30.0569 34.7214 30.0147 34.6228C29.9725 34.5242 29.9501 34.4183 29.9488 34.3111C29.9475 34.2038 29.9673 34.0974 30.0071 33.9978L31.1913 31.0343H28.7163C28.6196 31.6068 28.5998 32.1896 28.6573 32.7674ZM37.2914 17.1505H35.6597V17.9672C35.6597 18.1838 35.7457 18.3916 35.8987 18.5447C36.0517 18.6979 36.2592 18.7839 36.4755 18.7839C36.6919 18.7839 36.8994 18.6979 37.0524 18.5447C37.2054 18.3916 37.2914 18.1838 37.2914 17.9672V17.1505ZM33.4511 12.8279C33.3657 12.7425 33.3004 12.6391 33.2598 12.5253C33.2191 12.4116 33.2042 12.2902 33.2161 12.1699C33.228 12.0497 33.2664 11.9336 33.3286 11.83C33.3907 11.7264 33.475 11.6379 33.5754 11.5709L35.1034 10.5512C35.2747 10.4372 35.4151 10.2825 35.5122 10.1009C35.6092 9.91938 35.6599 9.71661 35.6597 9.51069V9.41738C35.6597 9.14163 35.5687 8.87362 35.4007 8.65504C35.2328 8.43647 34.9974 8.27958 34.7312 8.20881C34.4649 8.13803 34.1828 8.15734 33.9287 8.26371C33.6745 8.37009 33.4626 8.55757 33.326 8.79698L31.0349 12.8104L35.0908 15.5171H36.1376L33.4511 12.8279ZM29.4962 13.7466C29.3844 13.6719 29.2927 13.5707 29.2295 13.452C29.1662 13.3332 29.1333 13.2007 29.1336 13.0661L28.5785 13.8071L31.6845 16.9163L32.9651 16.0616L29.4962 13.7466ZM40.3779 9.96161L38.3664 7.94799C37.9429 7.52407 37.705 6.94911 37.705 6.3496C37.705 5.75009 37.9429 5.17513 38.3664 4.75121C38.7899 4.32729 39.3642 4.08913 39.9631 4.08913C40.562 4.08913 41.1364 4.32729 41.5599 4.75121L42.6292 5.82162C42.7 5.29959 42.6584 4.76843 42.5071 4.26383C42.3559 3.75924 42.0985 3.2929 41.7522 2.89615C41.406 2.49941 40.9789 2.18145 40.4997 1.96364C40.0205 1.74583 39.5003 1.63323 38.974 1.63338H38.7288C38.1561 1.63475 37.5914 1.76889 37.0792 2.02529C36.5669 2.2817 36.1209 2.6534 35.7762 3.11125L35.582 3.37045C35.1043 4.01075 34.8455 4.7881 34.8438 5.58724V6.56621C35.3451 6.64262 35.8171 6.85068 36.2118 7.16918C36.6293 7.43324 36.9952 7.77136 37.2914 8.16692L38.4887 9.76501C38.5261 9.81491 38.5598 9.86707 38.5945 9.91866L40.1415 10.435L40.3779 9.96161ZM36.7 13.5691C36.923 13.4204 37.1133 13.2277 37.2593 13.0028C37.4054 12.7779 37.504 12.5256 37.5492 12.2612C37.5945 11.9968 37.5853 11.726 37.5224 11.4653C37.4595 11.2046 37.3441 10.9594 37.1832 10.7449L37.0765 10.6025C36.8592 11.1355 36.4872 11.591 36.0086 11.9102L35.3086 12.3773L36.5796 13.6495L36.7 13.5691ZM39.3873 17.9672H38.9231C38.9231 18.617 38.6652 19.2402 38.2062 19.6997C37.7472 20.1592 37.1247 20.4173 36.4755 20.4173C35.8264 20.4173 35.2039 20.1592 34.7449 19.6997C34.2859 19.2402 34.028 18.617 34.028 17.9672V17.3153L32.5354 18.3114L33.9019 22.8711C34.5665 22.4679 35.2043 22.0221 35.8115 21.5366L35.966 21.4128C36.1107 21.2971 36.2904 21.234 36.4755 21.234H37.7692L40.1865 18.8143L39.3873 17.9672ZM52.7817 21.234H53.1243C53.2475 21.234 53.3661 21.187 53.4558 21.1026C53.5456 21.0181 53.5998 20.9026 53.6075 20.7795C53.6152 20.6565 53.5757 20.5351 53.497 20.4402C53.4184 20.3452 53.3066 20.2839 53.1844 20.2686C50.4886 19.934 47.7616 20.5666 45.4875 22.054L46.8941 23.5449C48.4925 22.0545 50.5973 21.2283 52.7817 21.234ZM47.8975 31.851C47.8955 33.1339 48.324 34.3803 49.1142 35.3904C49.9044 36.4004 51.0106 37.1155 52.2554 37.421C53.5001 37.7265 54.8113 37.6046 55.9786 37.075C57.1459 36.5454 58.1017 35.6387 58.6927 34.5004C59.2838 33.362 59.4757 32.0579 59.2379 30.7973C59 29.5366 58.3461 28.3925 57.381 27.5483C56.416 26.7041 55.1956 26.2089 53.9158 26.1419C52.6359 26.075 51.3707 26.4403 50.323 27.1792L54.2016 31.2902L53.0153 32.4118L49.1369 28.301C48.3336 29.3094 47.8966 30.5612 47.8975 31.851ZM44.0754 29.4223L44.2315 28.4845C44.4535 27.138 44.9915 25.8635 45.8014 24.7656L44.1812 23.0483L43.9527 23.2443C43.2572 23.8411 42.7367 24.6157 42.4467 25.4855L42.4451 25.4902C42.2737 26.0055 42.1864 26.5451 42.1865 27.0882V28.3934C42.4419 28.6217 42.6465 28.9011 42.7871 29.2137C42.9276 29.5263 43.0008 29.8649 43.0021 30.2076C43.0469 30.2141 43.0921 30.2175 43.1374 30.2176C43.3627 30.2182 43.5808 30.1385 43.7526 29.9928C43.9245 29.847 44.0389 29.6448 44.0754 29.4223ZM42.1865 33.8927C42.1862 33.5679 42.0571 33.2565 41.8277 33.0269C41.5983 32.7972 41.2872 32.668 40.9627 32.6677H39.739V32.8766C39.9683 33.1971 40.116 33.5688 40.169 33.9594C40.222 34.35 40.1788 34.7477 40.0432 35.1178H40.9627C41.2872 35.1174 41.5983 34.9882 41.8277 34.7586C42.0571 34.5289 42.1862 34.2175 42.1865 33.8927ZM38.1139 35.0181C38.2769 34.9365 38.4075 34.8022 38.4847 34.6371C38.5619 34.4719 38.5811 34.2854 38.5393 34.108C38.4974 33.9305 38.3969 33.7723 38.2541 33.6592C38.1112 33.546 37.9344 33.4844 37.7522 33.4844H36.6549L37.0661 35.5425L38.1139 35.0181ZM21.7902 35.9345C20.6607 35.9345 19.5565 36.2697 18.6174 36.8979C17.6782 37.5261 16.9462 38.4189 16.514 39.4636C16.0817 40.5082 15.9686 41.6576 16.189 42.7666C16.4093 43.8756 16.9532 44.8942 17.7519 45.6937C18.5506 46.4932 19.5682 47.0377 20.6761 47.2583C21.7839 47.4789 22.9322 47.3657 23.9757 46.933C25.0192 46.5003 25.9112 45.7675 26.5387 44.8274C27.1662 43.8873 27.5012 42.782 27.5012 41.6513C27.5012 41.6074 27.4988 41.5636 27.4978 41.5197L23.3022 43.4797C22.9937 43.6245 22.6573 43.6998 22.3165 43.7002C21.8006 43.6984 21.3001 43.5242 20.8943 43.2053C20.4884 42.8864 20.2005 42.4411 20.0762 41.9398C19.9519 41.4386 19.9982 40.9102 20.2079 40.4383C20.4176 39.9664 20.7787 39.5781 21.2338 39.3349L25.315 37.156C24.3097 36.3654 23.0686 35.9353 21.7902 35.9345ZM26.7378 31.8243L27.0017 31.7715C27.0756 29.9651 27.7523 28.2357 28.9236 26.8595L28.7943 26.6561C28.3826 26.7469 27.9672 26.8259 27.5527 26.8897L22.6061 27.6515V30.4456L26.7378 31.8243ZM20.9744 29.9651V27.9294L16.5006 28.7436L20.9744 29.9651Z" fill="#2A3D46"/>
</svg>
