<svg width="46" height="54" viewBox="0 0 46 54" fill="none" xmlns="http://www.w3.org/2000/svg">
<path d="M38.4923 31.3086C38.2746 31.661 38.3838 32.1231 38.7362 32.3408C39.0886 32.5585 39.5507 32.4494 39.7684 32.097L38.4923 31.3086ZM40.8426 27.5043L38.4923 31.3086L39.7684 32.097L42.1187 28.2926L40.8426 27.5043Z" fill="#2A3D46"/>
<path d="M4.23193 28.0342C7.10069 32.7008 12.4087 44.2559 10.6909 53.1429L17.5556 49.0511L22.7633 53.1429L28.2416 49.0511L34.7513 53.1429C34.9542 48.0817 35.9179 37.3202 38.1498 34.7636" stroke="#2A3D46" stroke-width="1.5" stroke-linecap="round" stroke-linejoin="round"/>
<path d="M11.3164 28.1689C13.3961 31.6126 17.5826 40.61 17.6908 49.0506" stroke="#2A3D46" stroke-width="1.5" stroke-linejoin="round"/>
<path d="M34.2439 28.1689C32.1642 31.6126 27.9777 40.61 27.8695 49.0506" stroke="#2A3D46" stroke-width="1.5" stroke-linejoin="round"/>
<path d="M8.94934 38.1618L14.0894 33.1738L23.1015 37.739L32.1981 33.1738L36.7634 37.739" stroke="#2A3D46" stroke-width="1.5" stroke-linejoin="round"/>
<path d="M22.8986 28.1016V53.4301" stroke="#2A3D46" stroke-width="1.5" stroke-linejoin="round"/>
<path d="M10.7584 45.2296L16.727 41.5605L22.7633 45.2296L29.07 41.5605L34.971 45.2296" stroke="#2A3D46" stroke-width="1.5" stroke-linejoin="round"/>
<circle cx="22.9492" cy="13.9493" r="13.1993" stroke="#1BADC4" stroke-width="1.5"/>
<path d="M10.0822 11.2848C11.0252 14.2557 14.3065 19.006 19.887 14.2405C26.8626 8.28367 27.6756 6.13131 34.2609 7.0256" stroke="#1BADC4" stroke-width="1.5" stroke-linecap="round" stroke-linejoin="round"/>
<path d="M10.4542 17.5147C11.9191 18.6358 16.622 20.4961 23.7151 18.9677C30.8082 17.4393 34.8509 14.5907 35.9856 13.3574" stroke="#1BADC4" stroke-width="1.5" stroke-linecap="round" stroke-linejoin="round"/>
<path d="M20.2947 0.946777C17.0518 3.62335 11.5843 11.7532 15.6582 22.8598" stroke="#1BADC4" stroke-width="1.5" stroke-linecap="round" stroke-linejoin="round"/>
<rect x="1.25" y="22.9214" width="43.5" height="4.94928" rx="2.47464" fill="white" stroke="#2A3D46" stroke-width="1.5"/>
</svg>
