<svg width="40" height="43" viewBox="0 0 40 43" fill="none" xmlns="http://www.w3.org/2000/svg">
<path d="M22.5389 8.95907C20.1403 8.95907 18.1885 7.0072 18.1885 4.60869C18.1885 2.21017 20.1403 0.258301 22.5389 0.258301C24.9374 0.258301 26.8892 2.21017 26.8892 4.60869C26.8892 7.0072 24.9374 8.95907 22.5389 8.95907ZM22.5389 1.70843C20.9394 1.70843 19.6386 3.00919 19.6386 4.60869C19.6386 6.20818 20.9394 7.50894 22.5389 7.50894C24.1384 7.50894 25.4391 6.20818 25.4391 4.60869C25.4391 3.00919 24.1384 1.70843 22.5389 1.70843Z" fill="#2A3D46"/>
<path d="M37.2998 37.4875C36.9691 37.4875 36.6704 37.2599 36.5936 36.9234L34.0921 25.9938C33.934 25.363 33.3554 24.9106 32.6898 24.9106H25.4392C25.0389 24.9106 24.7141 24.5857 24.7141 24.1855C24.7141 23.7853 25.0389 23.4604 25.4392 23.4604H32.6898C34.0225 23.4604 35.1797 24.3639 35.5031 25.6559L38.0074 36.6001C38.0973 36.9901 37.8537 37.3788 37.4622 37.4687C37.4085 37.4817 37.3534 37.4875 37.2998 37.4875Z" fill="#2A3D46"/>
<path d="M37.5477 40.0746C36.1266 40.0746 34.7823 39.2292 34.2037 37.8777L30.5131 29.261H23.2639C20.4652 29.261 18.1885 26.9843 18.1885 24.1856V20.0527C18.1885 19.6525 18.5133 19.3276 18.9135 19.3276C19.3138 19.3276 19.6386 19.6525 19.6386 20.0527V24.1856C19.6386 26.1838 21.2656 27.8109 23.2639 27.8109H30.9902C31.2802 27.8109 31.5427 27.9835 31.6558 28.2503L35.5349 37.3063C35.9569 38.2924 37.0561 38.829 38.0915 38.552L39.0892 38.2881C39.4778 38.1866 39.8737 38.4157 39.9752 38.8029C40.0782 39.19 39.8476 39.5874 39.4604 39.6889L38.4627 39.9528C38.1582 40.0355 37.8522 40.0746 37.5477 40.0746Z" fill="#2A3D46"/>
<path d="M32.6898 22.0103H28.3394C27.813 22.0103 27.304 21.8204 26.9066 21.4738C26.605 21.2099 26.5731 20.7516 26.837 20.45C27.1024 20.1498 27.5607 20.1179 27.8608 20.3804C27.9928 20.4964 28.1625 20.5602 28.3394 20.5602H32.6898C33.09 20.5602 33.4148 20.2354 33.4148 19.8351C33.4148 19.4349 33.09 19.1101 32.6898 19.1101H28.8846C28.6221 19.1101 28.38 18.968 28.2509 18.7388L25.4174 13.6677C24.3037 12.0653 23.3132 11.8043 21.6354 11.8623C20.5348 11.9029 19.6386 12.8774 19.6386 14.0346V17.6599C19.6386 18.0602 19.3138 18.385 18.9135 18.385C18.5133 18.385 18.1885 18.0602 18.1885 17.6599V14.0346C18.1885 12.1059 19.7111 10.4818 21.5832 10.4136C23.5902 10.3339 25.1447 10.7312 26.6471 12.9006L29.3095 17.6599H32.6898C33.889 17.6599 34.865 18.6359 34.865 19.8351C34.865 21.0344 33.889 22.0103 32.6898 22.0103Z" fill="#2A3D46"/>
<path d="M32.6897 22.0105H28.3393C27.8129 22.0105 27.3039 21.8205 26.9066 21.4739C26.8689 21.442 26.8356 21.4043 26.8051 21.3652L23.2334 16.645C22.9913 16.326 23.0536 15.8706 23.3741 15.6299C23.6931 15.3877 24.1485 15.4501 24.3892 15.7706L27.9101 20.4197C28.0334 20.511 28.1842 20.5604 28.3393 20.5604H32.6897C33.09 20.5604 33.4148 20.2355 33.4148 19.8353C33.4148 19.4351 33.09 19.1102 32.6897 19.1102H28.8846C28.4843 19.1102 28.1595 18.7854 28.1595 18.3852C28.1595 17.9849 28.4843 17.6601 28.8846 17.6601H32.6897C33.889 17.6601 34.8649 18.636 34.8649 19.8353C34.8649 21.0345 33.889 22.0105 32.6897 22.0105Z" fill="#2A3D46"/>
<path d="M16.7384 39.412C11.9399 39.412 8.0376 35.5097 8.0376 30.7112C8.0376 26.2289 11.3961 22.5078 15.8494 22.0554C16.2569 22.022 16.6035 22.3063 16.6441 22.7036C16.6847 23.1009 16.3947 23.4577 15.9959 23.4983C12.285 23.8753 9.48773 26.9757 9.48773 30.7112C9.48773 34.7092 12.7404 37.9618 16.7384 37.9618C19.9504 37.9618 22.8159 35.8084 23.7062 32.7254C23.8179 32.3412 24.2196 32.1193 24.6039 32.2295C24.9881 32.3412 25.21 32.7428 25.0998 33.1271C24.0311 36.8278 20.5928 39.412 16.7384 39.412Z" fill="#1BADC4"/>
<path d="M33.4149 42.3122C31.8154 42.3122 30.5146 41.0115 30.5146 39.412C30.5146 37.8125 31.8154 36.5117 33.4149 36.5117C35.0144 36.5117 36.3152 37.8125 36.3152 39.412C36.3152 41.0115 35.0144 42.3122 33.4149 42.3122ZM33.4149 37.9618C32.6159 37.9618 31.9648 38.613 31.9648 39.412C31.9648 40.211 32.6159 40.8621 33.4149 40.8621C34.2139 40.8621 34.865 40.211 34.865 39.412C34.865 38.613 34.2139 37.9618 33.4149 37.9618Z" fill="#2A3D46"/>
<path d="M16.7385 42.3119C10.342 42.3119 5.13745 37.1074 5.13745 30.7109C5.13745 24.3144 10.342 19.1099 16.7385 19.1099C23.135 19.1099 28.3395 24.3144 28.3395 30.7109C28.3395 37.1074 23.135 42.3119 16.7385 42.3119ZM16.7385 20.56C11.141 20.56 6.58758 25.1134 6.58758 30.7109C6.58758 36.3084 11.141 40.8618 16.7385 40.8618C22.336 40.8618 26.8894 36.3084 26.8894 30.7109C26.8894 25.1134 22.336 20.56 16.7385 20.56Z" fill="#2A3D46"/>
<path d="M16.7385 20.5601C16.3702 20.5601 16.0555 20.2817 16.0178 19.9076L15.4232 13.9621C15.3855 13.5894 15.0767 13.3095 14.7025 13.3095H11.6631C11.2628 13.3095 10.938 12.9847 10.938 12.5844C10.938 12.1842 11.2628 11.8594 11.6631 11.8594H14.7025C15.8249 11.8594 16.7545 12.7019 16.8661 13.8185L17.4607 19.7626C17.4998 20.1614 17.2098 20.5166 16.811 20.5558C16.7864 20.5587 16.7617 20.5601 16.7385 20.5601Z" fill="#2A3D46"/>
<path d="M16.7385 31.4362C16.3383 31.4362 16.0134 31.1839 16.0134 30.7836V30.6386C16.0134 30.2384 16.3383 29.9136 16.7385 29.9136C17.1387 29.9136 17.4636 30.2384 17.4636 30.6386C17.4636 31.0389 17.1387 31.4362 16.7385 31.4362Z" fill="#1BADC4"/>
<path d="M16.8834 42.3119H4.41232C4.01208 42.3119 3.68726 41.9871 3.68726 41.5869C3.68726 41.1866 4.01208 40.8618 4.41232 40.8618H16.8834C17.2837 40.8618 17.6085 41.1866 17.6085 41.5869C17.6085 41.9871 17.2837 42.3119 16.8834 42.3119Z" fill="#2A3D46"/>
<path d="M1.51217 42.3119C1.11193 42.3119 0.7146 41.9871 0.7146 41.5869C0.7146 41.1866 0.966922 40.8618 1.36716 40.8618H1.51217C1.91241 40.8618 2.23723 41.1866 2.23723 41.5869C2.23723 41.9871 1.91241 42.3119 1.51217 42.3119Z" fill="#2A3D46"/>
</svg>
