<svg width="44" height="44" viewBox="0 0 44 44" fill="none" xmlns="http://www.w3.org/2000/svg">
<path d="M42.2181 1.68116C40.7108 0.173913 36.8268 0 35.2036 0C27.8992 0 17.4644 2.66667 10.0442 10.087C-1.14425 21.2174 -1.31817 39.3043 1.58038 42.2609C3.1456 43.7681 6.7398 44 8.71082 44C15.8992 44 26.276 41.3333 33.8123 33.8551C44.8847 22.7826 45.4644 4.92754 42.2181 1.68116ZM8.71082 41.8551C5.17459 41.8551 3.49343 41.1594 3.08763 40.7536C2.33401 40 1.87024 37.2174 2.10212 33.5652L10.392 41.7971C9.81227 41.8551 9.23256 41.8551 8.71082 41.8551ZM32.305 32.2899C26.6818 37.913 19.2036 40.5797 13.1166 41.5072L2.39198 30.8406C3.26154 24.7536 5.87024 17.2174 11.5514 11.5362C17.0586 6.02899 24.305 3.36232 30.5079 2.43478L41.4644 13.3913C40.5949 19.3043 37.9282 26.6667 32.305 32.2899ZM41.7543 10.7246L33.2326 2.14493C33.9282 2.08696 34.5659 2.08696 35.2036 2.08696C38.7398 2.08696 40.363 2.78261 40.7108 3.13043C41.5224 3.94203 42.0442 6.84058 41.7543 10.7246Z" fill="#2A3D46"/>
<path d="M31.1456 20.2318L28.1311 17.2173L30.0442 15.3043C30.45 14.8985 30.45 14.2028 30.0442 13.797C29.6384 13.3912 28.9427 13.3912 28.5369 13.797L26.6239 15.7681L23.6094 12.7536C23.2036 12.3478 22.5079 12.3478 22.1021 12.7536C21.6964 13.1594 21.6964 13.855 22.1021 14.2608L25.1166 17.2753L21.9282 20.4637L18.9137 17.4492C18.5079 17.0434 17.8123 17.0434 17.4065 17.4492C17.0007 17.855 17.0007 18.5507 17.4065 18.9565L20.421 21.971L17.2326 25.1594L14.2181 22.1449C13.8123 21.7391 13.1166 21.7391 12.7108 22.1449C12.305 22.5507 12.305 23.2463 12.7108 23.6521L15.7253 26.6666L13.8123 28.5797C13.4065 28.9854 13.4065 29.6811 13.8123 30.0869C14.0442 30.3188 14.2761 30.3768 14.5659 30.3768C14.8558 30.3768 15.0877 30.2608 15.3195 30.0869L17.2326 28.1739L20.2471 31.1883C20.479 31.4202 20.7108 31.4782 21.0007 31.4782C21.2906 31.4782 21.5224 31.3623 21.7543 31.1883C22.1601 30.7826 22.1601 30.0869 21.7543 29.6811L18.7398 26.6086L21.9282 23.4202L24.9427 26.4347C25.1746 26.6666 25.4065 26.7246 25.6964 26.7246C25.9862 26.7246 26.2181 26.6086 26.45 26.4347C26.8558 26.0289 26.8558 25.3333 26.45 24.9275L23.4355 21.913L26.6239 18.7246L29.6384 21.7391C29.8703 21.971 30.1021 22.0289 30.392 22.0289C30.6819 22.0289 30.9137 21.913 31.1456 21.7391C31.5514 21.3333 31.5514 20.6376 31.1456 20.2318Z" fill="#1BADC4"/>
<path d="M24.4788 6.89861C24.3049 6.3189 23.7252 6.02904 23.1455 6.20296C22.6817 6.37687 11.4354 9.9131 7.1455 20.4059C6.91362 20.9856 7.1455 21.6232 7.72521 21.7972C7.84115 21.8551 8.01507 21.8551 8.13101 21.8551C8.5368 21.8551 8.9426 21.6232 9.11651 21.2174C13.0585 11.6522 23.6672 8.23194 23.7832 8.23194C24.3629 8.05803 24.6527 7.47832 24.4788 6.89861Z" fill="#2A3D46"/>
</svg>
