<svg width="54" height="54" viewBox="0 0 54 54" fill="none" xmlns="http://www.w3.org/2000/svg">
<path d="M38.7882 30.1091C39.0911 29.2932 38.486 28.4258 37.6155 28.4258C37.4592 28.4258 37.3585 28.4258 37.3585 28.4258H30.1644C29.5662 28.4258 29.0579 28.8508 28.9373 29.4368C28.4656 31.728 27.3737 33.5491 25.9203 36.8007C24.8623 39.1679 24.9507 39.9441 25.8547 41.3647C27.412 43.8119 29.9745 43.3604 31.6662 44.0767C34.3882 45.2295 34.4472 47.0429 35.85 47.5725C37.89 48.3425 41.2253 47.7054 43.0707 47.5052C45.245 47.2693 45.7478 46.1856 45.7478 44.932C45.7478 43.3731 45.1492 42.4603 44.1423 41.9443C43.1934 41.458 42.187 41.3849 41.2262 40.961C39.6804 40.2792 38.8766 39.3252 38.3615 38.5319C37.4383 37.1104 37.5517 36.1384 37.8003 33.8386C37.9465 32.4861 38.4002 31.1544 38.7882 30.1091Z" stroke="#2A3D46" stroke-width="1.5" stroke-miterlimit="10" stroke-linecap="round" stroke-linejoin="round"/>
<path d="M31.2743 44.1634V47.037C31.2743 47.653 30.7748 48.1525 30.1588 48.1525H27.6704C27.1316 48.1525 26.6698 47.7674 26.5731 47.2373L25.5411 41.1016" stroke="#2A3D46" stroke-width="1.5" stroke-miterlimit="10" stroke-linecap="round" stroke-linejoin="round"/>
<path d="M23.3976 52.7893H46.12C47.6554 52.7893 48.9001 51.5446 48.9001 50.0092C48.9001 48.4738 47.6554 47.229 46.12 47.229H44.5798" stroke="#2A3D46" stroke-width="1.5" stroke-miterlimit="10" stroke-linecap="round" stroke-linejoin="round"/>
<path d="M40.3993 47.9434V52.1486" stroke="#2A3D46" stroke-width="1.5" stroke-miterlimit="10" stroke-linecap="round" stroke-linejoin="round"/>
<path d="M28.8604 48.8335V52.1483" stroke="#2A3D46" stroke-width="1.5" stroke-miterlimit="10" stroke-linecap="round" stroke-linejoin="round"/>
<path d="M34.4553 31.9683H37.8424" stroke="#2A3D46" stroke-width="1.5" stroke-miterlimit="10" stroke-linecap="round" stroke-linejoin="round"/>
<path d="M33.7563 34.8506H37.1434" stroke="#2A3D46" stroke-width="1.5" stroke-miterlimit="10" stroke-linecap="round" stroke-linejoin="round"/>
<path d="M0.790771 6.93408L6.27876 28.9838C6.64962 30.4738 8.15811 31.381 9.64811 31.0102C11.1381 30.6393 12.0453 29.1308 11.6745 27.6408L11.3024 26.1463" stroke="#2A3D46" stroke-width="1.5" stroke-miterlimit="10" stroke-linecap="round" stroke-linejoin="round"/>
<path d="M9.60043 22.2617L5.51965 23.2774" stroke="#2A3D46" stroke-width="1.5" stroke-miterlimit="10" stroke-linecap="round" stroke-linejoin="round"/>
<path d="M6.15379 12.1006L2.93713 12.9012" stroke="#2A3D46" stroke-width="1.5" stroke-miterlimit="10" stroke-linecap="round" stroke-linejoin="round"/>
<path d="M22.9884 10.2402L23.8065 13.527" stroke="#2A3D46" stroke-width="1.5" stroke-miterlimit="10" stroke-linecap="round" stroke-linejoin="round"/>
<path d="M20.1914 10.9365L21.0095 14.2234" stroke="#2A3D46" stroke-width="1.5" stroke-miterlimit="10" stroke-linecap="round" stroke-linejoin="round"/>
<path d="M24.6181 13.7653C25.1017 13.6509 25.3733 13.5904 25.8048 13.4937C26.6588 13.3023 27.1881 12.4459 26.9768 11.5967L25.6088 6.10036C25.402 5.2695 24.5639 4.76073 23.7318 4.96189C21.7878 5.43181 19.9602 5.72844 16.9253 5.88694C14.336 6.02211 13.243 6.27755 12.3838 7.29373C11.5246 8.30991 11.9814 10.7582 11.6948 12.573C11.2337 15.4928 9.03638 16.2687 8.8613 17.758C8.6068 19.9235 10.0305 23.0063 10.6705 24.7486C11.4246 26.8016 12.5977 27.0278 13.8142 26.725C15.3269 26.3486 16.0681 25.5472 16.3257 24.4454C16.5683 23.4072 16.3962 22.4129 16.5754 21.378C16.8638 19.7134 17.3186 18.9892 17.9022 17.8904C18.2633 17.2104 18.6684 16.6647 19.089 16.2235C19.089 16.2235 20.2094 14.922 21.789 14.5148C21.9399 14.476 22.1214 14.4051 22.3347 14.3436L24.6181 13.7653Z" stroke="#2A3D46" stroke-width="1.5" stroke-miterlimit="10" stroke-linecap="round" stroke-linejoin="round"/>
<path d="M11.594 13.0761L8.44301 13.8604C7.8451 14.0092 7.23981 13.6452 7.09102 13.0473L6.49005 10.6325C6.35996 10.1096 6.62216 9.56852 7.11309 9.34655L12.8179 6.86328" stroke="#2A3D46" stroke-width="1.5" stroke-miterlimit="10" stroke-linecap="round" stroke-linejoin="round"/>
<path d="M25.1517 5.12175L33.8505 1" stroke="#2A3D46" stroke-width="1.5" stroke-miterlimit="10" stroke-linecap="round" stroke-linejoin="round"/>
<path d="M52.4136 5.50195L27.0188 12.0884" stroke="#2A3D46" stroke-width="1.5" stroke-miterlimit="10" stroke-linecap="round" stroke-linejoin="round"/>
<path d="M30.5139 28.4256L35.8687 9.83984" stroke="#2A3D46" stroke-width="1.5" stroke-miterlimit="10" stroke-linecap="round" stroke-linejoin="round"/>
<path d="M49.5457 6.34375L38.1859 28.5623" stroke="#2A3D46" stroke-width="1.5" stroke-miterlimit="10" stroke-linecap="round" stroke-linejoin="round"/>
<path d="M15.4918 9.36377C15.1053 9.82091 15.3108 10.9223 15.1819 11.7386" stroke="#2A3D46" stroke-width="1.5" stroke-miterlimit="10" stroke-linecap="round" stroke-linejoin="round"/>
<path d="M17.6418 42.3176L18.2853 44.1269C18.3128 44.2044 18.3673 44.2657 18.4362 44.2968L20.0436 45.021C20.2706 45.1233 20.2706 45.4851 20.0436 45.5874L18.4362 46.3116C18.3673 46.3426 18.3128 46.404 18.2853 46.4814L17.6418 48.2907C17.5509 48.5463 17.2295 48.5463 17.1386 48.2907L16.4951 46.4814C16.4676 46.404 16.4131 46.3426 16.3442 46.3116L14.7368 45.5874C14.5098 45.4851 14.5098 45.1233 14.7368 45.021L16.3442 44.2968C16.4131 44.2657 16.4676 44.2044 16.4951 44.1269L17.1386 42.3176C17.2295 42.0621 17.5509 42.0621 17.6418 42.3176Z" fill="#1BADC4"/>
<path d="M8.83136 51.1212C8.83136 52.1672 7.98329 53.0153 6.93722 53.0153C5.89116 53.0153 5.04309 52.1672 5.04309 51.1212C5.04309 50.0751 5.89105 49.2271 6.93722 49.2271C7.98329 49.2271 8.83136 50.0751 8.83136 51.1212Z" fill="#1BADC4"/>
<path d="M14.3849 38.1841C14.3849 38.6215 14.0303 38.9761 13.5929 38.9761C13.1555 38.9761 12.8009 38.6215 12.8009 38.1841C12.8009 37.7467 13.1555 37.3921 13.5929 37.3921C14.0303 37.3921 14.3849 37.7467 14.3849 38.1841Z" fill="#1BADC4"/>
<path d="M4.14606 34.1579L5.01345 36.5971C5.05062 36.7015 5.12412 36.7843 5.21694 36.826L7.38394 37.8023C7.69007 37.9402 7.69007 38.428 7.38394 38.5659L5.21694 39.5423C5.12412 39.5841 5.05062 39.6669 5.01345 39.7713L4.14606 42.2104C4.02346 42.555 3.59008 42.555 3.46759 42.2104L2.60009 39.7713C2.56292 39.6668 2.48942 39.584 2.3966 39.5423L0.229599 38.5659C-0.076533 38.428 -0.076533 37.9402 0.229599 37.8023L2.3966 36.826C2.48942 36.7842 2.56292 36.7014 2.60009 36.5971L3.46759 34.1579C3.59019 33.8132 4.02346 33.8132 4.14606 34.1579Z" fill="#1BADC4"/>
</svg>
