<svg width="80" height="80" viewBox="0 0 80 80" fill="none" xmlns="http://www.w3.org/2000/svg">
<path fill-rule="evenodd" clip-rule="evenodd" d="M12.5 44C18.299 44 23 39.299 23 33.5C23 27.701 18.299 23 12.5 23C6.70101 23 2 27.701 2 33.5C2 39.299 6.70101 44 12.5 44ZM12.5 46C19.4036 46 25 40.4036 25 33.5C25 26.5964 19.4036 21 12.5 21C5.59644 21 0 26.5964 0 33.5C0 40.4036 5.59644 46 12.5 46Z" fill="#1BADC4"/>
<path fill-rule="evenodd" clip-rule="evenodd" d="M67.5 44C73.299 44 78 39.299 78 33.5C78 27.701 73.299 23 67.5 23C61.701 23 57 27.701 57 33.5C57 39.299 61.701 44 67.5 44ZM67.5 46C74.4036 46 80 40.4036 80 33.5C80 26.5964 74.4036 21 67.5 21C60.5964 21 55 26.5964 55 33.5C55 40.4036 60.5964 46 67.5 46Z" fill="#1BADC4"/>
<path fill-rule="evenodd" clip-rule="evenodd" d="M26.5 57C32.299 57 37 52.299 37 46.5C37 40.701 32.299 36 26.5 36C20.701 36 16 40.701 16 46.5C16 52.299 20.701 57 26.5 57ZM26.5 59C33.4036 59 39 53.4036 39 46.5C39 39.5964 33.4036 34 26.5 34C19.5964 34 14 39.5964 14 46.5C14 53.4036 19.5964 59 26.5 59Z" fill="#2A3D46"/>
<path fill-rule="evenodd" clip-rule="evenodd" d="M54 57C59.799 57 64.5 52.299 64.5 46.5C64.5 40.701 59.799 36 54 36C48.201 36 43.5 40.701 43.5 46.5C43.5 52.299 48.201 57 54 57ZM54 59C60.9036 59 66.5 53.4036 66.5 46.5C66.5 39.5964 60.9036 34 54 34C47.0964 34 41.5 39.5964 41.5 46.5C41.5 53.4036 47.0964 59 54 59Z" fill="#2A3D46"/>
<path fill-rule="evenodd" clip-rule="evenodd" d="M40 44C45.799 44 50.5 39.299 50.5 33.5C50.5 27.701 45.799 23 40 23C34.201 23 29.5 27.701 29.5 33.5C29.5 39.299 34.201 44 40 44ZM40 46C46.9036 46 52.5 40.4036 52.5 33.5C52.5 26.5964 46.9036 21 40 21C33.0964 21 27.5 26.5964 27.5 33.5C27.5 40.4036 33.0964 46 40 46Z" fill="#1BADC4"/>
</svg>
