<svg width="56" height="56" viewBox="0 0 56 56" fill="none" xmlns="http://www.w3.org/2000/svg">
<path d="M11.7422 31.4648C11.2617 31.4648 10.8633 31.8633 10.8633 32.3438C10.9102 33.5039 12.5742 33.5039 12.6211 32.3438C12.6211 31.8633 12.2227 31.4648 11.7422 31.4648Z" fill="#1BADC4"/>
<path d="M18.0117 25.8867C18.0117 25.4062 17.6133 25.0078 17.1328 25.0078C15.9727 25.0547 15.9727 26.7188 17.1328 26.7656C17.6133 26.7656 18.0117 26.3789 18.0117 25.8867Z" fill="#1BADC4"/>
<path d="M11.7422 20.7891C12.2227 20.7891 12.6211 20.3906 12.6211 19.9102C12.5742 18.75 10.9102 18.75 10.8633 19.9102C10.8633 20.4023 11.25 20.7891 11.7422 20.7891Z" fill="#1BADC4"/>
<path d="M13.6055 28.4414C13.6055 27.9609 13.207 27.5625 12.7266 27.5625C11.5664 27.6094 11.5664 29.2734 12.7266 29.3203C13.207 29.3203 13.6055 28.9219 13.6055 28.4414Z" fill="#1BADC4"/>
<path d="M10.2305 23.8477C9.75 23.8477 9.35156 24.2461 9.35156 24.7266C9.39844 25.8867 11.0625 25.8867 11.1094 24.7266C11.1094 24.2461 10.7109 23.8477 10.2305 23.8477Z" fill="#1BADC4"/>
<path d="M8.48438 28.0312C8.00391 28.0312 7.60547 28.4297 7.60547 28.9102C7.65234 30.0703 9.31641 30.0703 9.36328 28.9102C9.36328 28.4297 8.96484 28.0312 8.48438 28.0312Z" fill="#1BADC4"/>
<path d="M9.23438 17.8125C9.71484 17.8125 10.1133 17.4141 10.1133 16.9336C10.0664 15.7734 8.40234 15.7734 8.35547 16.9336C8.35547 17.4258 8.74219 17.8125 9.23438 17.8125Z" fill="#1BADC4"/>
<path d="M45.1641 32.6248C44.8008 31.3123 43.1484 30.9373 41.8242 30.6326C41.5313 30.5623 41.2383 30.5037 41.0039 30.4334C40.2891 30.2342 39.3516 30.2576 38.1914 30.5037C39.3984 27.4334 39.1055 24.5858 37.3008 22.0194C39.3281 21.9022 44.4727 22.3358 44.8945 21.4686C45.0703 21.2694 45.1523 21.0233 45.1289 20.7655C44.9531 19.16 42.6211 18.0467 38.2031 17.4608C37.3242 17.3436 35.1797 17.5311 33.832 17.6834C33.9844 16.91 33.9258 16.0897 33.6328 15.3865C32.6602 13.0545 30.9258 13.1131 29.5195 13.4295C28.0078 13.7694 27.293 14.8475 27.3984 16.6522C23.2969 16.5233 19.2891 18.4569 14.9883 22.6522C16.2539 18.7498 19.5352 13.9569 23.25 11.6834C30.293 6.86701 41.0859 8.08576 46.6992 11.7537C49.8398 13.6287 51.5273 15.6444 51.5391 15.6678C51.7852 15.9725 52.2305 16.0076 52.5234 15.7615C52.8281 15.5155 52.8633 15.0701 52.6172 14.7772C46.4766 7.57014 32.4844 3.96076 22.4766 10.5115C16.8984 13.9217 13.4648 21.3045 12.8438 25.0662C12.7617 25.4881 13.1133 25.8983 13.5352 25.8865C13.7344 25.8865 13.9219 25.8045 14.0625 25.6522C18.9023 20.2615 23.2266 17.8358 27.5977 18.0701C27.7031 18.5506 27.832 18.9725 28.0078 19.3358C26.9883 20.578 23.8828 24.41 23.0742 25.6756C22.4531 26.6483 22.2188 28.7342 22.1953 30.3631C22.1836 31.7342 22.2305 35.7303 24.4336 35.7889C25.5234 35.742 26.0977 34.7694 26.4258 33.4217C26.625 34.078 26.707 34.5936 26.6133 34.7928C26.0508 35.8826 25.1367 37.0545 24.6797 38.367C24.1758 38.7537 22.6289 39.9373 20.8477 41.4725C17.9063 44.0037 15.7383 46.2186 14.4023 48.0584C13.1133 49.828 12.4805 51.0233 13.1016 51.8201C13.3477 52.1483 13.7109 52.3123 14.2969 52.3123C15.6445 52.3123 18.1641 51.4217 23.168 49.4764C32.4023 45.8787 38.3906 40.9451 43.0313 36.5975C44.7656 34.9451 45.457 33.6795 45.1641 32.6248ZM36.4805 30.9139C36.4688 30.949 36.457 30.9725 36.4453 31.0076C36.0586 31.1365 35.7188 31.2654 35.4492 31.3826C35.1563 30.7381 34.7227 29.7537 34.4883 29.2381C34.2891 28.1014 33.668 27.0115 32.6133 25.9217C33.3398 24.5272 34.6289 22.6287 35.6836 22.242C37.8281 24.8084 38.0859 27.6561 36.4805 30.9139ZM31.9453 37.7108C32.3438 38.1209 32.7422 38.5897 33 38.9412C32.3555 38.824 31.2891 38.4842 30.2813 38.0506C31.1484 36.199 32.0625 34.1248 32.0977 33.4569C32.1211 33.1405 32.0273 32.6951 31.8984 32.2029C32.4961 32.0037 33.2578 31.6756 33.8086 31.1248C34.0195 31.6053 34.2422 32.0858 34.3711 32.3787C34.1133 33.0233 32.918 35.1209 31.8633 36.8553C31.6758 37.1365 31.7109 37.4881 31.9453 37.7108ZM29.8125 14.8006C31.0781 14.5194 31.7695 14.6131 32.3203 15.9256C32.6016 16.6053 32.543 17.4842 32.1797 18.1522C31.9688 18.5272 31.582 19.0076 30.8555 19.1365C30.1875 19.2537 29.7539 19.2303 29.5313 19.078C29.4727 19.0428 29.4258 18.9842 29.3789 18.9256C29.1797 18.6912 28.9922 18.0233 28.8633 17.2498C28.5117 15.0936 29.3555 14.8944 29.8125 14.8006ZM24.4219 34.3826C23.1914 33.6795 23.5078 27.3983 24.2461 26.4256C24.9727 25.2772 27.8672 21.7147 28.9688 20.367C29.625 20.6951 30.4219 20.6365 31.1016 20.5194C31.957 20.367 32.6953 19.8865 33.1992 19.1717C34.5117 19.0194 37.1836 18.7615 38.0156 18.867C41.1445 19.2772 42.9258 19.9686 43.5117 20.5662C41.4844 20.7772 37.6758 20.4373 35.8594 20.7537C33.75 20.9764 32.0039 24.0701 31.3477 25.324L28.6289 25.1365L29.4492 23.9412C29.6719 23.6248 29.5898 23.1795 29.2734 22.9686C28.957 22.7459 28.5117 22.828 28.3008 23.1444L25.1484 27.7381C25.0547 27.867 25.0195 28.0194 25.0313 28.1717L25.1953 31.16C25.2773 33.199 24.6797 34.2889 24.4219 34.3826ZM26.5078 29.9998L26.4141 28.324L27.6914 26.4608L31.4531 26.7303C32.4023 27.6678 32.9531 28.5819 33.1055 29.4842C33.1055 29.742 33 30.3397 31.4531 30.8553C31.1719 30.1053 30.8906 29.449 30.7852 29.2147C30.375 28.3826 29.1563 28.9217 29.4961 29.7889C29.7656 30.3865 30.0352 31.0662 30.2461 31.6756C29.7188 32.6483 28.9336 33.1287 27.7852 33.1404C27.4453 31.8983 26.8008 30.574 26.5078 29.9998ZM27.2109 36.5506C27.6563 35.7772 28.043 35.3904 28.0195 34.5467C29.0859 34.4881 29.9883 34.1014 30.6797 33.4334C30.5039 34.3826 28.1719 39.2694 27.457 40.6287C26.9414 41.5897 27.6445 42.8553 27.7383 43.8514C27.0469 43.5584 26.2031 42.2108 25.793 40.617C25.4883 39.2108 26.5313 37.6756 27.2109 36.5506ZM42.0352 35.578C37.5 39.8436 31.6406 44.6717 22.6289 48.1756C20.0859 49.1717 15.4688 50.9647 14.2852 50.9178C15.9258 47.2733 21.7969 42.4451 24.3398 40.4061C24.5742 42.2811 26.332 45.9256 28.3594 45.1405C29.4727 44.66 29.1211 43.3709 28.8984 42.5154C28.793 42.1404 28.6055 41.449 28.7109 41.2733C28.7227 41.2498 29.1445 40.4295 29.6836 39.3162C30.4102 39.6326 32.4258 40.4061 33.4336 40.3826C33.9609 40.3826 34.3945 40.2303 34.6172 39.8084C34.8398 39.3983 34.8516 38.7654 33.3398 37.1248C34.8633 34.617 35.4844 33.4217 35.707 32.7772C36.8789 32.2733 39.3516 31.4178 40.6289 31.7811C40.8984 31.8631 41.2031 31.9217 41.5195 31.992C42.3281 32.1678 43.6758 32.4725 43.8164 32.9764C43.8516 33.1639 43.8633 33.867 42.0352 35.578Z" fill="#2A3D46"/>
<path d="M51.2227 24.8436C51.6798 24.8436 52.0313 24.3983 51.9024 23.9647C49.9806 16.7694 44.5899 12.867 37.2657 10.8162C36.8907 10.7108 36.504 10.9334 36.3985 11.3084C36.2931 11.6834 36.5157 12.0702 36.8907 12.1756C44.4845 14.2733 48.9493 18.2577 50.5431 24.328C50.6251 24.6327 50.9181 24.8436 51.2227 24.8436Z" fill="#1BADC4"/>
<path d="M46.3827 31.7812C46.7343 31.9101 47.1562 31.7226 47.2851 31.3593C48.3163 28.4647 48.0233 25.8983 46.4179 23.7304C46.1835 23.414 45.7499 23.3554 45.4335 23.578C45.1171 23.8124 45.0585 24.246 45.2812 24.5624C46.6054 26.3554 46.828 28.4296 45.9491 30.8788C45.8202 31.2421 46.0077 31.6523 46.3827 31.7812Z" fill="#2A3D46"/>
<path d="M51.75 39.5976C53.8828 36.1171 54.6328 31.7812 53.9648 26.7421C53.9179 26.3554 53.5664 26.0859 53.1796 26.1327C52.7929 26.1796 52.5234 26.5312 52.5703 26.9179C53.2031 31.6991 52.5351 35.6132 50.5429 38.8593C48.7382 41.8359 45.8437 44.1796 41.7187 46.0312C41.3671 46.1952 41.2031 46.6054 41.3671 46.957C41.5312 47.3202 41.9531 47.4726 42.2929 47.3085C46.6875 45.3398 49.7812 42.8202 51.75 39.5976Z" fill="#1BADC4"/>
<path d="M54.1876 40.6286C53.8126 40.5466 53.4376 40.7926 53.3555 41.1676C52.7813 43.8512 51.0118 45.6325 47.9415 46.6051C47.5665 46.7223 47.3672 47.1208 47.4844 47.4841C47.6016 47.8591 48.0118 48.0583 48.3633 47.9411C51.9024 46.8161 54.0469 44.6364 54.7266 41.4489C54.8087 41.0739 54.5743 40.7106 54.1876 40.6286Z" fill="#2A3D46"/>
</svg>
