<svg width="44" height="44" viewBox="0 0 44 44" fill="none" xmlns="http://www.w3.org/2000/svg">
<path d="M40.3521 3.6477C37.6465 0.942005 33.8642 -0.326911 29.6997 0.0719395C25.6825 0.457606 21.7726 2.36774 18.69 5.45061C15.6075 8.53349 13.6972 12.4432 13.3115 16.4604C13.2542 17.0557 13.2314 17.6537 13.2431 18.2517C11.9295 24.7668 10.2012 29.4777 8.34683 31.6269L0.493588 39.4802C0.337103 39.6367 0.21297 39.8224 0.12828 40.0269C0.0435896 40.2313 0 40.4505 0 40.6718C0 40.8931 0.0435896 41.1122 0.12828 41.3167C0.21297 41.5211 0.337103 41.7069 0.493588 41.8633L2.13748 43.5073C2.45376 43.8228 2.88227 44 3.32901 44C3.77576 44 4.20427 43.8228 4.52055 43.5073L12.3743 35.6533C14.5239 33.7991 19.2342 32.071 25.7485 30.7575C26.3464 30.7688 26.9444 30.7459 27.5396 30.689C31.5564 30.3035 35.4665 28.3934 38.5493 25.3103C41.6321 22.2277 43.5422 18.3178 43.9278 14.3006C44.3275 10.1365 43.0576 6.35315 40.3521 3.6477ZM3.67963 42.6664C3.58658 42.7592 3.46053 42.8113 3.32911 42.8113C3.1977 42.8113 3.07164 42.7592 2.97859 42.6664L1.3348 41.0224C1.24187 40.9295 1.18966 40.8034 1.18966 40.6719C1.18966 40.5405 1.24187 40.4144 1.3348 40.3214L8.45 33.206L10.7947 35.5509L3.67963 42.6664ZM42.7438 14.1868C42.3845 17.9298 40.5962 21.5815 37.7084 24.4693C34.8206 27.3572 31.1686 29.1458 27.4261 29.5049C26.856 29.5598 26.2832 29.5805 25.7107 29.5669C25.6664 29.5655 25.6222 29.5693 25.5788 29.5783C20.7853 30.5411 14.5973 32.1994 11.6403 34.7141L10.6534 33.7271C10.7459 33.7575 10.8444 33.7647 10.9403 33.7481C11.0362 33.7315 11.1266 33.6916 11.2035 33.632C13.1558 32.1162 16.365 30.7486 20.742 29.567C20.8597 29.5352 20.9648 29.4681 21.0431 29.3746C21.1213 29.2812 21.169 29.166 21.1796 29.0446C21.1903 28.9231 21.1633 28.8014 21.1025 28.6958C21.0416 28.5901 20.9498 28.5058 20.8394 28.4541C18.5099 27.3637 16.6368 25.4906 15.5465 23.161C15.4948 23.0507 15.4104 22.9589 15.3048 22.898C15.1992 22.8372 15.0775 22.8103 14.9561 22.8209C14.8347 22.8315 14.7195 22.8792 14.6261 22.9574C14.5326 23.0357 14.4655 23.1408 14.4337 23.2584C13.252 27.6354 11.8843 30.8449 10.3689 32.7972C10.3092 32.8741 10.2693 32.9645 10.2526 33.0604C10.236 33.1564 10.2432 33.2549 10.2736 33.3475L9.28648 32.3602C11.8013 29.4033 13.4595 23.2151 14.4223 18.4214C14.431 18.378 14.4348 18.3338 14.4337 18.2895C14.42 17.717 14.4406 17.1442 14.4956 16.5742C14.8549 12.8311 16.6432 9.17946 19.5311 6.29159C22.419 3.40372 26.0705 1.61536 29.8133 1.25602C33.6168 0.889704 37.061 2.03877 39.5111 4.48872C41.9609 6.93862 43.109 10.3827 42.7438 14.1868ZM12.7416 31.259C13.6228 29.5868 14.4396 27.4865 15.1838 24.9766C16.1587 26.5292 17.4713 27.8418 19.024 28.8166C16.5139 29.561 14.4137 30.3777 12.7416 31.259Z" fill="#2A3D46"/>
<path d="M19.79 7.60463C14.2282 12.9513 13.3865 20.8421 17.9135 25.194C19.8195 27.0265 22.4156 28 25.3316 28C25.8021 27.9997 26.2723 27.975 26.7401 27.9262C30.1741 27.5707 33.5373 25.9596 36.2101 23.3902C41.7718 18.0435 42.6135 10.1527 38.0864 5.80082C33.5594 1.4489 25.3516 2.25812 19.79 7.60463ZM34.3759 4.8519C35.243 5.18532 36.0468 5.65401 36.7551 6.23908L35.1243 7.80692L33.2132 5.96972L34.3759 4.8519ZM24.8535 14.0063L26.7646 12.169L28.6757 14.0062L26.7646 15.8435L24.8535 14.0063ZM25.8892 16.6851L23.9781 18.5224L22.067 16.6851L23.9781 14.8478L25.8892 16.6851ZM29.5512 14.8478L31.4622 16.6851L29.5511 18.5224L27.64 16.6851L29.5512 14.8478ZM30.4266 14.0063L32.3377 12.1689L34.2488 14.0062L32.3377 15.8435L30.4266 14.0063ZM32.3376 10.4858L30.4266 8.64854L32.3377 6.81124L34.2488 8.64846L32.3376 10.4858ZM31.4622 11.3274L29.551 13.1647L27.64 11.3275L29.5512 9.49022L31.4622 11.3274ZM26.7646 10.4859L24.8534 8.64862L26.7646 6.8113L28.6757 8.64858L26.7646 10.4859ZM25.8892 11.3275L23.9781 13.1648L22.067 11.3274L23.9781 9.49016L25.8892 11.3275ZM23.1027 14.0063L21.1916 15.8436L19.2804 14.0062L21.1916 12.169L23.1027 14.0063ZM23.1027 19.3639L21.1916 21.2013L19.2804 19.364L21.1916 17.5267L23.1027 19.3639ZM23.9782 20.2055L25.8892 22.0428L23.978 23.8801L22.067 22.0429L23.9782 20.2055ZM24.8535 19.364L26.7647 17.5267L28.6757 19.3639L26.7646 21.2012L24.8535 19.364ZM29.5511 20.2055L31.4623 22.0428L29.5511 23.8801L27.64 22.0428L29.5511 20.2055ZM30.4265 19.3639L32.3377 17.5267L34.2488 19.3639L32.3377 21.2012L30.4265 19.3639ZM33.213 16.6851L35.1242 14.8478L37.0354 16.6851L35.1242 18.5224L33.213 16.6851ZM33.213 11.3274L35.1242 9.4901L37.0353 11.3274L35.1242 13.1647L33.213 11.3274ZM33.0465 4.44673L32.3377 5.12816L31.3809 4.20832C31.942 4.24344 32.4991 4.32318 33.0465 4.44673ZM29.4333 4.24563C29.506 4.23833 29.5783 4.23431 29.6508 4.22831L31.4622 5.9697L29.5511 7.807L27.6399 5.96972L29.4333 4.24563ZM27.2579 4.65409L26.7647 5.12822L26.5087 4.88209C26.758 4.79891 27.0077 4.72234 27.2579 4.65409ZM25.2586 5.36353L25.8893 5.96984L23.9781 7.80716L22.8287 6.70219C23.5943 6.1854 24.4077 5.73736 25.2586 5.36353ZM20.6653 8.44633C21.0423 8.08396 21.4314 7.74451 21.8328 7.42798L23.1027 8.64874L21.1915 10.486L19.8969 9.24137C20.142 8.9708 20.3964 8.7049 20.6653 8.44633ZM19.1156 10.1735L20.3161 11.3275L18.4049 13.1648L17.6593 12.4478C18.0729 11.6492 18.5602 10.8881 19.1156 10.1735ZM17.1256 13.618L17.5296 14.0064L16.7201 14.7846C16.8354 14.3944 16.9705 14.0056 17.1256 13.618ZM18.405 14.8479L20.3161 16.6852L18.4049 18.5226L16.4938 16.6852L18.405 14.8479ZM16.2339 18.1185L17.5296 19.3641L16.5048 20.3493C16.3276 19.6178 16.2367 18.8696 16.2339 18.1185ZM18.0558 23.5445C17.5916 22.9568 17.2121 22.3115 16.9274 21.6262L18.4049 20.2057L20.3161 22.043L18.405 23.8803L18.0558 23.5445ZM19.6266 25.0546L19.2804 24.7218L21.1915 22.8846L23.1026 24.7217L21.6238 26.1434C20.91 25.8686 20.2382 25.5025 19.6266 25.0546ZM22.9542 26.5475L23.978 25.5633L25.2708 26.8062C24.4909 26.804 23.7138 26.7173 22.9542 26.5475ZM26.7645 26.5591L24.8533 24.7217L26.7645 22.8844L28.6756 24.7217L26.7645 26.5591ZM28.7431 26.34L29.551 25.5633L29.9555 25.9521C29.5554 26.1002 29.1512 26.2295 28.7431 26.34ZM31.1729 25.4394L30.4264 24.7217L32.3375 22.8845L33.5389 24.0394C32.7957 24.5736 32.0038 25.0422 31.1729 25.4394ZM35.3345 22.5488C35.0666 22.8064 34.7899 23.0515 34.508 23.2879L33.2129 22.0429L35.1241 20.2056L36.3925 21.425C36.0625 21.81 35.7116 22.1863 35.3345 22.5488ZM37.1492 20.4694L35.9995 19.364L37.9107 17.5267L38.5425 18.1342C38.1534 18.9519 37.687 19.7336 37.1492 20.4694ZM39.0451 16.9343L38.786 16.6852L39.2797 16.2106C39.2084 16.452 39.132 16.6936 39.0451 16.9343ZM39.7035 14.1201L37.9107 15.8435L35.9995 14.0062L37.9107 12.1689L39.723 13.9113C39.7169 13.9808 39.7111 14.0504 39.7035 14.1201ZM39.7424 12.247L38.786 11.3275L39.495 10.6459C39.6233 11.1721 39.706 11.7077 39.7424 12.247ZM37.9107 10.486L35.9995 8.64868L37.6309 7.08026C38.2392 7.76167 38.7263 8.53493 39.0726 9.36887L37.9107 10.486Z" fill="#2A3D46"/>
<path d="M32.0503 31.9012C31.0713 32.8105 30.4046 33.9689 30.1345 35.2301C29.8644 36.4913 30.003 37.7985 30.5328 38.9865C31.0626 40.1745 31.9599 41.1899 33.111 41.9043C34.2621 42.6187 35.6155 43 37 43C38.3845 43 39.7379 42.6187 40.889 41.9043C42.0401 41.1899 42.9374 40.1745 43.4672 38.9865C43.997 37.7985 44.1356 36.4913 43.8655 35.2301C43.5954 33.9689 42.9287 32.8105 41.9497 31.9012C40.636 30.6838 38.8559 30 37 30C35.1441 30 33.364 30.6838 32.0503 31.9012ZM32.9325 32.7206C33.9986 31.7295 35.4423 31.1686 36.9506 31.1595C36.94 32.5603 36.3362 33.9009 35.2697 34.8914C34.2032 35.8818 32.7598 36.4426 31.2516 36.4524C31.2616 35.0515 31.8655 33.7108 32.9325 32.7206ZM41.0675 40.2762C40.5017 40.8021 39.8238 41.2122 39.0772 41.4803C38.3306 41.7483 37.5319 41.8683 36.7324 41.8326C36.6953 41.111 36.8164 40.3899 37.0884 39.7131C37.3604 39.0363 37.7775 38.4178 38.3146 37.8952C38.8516 37.3726 39.4974 36.9568 40.2127 36.673C40.928 36.3891 41.6979 36.2432 42.4757 36.2441C42.5649 36.2441 42.654 36.246 42.7432 36.25C42.7816 36.9925 42.6524 37.7343 42.3638 38.4277C42.0752 39.121 41.6337 39.7507 41.0675 40.2762ZM37.5259 36.9869C36.8674 37.598 36.3473 38.3252 35.996 39.1258C35.6447 39.9264 35.4694 40.7842 35.4805 41.6487C34.4623 41.3913 33.5403 40.8779 32.8162 40.165C32.092 39.452 31.5938 38.5673 31.3765 37.6082C33.1718 37.5697 34.8821 36.8901 36.1519 35.7108C37.4217 34.5314 38.1534 32.9429 38.1948 31.2754C39.2275 31.4773 40.1801 31.94 40.9476 32.6125C41.7152 33.2851 42.268 34.1414 42.5451 35.0871C41.6143 35.0768 40.6908 35.2396 39.8288 35.5659C38.9668 35.8922 38.1838 36.3754 37.5259 36.9869Z" fill="#1BADC4"/>
</svg>
