<svg width="45" height="45" viewBox="0 0 45 45" fill="none" xmlns="http://www.w3.org/2000/svg">
<g clip-path="url(#clip0_167_755)">
<path d="M19.1391 15.9424C19.016 15.8193 18.8455 15.749 18.6724 15.749C18.4992 15.749 18.3296 15.8193 18.2065 15.9424C18.0835 16.0654 18.0132 16.2351 18.0132 16.4082C18.0132 16.5822 18.0835 16.7519 18.2065 16.8749C18.3287 16.9971 18.4992 17.0674 18.6724 17.0674C18.8464 17.0674 19.016 16.9971 19.1391 16.8749C19.2612 16.7519 19.3315 16.5822 19.3315 16.4082C19.3315 16.2351 19.2612 16.0654 19.1391 15.9424Z" fill="#2A3D46"/>
<path d="M26.6502 15.9425C26.5271 15.8203 26.3575 15.75 26.1835 15.75C26.0103 15.75 25.8398 15.8203 25.7176 15.9425C25.5946 16.0655 25.5243 16.2352 25.5243 16.4083C25.5243 16.5823 25.5946 16.752 25.7176 16.875C25.8407 16.9972 26.0103 17.0675 26.1835 17.0675C26.3575 17.0675 26.5271 16.9972 26.6502 16.875C26.7723 16.752 26.8427 16.5823 26.8427 16.4083C26.8427 16.2352 26.7723 16.0655 26.6502 15.9425Z" fill="#2A3D46"/>
<path d="M28.1722 13.528L26.4717 13.0724C26.1204 12.9783 25.7586 13.1869 25.6643 13.5386C25.5701 13.8902 25.7789 14.2516 26.1305 14.3459L27.831 14.8015C27.8882 14.8168 27.9455 14.8241 28.0021 14.8241C28.2931 14.8241 28.5595 14.6298 28.6384 14.3353C28.7325 13.9837 28.5239 13.6223 28.1722 13.528Z" fill="#2A3D46"/>
<path d="M19.7189 13.5391C19.6246 13.1873 19.2633 12.9789 18.9116 13.0728L17.211 13.5285C16.8593 13.6227 16.6506 13.9842 16.7448 14.3358C16.8237 14.6303 17.09 14.8246 17.3811 14.8246C17.4376 14.8246 17.4949 14.8173 17.5521 14.802L19.2527 14.3464C19.6044 14.2522 19.813 13.8907 19.7189 13.5391Z" fill="#2A3D46"/>
<path d="M20.7817 33.3125C20.6587 33.1895 20.4891 33.1191 20.3159 33.1191C20.1419 33.1191 19.9723 33.1895 19.8492 33.3125C19.7271 33.4347 19.6567 33.6052 19.6567 33.7783C19.6567 33.9523 19.7271 34.122 19.8492 34.2441C19.9723 34.3672 20.1419 34.4375 20.3159 34.4375C20.4891 34.4375 20.6596 34.3672 20.7817 34.2441C20.9048 34.122 20.9751 33.9523 20.9751 33.7783C20.9751 33.6052 20.9048 33.4347 20.7817 33.3125Z" fill="#2A3D46"/>
<path d="M20.0778 36.481C19.9547 36.3588 19.7851 36.2876 19.6111 36.2876C19.4379 36.2876 19.2683 36.3588 19.1453 36.481C19.0231 36.604 18.9519 36.7736 18.9519 36.9468C18.9519 37.1208 19.0231 37.2904 19.1453 37.4135C19.2683 37.5356 19.4379 37.606 19.6111 37.606C19.7851 37.606 19.9547 37.5356 20.0778 37.4135C20.2 37.2904 20.2703 37.1208 20.2703 36.9468C20.2703 36.7736 20.2 36.604 20.0778 36.481Z" fill="#2A3D46"/>
<path d="M20.7817 39.649C20.6587 39.5269 20.4891 39.4565 20.3159 39.4565C20.1419 39.4565 19.9723 39.5269 19.8492 39.649C19.7271 39.7721 19.6567 39.9417 19.6567 40.1157C19.6567 40.2889 19.7271 40.4594 19.8492 40.5815C19.9723 40.7046 20.1419 40.7749 20.3159 40.7749C20.4891 40.7749 20.6587 40.7046 20.7817 40.5815C20.9048 40.4594 20.9751 40.2889 20.9751 40.1157C20.9751 39.9417 20.9048 39.7721 20.7817 39.649Z" fill="#2A3D46"/>
<path d="M14.5063 0C13.3338 0 12.38 0.953789 12.38 2.12616C12.3799 3.29854 13.3338 4.25241 14.5063 4.25241C15.6786 4.25241 16.6324 3.29854 16.6324 2.12616C16.6323 0.953789 15.6786 0 14.5063 0ZM14.5063 2.93405C14.0607 2.93405 13.6984 2.57159 13.6984 2.12616C13.6983 1.68073 14.0607 1.31836 14.5063 1.31836C14.9516 1.31836 15.3141 1.68073 15.3141 2.12616C15.3141 2.57159 14.9517 2.93405 14.5063 2.93405Z" fill="#1BADC4"/>
<path d="M37.8574 23.3291C36.685 23.3291 35.7312 24.2828 35.7312 25.4552C35.7312 26.6276 36.685 27.5814 37.8574 27.5814C39.0297 27.5814 39.9835 26.6275 39.9835 25.4552C39.9835 24.2828 39.0297 23.3291 37.8574 23.3291ZM37.8574 26.2631C37.4119 26.2631 37.0496 25.9006 37.0496 25.4552C37.0496 25.0098 37.4119 24.6475 37.8574 24.6475C38.3028 24.6475 38.6652 25.0098 38.6652 25.4552C38.6652 25.9007 38.3028 26.2631 37.8574 26.2631Z" fill="#1BADC4"/>
<path d="M4.7064 10.7974C3.53402 10.7974 2.58032 11.7512 2.58032 12.9235C2.58023 14.0959 3.53402 15.0498 4.7064 15.0498C5.87886 15.0498 6.83265 14.0959 6.83265 12.9235C6.83265 11.7512 5.87877 10.7974 4.7064 10.7974ZM4.7064 13.7314C4.26105 13.7314 3.89868 13.369 3.89868 12.9235C3.89859 12.4781 4.26097 12.1157 4.7064 12.1157C5.15191 12.1157 5.51429 12.4781 5.51429 12.9235C5.51429 13.369 5.15183 13.7314 4.7064 13.7314Z" fill="#1BADC4"/>
<path d="M41.5548 10.8096C40.3824 10.8096 39.4287 11.7634 39.4287 12.9357C39.4286 14.1082 40.3824 15.062 41.5548 15.062C42.7272 15.062 43.681 14.1081 43.681 12.9357C43.681 11.7634 42.7272 10.8096 41.5548 10.8096ZM41.5548 13.7436C41.1094 13.7436 40.7471 13.3812 40.7471 12.9357C40.747 12.4903 41.1094 12.1279 41.5548 12.1279C42.0003 12.1279 42.3627 12.4903 42.3627 12.9357C42.3627 13.3812 42.0002 13.7436 41.5548 13.7436Z" fill="#1BADC4"/>
<path d="M42.5836 43.6816H40.0764C39.3854 41.848 38.0052 40.6494 36.4215 40.5166C36.677 39.487 36.8099 38.4232 36.8099 37.3432C36.8099 35.934 36.5864 34.5606 36.1637 33.2638H37.06L38.1579 34.3617C38.2866 34.4904 38.4553 34.5548 38.6241 34.5548C38.7927 34.5548 38.9615 34.4905 39.0901 34.3618C39.3476 34.1044 39.3476 33.687 39.0901 33.4295L38.9244 33.2638H41.9101C42.2742 33.2638 42.5693 32.9686 42.5693 32.6046C42.5693 32.2405 42.2742 31.9454 41.9101 31.9454H40.3328L41.2027 31.0756C41.4601 30.8182 41.4601 30.4008 41.2027 30.1434C40.9452 29.886 40.5279 29.886 40.2704 30.1434L38.4682 31.9454H35.6539C35.4027 31.3884 35.1127 30.8498 34.7858 30.3333C34.8011 30.1625 34.7697 29.984 34.6876 29.8118L32.9965 26.2628C32.872 26.0015 32.6446 25.7828 32.3785 25.6454C33.7261 23.8088 34.4719 21.5752 34.4719 19.2632C34.4719 18.4385 34.3785 17.6351 34.2025 16.8629C34.6703 15.9495 34.9931 15.3192 35.0713 15.1666C35.5231 14.485 35.4496 13.5334 34.871 12.445C35.8946 10.3821 37.0933 7.96603 37.2542 7.64189C37.9909 6.48842 36.4921 4.66407 34.763 3.44037C33.0375 2.21939 30.8232 1.41361 29.977 2.48289L29.419 3.03546C29.1603 3.29166 29.1582 3.70896 29.4144 3.96771C29.6706 4.22646 30.0879 4.22831 30.3466 3.97228C30.7137 3.60885 30.9402 3.38438 30.9405 3.38421C30.9596 3.36505 30.9777 3.34466 30.9944 3.32321C31.2391 3.21695 32.4353 3.40829 34.0017 4.51659C35.5693 5.62603 36.1476 6.69118 36.1275 6.95626C36.0961 7.01154 35.9176 7.37005 34.0233 11.1878C33.2931 10.2838 32.3122 9.38028 31.1839 8.58206C29.9735 7.72539 28.7244 7.08001 27.5882 6.70384L28.2373 6.06109C28.496 5.80489 28.4981 5.38758 28.242 5.12892C27.9858 4.87017 27.5684 4.86824 27.3098 5.12426L26.0637 6.35816C25.8924 6.34006 25.7252 6.32872 25.5658 6.32872C24.5085 6.32872 23.9619 6.73785 23.685 7.1011C23.5541 7.23469 23.0166 7.78252 22.2442 8.56931C17.0322 9.26646 12.986 13.6983 12.8943 19.0767C12.7438 19.1081 12.6005 19.1396 12.4665 19.1711C11.4726 19.4051 10.5023 19.6993 10.5023 20.4863C10.5023 21.2922 11.5425 21.594 12.6079 21.8341C12.802 21.8778 13.0126 21.9214 13.2378 21.9646C13.5662 23.2309 14.1232 24.4287 14.8806 25.4981C14.412 25.5479 13.9658 25.8734 13.789 26.3094L12.3588 29.8374C12.2459 30.116 12.2562 30.407 12.3833 30.6515C12.1357 31.0692 11.9104 31.5008 11.7102 31.9456H8.50042L6.69823 30.1436C6.44071 29.8861 6.02349 29.8862 5.76597 30.1436C5.50854 30.401 5.50863 30.8184 5.76606 31.0758L6.63583 31.9456H5.05863C4.69458 31.9456 4.39945 32.2407 4.39945 32.6048C4.39945 32.9688 4.69458 33.2639 5.05863 33.2639H8.04427L7.87851 33.4297C7.62108 33.6871 7.62108 34.1045 7.87851 34.362C8.00718 34.4907 8.17593 34.5551 8.34459 34.5551C8.51326 34.5551 8.68201 34.4907 8.81068 34.362L9.90861 33.264H11.2008C11.0997 33.5742 11.0094 33.889 10.931 34.2085C10.8442 34.562 11.0606 34.919 11.4141 35.0058C11.7678 35.0924 12.1246 34.8762 12.2113 34.5225C12.3165 34.0936 12.4456 33.6739 12.596 33.264H13.7433C14.1073 33.264 14.4025 32.9689 14.4025 32.6049C14.4025 32.2408 14.1073 31.9457 13.7433 31.9457H13.1735C13.3125 31.675 13.4619 31.4101 13.6213 31.1515H25.2969V34.3953C25.2969 34.8955 25.6334 35.3179 26.0916 35.4502V36.123C26.0916 36.4871 26.3868 36.7822 26.7508 36.7822C27.1149 36.7822 27.41 36.4871 27.41 36.123V35.4936H27.7616V36.123C27.7616 36.4871 28.0567 36.7822 28.4207 36.7822C28.7848 36.7822 29.0799 36.4871 29.0799 36.123V35.4936H29.4315V36.123C29.4315 36.4871 29.7266 36.7822 30.0907 36.7822C30.4547 36.7822 30.7498 36.4871 30.7498 36.123V35.45C31.2081 35.3177 31.5446 34.8953 31.5446 34.395V31.1512H33.74C33.8997 31.4102 34.0494 31.675 34.1884 31.9454H33.2255C32.8614 31.9454 32.5663 32.2405 32.5663 32.6046C32.5663 32.9686 32.8614 33.2638 33.2255 33.2638H34.7683C35.2406 34.5492 35.4916 35.9262 35.4916 37.3432C35.4916 39.6043 34.8551 41.7883 33.648 43.6816H13.7158C12.5085 41.7883 11.8721 39.6043 11.8721 37.3432C11.8721 36.9792 11.5769 36.684 11.2129 36.684C10.8489 36.684 10.5537 36.9792 10.5537 37.3432C10.5537 37.5612 10.561 37.7783 10.5717 37.9948C9.84163 38.6195 9.25918 39.5212 8.92204 40.6061C8.64729 40.5379 8.36692 40.5035 8.08303 40.5035C6.37734 40.5035 4.86782 41.7354 4.13437 43.6816H1.97815C1.61411 43.6816 1.31897 43.9768 1.31897 44.3408C1.31897 44.7048 1.61411 45 1.97815 45H4.60731H13.3606H16.5533H27.657H34.0032H39.603C39.6035 45 39.6041 45 39.6047 45H42.5836C42.9477 45 43.2428 44.7048 43.2428 44.3408C43.2428 43.9768 42.9477 43.6816 42.5836 43.6816ZM24.7249 7.90943L24.726 7.91013C24.8461 7.74042 25.1443 7.64699 25.5655 7.64699C26.8084 7.64699 28.6694 8.41761 30.4224 9.65819C31.7333 10.5857 32.8158 11.6526 33.4703 12.6625C34.0911 13.6201 34.1251 14.2231 33.9657 14.4484C33.9574 14.46 33.9496 14.472 33.9421 14.4841C33.9327 14.4995 33.9289 14.5057 33.631 15.0871C32.0557 11.3483 28.432 8.67663 24.1734 8.48476C24.5779 8.07124 24.686 7.95768 24.7249 7.90943ZM16.289 29.8329H13.783L15.0026 26.8245C15.009 26.8188 15.0181 26.8127 15.0258 26.8088H17.0996L16.289 29.8329ZM21.1246 29.8329H17.6539L18.4645 26.8088H21.4127L21.1246 29.8329ZM25.297 29.8329H22.449L22.737 26.8088H25.297V29.8329ZM26.6154 34.1753V32.4712H30.2263V34.1753H26.6154ZM30.2263 27.8088H26.6154V26.1047H30.2263V27.8088ZM30.2263 29.1272V31.1528H26.6154V29.1272H30.2263ZM31.1686 25.06C30.9755 24.8901 30.723 24.7864 30.446 24.7864H26.3957C25.929 24.7864 25.5305 25.0793 25.3715 25.4905H16.5506C15.7104 24.5279 15.0768 23.41 14.6825 22.2077C15.1428 22.2763 15.6418 22.3441 16.1788 22.4105C16.5402 22.4552 16.8692 22.1985 16.9139 21.8372C16.9586 21.4759 16.7019 21.1468 16.3406 21.1021C14.4375 20.8666 13.3047 20.6516 12.6345 20.4862C13.32 20.3172 14.4891 20.0962 16.4711 19.8545C18.8118 19.5691 20.9726 19.4152 21.3398 19.4152C21.9305 19.4152 22.4111 19.8957 22.4111 20.4863C22.4111 21.0769 21.9306 21.5575 21.34 21.5575C21.1111 21.5574 20.2593 21.5022 19.1318 21.3999C18.7694 21.3665 18.4487 21.6341 18.4158 21.9967C18.3829 22.3593 18.65 22.6799 19.0127 22.7128C20.0696 22.8087 21.0266 22.8758 21.3399 22.8759C22.6575 22.8759 23.7295 21.804 23.7295 20.4863C23.7295 19.1687 22.6574 18.0967 21.3398 18.0967C20.8026 18.0967 18.23 18.2962 15.8078 18.6089C15.2306 18.6834 14.7012 18.7594 14.2202 18.8363C14.4442 13.8109 18.6021 9.79143 23.6819 9.79143C28.9047 9.79143 33.1538 14.0404 33.1538 19.2632C33.1537 21.3751 32.4444 23.412 31.1686 25.06ZM31.5446 29.8329V26.8088H31.7581C31.7751 26.8147 31.8003 26.8307 31.813 26.8434L33.2375 29.8329H31.5446ZM5.57235 43.6817V43.6816C6.14654 42.5417 7.08837 41.8219 8.08294 41.8219C8.42616 41.8219 8.76427 41.9039 9.0878 42.0656C9.27228 42.1578 9.48919 42.1583 9.67403 42.0672C9.85895 41.976 9.99052 41.8035 10.0296 41.6012C10.1683 40.8845 10.4284 40.2498 10.772 39.7363C11.0265 41.1184 11.5029 42.4475 12.1852 43.6817H5.57235ZM35.1784 43.6816C35.5091 43.0834 35.7913 42.4628 36.0231 41.8246C36.0577 41.8229 36.0925 41.8219 36.1273 41.8219C37.1218 41.8219 38.0637 42.5417 38.6379 43.6816H35.1784Z" fill="#2A3D46"/>
</g>
<defs>
<clipPath id="clip0_167_755">
<rect width="45" height="45" fill="white"/>
</clipPath>
</defs>
</svg>
