<svg width="38" height="38" viewBox="0 0 38 38" fill="none" xmlns="http://www.w3.org/2000/svg">
<g clip-path="url(#clip0_48_924)">
<path fill-rule="evenodd" clip-rule="evenodd" d="M28.5 38H9.5C6.98048 37.9999 4.56418 36.999 2.78261 35.2174C1.00104 33.4358 0.000110222 31.0195 0 28.5L0 9.5C0.000110222 6.98048 1.00104 4.56418 2.78261 2.78261C4.56418 1.00104 6.98048 0.000110222 9.5 0L28.5 0C31.0196 0 33.4359 1.00089 35.2175 2.78249C36.9991 4.56408 38 6.98044 38 9.5V28.5C38 31.0196 36.9991 33.4359 35.2175 35.2175C33.4359 36.9991 31.0196 38 28.5 38Z" fill="#1BADC4"/>
<path fill-rule="evenodd" clip-rule="evenodd" d="M17.8125 10.6875H28.5C29.8699 10.6874 31.1875 10.1612 32.1807 9.21762C33.1738 8.274 33.7667 6.98503 33.8368 5.61688C33.9069 4.24873 33.4489 2.90591 32.5574 1.86572C31.6659 0.825532 30.409 0.167427 29.0462 0.0273125C28.8646 0.0172187 28.6847 0 28.5 0H9.5C6.98048 0.000110222 4.56418 1.00104 2.78261 2.78261C1.00104 4.56418 0.000110222 6.98048 0 9.5L0 28.5C0.000110226 23.7759 1.87681 19.2452 5.21728 15.9048C8.55775 12.5643 13.0884 10.6876 17.8125 10.6875Z" fill="#0B8CA0"/>
<path fill-rule="evenodd" clip-rule="evenodd" d="M28.5 19C26.6211 19 24.7844 19.5572 23.2221 20.601C21.6598 21.6449 20.4422 23.1286 19.7231 24.8645C19.0041 26.6004 18.816 28.5105 19.1825 30.3534C19.5491 32.1962 20.4539 33.8889 21.7825 35.2175C23.1111 36.5461 24.8038 37.4509 26.6466 37.8175C28.4895 38.184 30.3996 37.9959 32.1355 37.2769C33.8714 36.5578 35.3551 35.3402 36.399 33.7779C37.4428 32.2156 38 30.3789 38 28.5V9.5C38 12.0196 36.9991 14.4359 35.2175 16.2175C33.4359 17.9991 31.0196 19 28.5 19Z" fill="#0B8CA0"/>
<path fill-rule="evenodd" clip-rule="evenodd" d="M14.8723 10.6139C14.6924 10.5031 14.4861 10.4423 14.2749 10.4378C14.0637 10.4333 13.8551 10.4852 13.6706 10.5883C13.4862 10.6914 13.3326 10.8418 13.2257 11.024C13.1188 11.2063 13.0624 11.4137 13.0625 11.625V26.375C13.0624 26.5863 13.1188 26.7937 13.2257 26.976C13.3326 27.1582 13.4862 27.3086 13.6706 27.4117C13.8551 27.5148 14.0637 27.5667 14.2749 27.5622C14.4861 27.5577 14.6924 27.4969 14.8723 27.3861C17.8998 25.5235 23.9442 21.8037 26.8565 20.0112C27.0292 19.9049 27.1719 19.7562 27.2709 19.5792C27.3698 19.4022 27.4218 19.2028 27.4218 19C27.4218 18.7972 27.3698 18.5978 27.2709 18.4208C27.1719 18.2438 27.0292 18.0951 26.8565 17.9888C23.9442 16.1963 17.8998 12.4765 14.8723 10.6139Z" fill="white"/>
</g>
<defs>
<clipPath id="clip0_48_924">
<rect width="38" height="38" fill="white"/>
</clipPath>
</defs>
</svg>
